<svg width="389" height="728" viewBox="0 0 389 728" fill="none" xmlns="http://www.w3.org/2000/svg">
<rect x="0.562988" y="19" width="388" height="709" fill="#3C3B4B"/>
<rect x="109.563" width="183" height="19" fill="#194B48"/>
<path d="M109.563 0H292.563L280.063 42H121.563L109.563 0Z" fill="#00BE9C"/>
<path d="M161.543 29V11.9375H167.122C168.973 11.9375 170.364 12.3203 171.293 13.0859C172.231 13.8516 172.7 14.9844 172.7 16.4844C172.7 17.2812 172.473 17.9883 172.02 18.6055C171.567 19.2148 170.95 19.6875 170.168 20.0234C171.09 20.2812 171.817 20.7734 172.348 21.5C172.887 22.2188 173.157 23.0781 173.157 24.0781C173.157 25.6094 172.661 26.8125 171.668 27.6875C170.676 28.5625 169.274 29 167.461 29H161.543ZM163.793 21.0195V27.1602H167.508C168.555 27.1602 169.379 26.8906 169.981 26.3516C170.59 25.8047 170.895 25.0547 170.895 24.1016C170.895 22.0469 169.778 21.0195 167.543 21.0195H163.793ZM163.793 19.2148H167.192C168.176 19.2148 168.961 18.9688 169.547 18.4766C170.141 17.9844 170.438 17.3164 170.438 16.4727C170.438 15.5352 170.165 14.8555 169.618 14.4336C169.071 14.0039 168.239 13.7891 167.122 13.7891H163.793V19.2148ZM185.918 24.5469H178.77L177.165 29H174.844L181.36 11.9375H183.329L189.856 29H187.547L185.918 24.5469ZM179.45 22.6953H185.25L182.344 14.7148L179.45 22.6953ZM183.458 7.36719H186.083L182.942 10.8125H181.196L183.458 7.36719ZM197.18 21.3945C195.25 20.8398 193.844 20.1602 192.961 19.3555C192.086 18.543 191.649 17.543 191.649 16.3555C191.649 15.0117 192.184 13.9023 193.254 13.0273C194.333 12.1445 195.731 11.7031 197.45 11.7031C198.622 11.7031 199.665 11.9297 200.579 12.3828C201.5 12.8359 202.211 13.4609 202.711 14.2578C203.219 15.0547 203.473 15.9258 203.473 16.8711H201.211C201.211 15.8398 200.883 15.0312 200.227 14.4453C199.571 13.8516 198.645 13.5547 197.45 13.5547C196.34 13.5547 195.473 13.8008 194.848 14.293C194.231 14.7773 193.922 15.4531 193.922 16.3203C193.922 17.0156 194.215 17.6055 194.801 18.0898C195.395 18.5664 196.399 19.0039 197.813 19.4023C199.235 19.8008 200.344 20.2422 201.141 20.7266C201.946 21.2031 202.54 21.7617 202.922 22.4023C203.313 23.043 203.508 23.7969 203.508 24.6641C203.508 26.0469 202.969 27.1562 201.891 27.9922C200.813 28.8203 199.372 29.2344 197.567 29.2344C196.395 29.2344 195.301 29.0117 194.286 28.5664C193.27 28.1133 192.485 27.4961 191.93 26.7148C191.383 25.9336 191.11 25.0469 191.11 24.0547H193.372C193.372 25.0859 193.75 25.9023 194.508 26.5039C195.274 27.0977 196.293 27.3945 197.567 27.3945C198.754 27.3945 199.665 27.1523 200.297 26.668C200.93 26.1836 201.247 25.5234 201.247 24.6875C201.247 23.8516 200.954 23.207 200.368 22.7539C199.782 22.293 198.719 21.8398 197.18 21.3945ZM208.817 29H206.567V11.9375H208.817V29ZM225.493 23.5859C225.282 25.3906 224.614 26.7852 223.489 27.7695C222.372 28.7461 220.883 29.2344 219.024 29.2344C217.008 29.2344 215.391 28.5117 214.172 27.0664C212.961 25.6211 212.356 23.6875 212.356 21.2656V19.625C212.356 18.0391 212.637 16.6445 213.2 15.4414C213.77 14.2383 214.575 13.3164 215.614 12.6758C216.653 12.0273 217.856 11.7031 219.223 11.7031C221.036 11.7031 222.489 12.2109 223.583 13.2266C224.676 14.2344 225.313 15.6328 225.493 17.4219H223.231C223.036 16.0625 222.61 15.0781 221.954 14.4688C221.305 13.8594 220.395 13.5547 219.223 13.5547C217.786 13.5547 216.657 14.0859 215.836 15.1484C215.024 16.2109 214.618 17.7227 214.618 19.6836V21.3359C214.618 23.1875 215.004 24.6602 215.778 25.7539C216.551 26.8477 217.633 27.3945 219.024 27.3945C220.274 27.3945 221.231 27.1133 221.895 26.5508C222.567 25.9805 223.012 24.9922 223.231 23.5859H225.493ZM241.7 21.0195C241.7 22.6914 241.418 24.1523 240.856 25.4023C240.293 26.6445 239.497 27.5938 238.465 28.25C237.434 28.9062 236.231 29.2344 234.856 29.2344C233.512 29.2344 232.321 28.9062 231.282 28.25C230.243 27.5859 229.434 26.6445 228.856 25.4258C228.286 24.1992 227.993 22.7812 227.977 21.1719V19.9414C227.977 18.3008 228.262 16.8516 228.833 15.5938C229.403 14.3359 230.208 13.375 231.247 12.7109C232.293 12.0391 233.489 11.7031 234.833 11.7031C236.2 11.7031 237.403 12.0352 238.442 12.6992C239.489 13.3555 240.293 14.3125 240.856 15.5703C241.418 16.8203 241.7 18.2773 241.7 19.9414V21.0195ZM239.461 19.918C239.461 17.8945 239.055 16.3438 238.243 15.2656C237.43 14.1797 236.293 13.6367 234.833 13.6367C233.411 13.6367 232.29 14.1797 231.469 15.2656C230.657 16.3438 230.239 17.8438 230.215 19.7656V21.0195C230.215 22.9805 230.625 24.5234 231.446 25.6484C232.274 26.7656 233.411 27.3242 234.856 27.3242C236.309 27.3242 237.434 26.7969 238.231 25.7422C239.028 24.6797 239.438 23.1602 239.461 21.1836V19.918Z" fill="white"/>
<path d="M0.562988 122L7.56299 132V623L0.562988 636V122Z" fill="#00BE9C"/>
<path d="M388.563 636L381.563 626L381.563 135L388.563 122L388.563 636Z" fill="#00BE9C"/>
<path d="M161.962 82.6602H156.601L155.396 86H153.656L158.543 73.2031H160.02L164.915 86H163.184L161.962 82.6602ZM157.11 81.2715H161.461L159.281 75.2861L157.11 81.2715ZM178.881 81.3506C178.881 82.7979 178.55 83.9639 177.888 84.8486C177.226 85.7334 176.329 86.1758 175.198 86.1758C174.044 86.1758 173.136 85.8096 172.474 85.0771V89.6562H170.848V76.4902H172.333L172.412 77.5449C173.074 76.7246 173.994 76.3145 175.172 76.3145C176.314 76.3145 177.217 76.7451 177.879 77.6064C178.547 78.4678 178.881 79.666 178.881 81.2012V81.3506ZM177.255 81.166C177.255 80.0938 177.026 79.2471 176.569 78.626C176.112 78.0049 175.485 77.6943 174.688 77.6943C173.704 77.6943 172.966 78.1309 172.474 79.0039V83.5479C172.96 84.415 173.704 84.8486 174.706 84.8486C175.485 84.8486 176.104 84.541 176.561 83.9258C177.023 83.3047 177.255 82.3848 177.255 81.166ZM186.826 86C186.732 85.8125 186.656 85.4785 186.598 84.998C185.842 85.7832 184.939 86.1758 183.891 86.1758C182.953 86.1758 182.183 85.9121 181.579 85.3848C180.981 84.8516 180.683 84.1777 180.683 83.3633C180.683 82.373 181.058 81.6055 181.808 81.0605C182.563 80.5098 183.624 80.2344 184.989 80.2344H186.571V79.4873C186.571 78.9189 186.401 78.4678 186.062 78.1338C185.722 77.7939 185.221 77.624 184.559 77.624C183.979 77.624 183.492 77.7705 183.1 78.0635C182.707 78.3564 182.511 78.7109 182.511 79.127H180.876C180.876 78.6523 181.043 78.1953 181.377 77.7559C181.717 77.3105 182.174 76.959 182.748 76.7012C183.328 76.4434 183.964 76.3145 184.655 76.3145C185.751 76.3145 186.609 76.5898 187.23 77.1406C187.852 77.6855 188.174 78.4385 188.197 79.3994V83.7764C188.197 84.6494 188.309 85.3438 188.531 85.8594V86H186.826ZM184.128 84.7607C184.638 84.7607 185.121 84.6289 185.578 84.3652C186.035 84.1016 186.366 83.7588 186.571 83.3369V81.3857H185.297C183.305 81.3857 182.309 81.9688 182.309 83.1348C182.309 83.6445 182.479 84.043 182.818 84.3301C183.158 84.6172 183.595 84.7607 184.128 84.7607ZM195.343 77.9492C195.097 77.9082 194.83 77.8877 194.543 77.8877C193.477 77.8877 192.753 78.3418 192.372 79.25V86H190.746V76.4902H192.328L192.354 77.5889C192.888 76.7393 193.644 76.3145 194.622 76.3145C194.938 76.3145 195.179 76.3555 195.343 76.4375V77.9492ZM199.491 74.1875V76.4902H201.267V77.7471H199.491V83.6445C199.491 84.0254 199.57 84.3125 199.729 84.5059C199.887 84.6934 200.156 84.7871 200.537 84.7871C200.725 84.7871 200.982 84.752 201.311 84.6816V86C200.883 86.1172 200.467 86.1758 200.062 86.1758C199.336 86.1758 198.788 85.9561 198.419 85.5166C198.05 85.0771 197.865 84.4531 197.865 83.6445V77.7471H196.134V76.4902H197.865V74.1875H199.491ZM204.94 86H203.314V76.4902H204.94V86ZM203.183 73.9678C203.183 73.7041 203.262 73.4814 203.42 73.2998C203.584 73.1182 203.824 73.0273 204.141 73.0273C204.457 73.0273 204.697 73.1182 204.861 73.2998C205.025 73.4814 205.107 73.7041 205.107 73.9678C205.107 74.2314 205.025 74.4512 204.861 74.627C204.697 74.8027 204.457 74.8906 204.141 74.8906C203.824 74.8906 203.584 74.8027 203.42 74.627C203.262 74.4512 203.183 74.2314 203.183 73.9678ZM212.147 77.9492C211.901 77.9082 211.635 77.8877 211.348 77.8877C210.281 77.8877 209.558 78.3418 209.177 79.25V86H207.551V76.4902H209.133L209.159 77.5889C209.692 76.7393 210.448 76.3145 211.427 76.3145C211.743 76.3145 211.983 76.3555 212.147 76.4375V77.9492ZM217.72 81.166C217.72 79.707 218.065 78.5352 218.757 77.6504C219.448 76.7598 220.354 76.3145 221.473 76.3145C222.586 76.3145 223.468 76.6953 224.118 77.457V72.5H225.744V86H224.25L224.171 84.9805C223.521 85.7773 222.615 86.1758 221.455 86.1758C220.354 86.1758 219.454 85.7246 218.757 84.8223C218.065 83.9199 217.72 82.7422 217.72 81.2891V81.166ZM219.346 81.3506C219.346 82.4287 219.568 83.2725 220.014 83.8818C220.459 84.4912 221.074 84.7959 221.859 84.7959C222.891 84.7959 223.644 84.333 224.118 83.4072V79.0391C223.632 78.1426 222.885 77.6943 221.877 77.6943C221.08 77.6943 220.459 78.002 220.014 78.6172C219.568 79.2324 219.346 80.1436 219.346 81.3506ZM232.222 86.1758C230.933 86.1758 229.884 85.7539 229.075 84.9102C228.267 84.0605 227.862 82.9268 227.862 81.5088V81.21C227.862 80.2666 228.041 79.4258 228.398 78.6875C228.762 77.9434 229.266 77.3633 229.91 76.9473C230.561 76.5254 231.264 76.3145 232.02 76.3145C233.256 76.3145 234.217 76.7217 234.902 77.5361C235.588 78.3506 235.931 79.5166 235.931 81.0342V81.7109H229.488C229.512 82.6484 229.784 83.4072 230.306 83.9873C230.833 84.5615 231.501 84.8486 232.31 84.8486C232.884 84.8486 233.37 84.7314 233.769 84.4971C234.167 84.2627 234.516 83.9521 234.814 83.5654L235.808 84.3389C235.011 85.5635 233.815 86.1758 232.222 86.1758ZM232.02 77.6504C231.363 77.6504 230.812 77.8906 230.367 78.3711C229.922 78.8457 229.646 79.5137 229.541 80.375H234.305V80.252C234.258 79.4258 234.035 78.7871 233.637 78.3359C233.238 77.8789 232.699 77.6504 232.02 77.6504ZM136.828 128.195H128.812V142H124.289V107.875H135.586C139.43 107.875 142.383 108.75 144.445 110.5C146.523 112.25 147.562 114.797 147.562 118.141C147.562 120.266 146.984 122.117 145.828 123.695C144.688 125.273 143.094 126.453 141.047 127.234L149.062 141.719V142H144.234L136.828 128.195ZM128.812 124.516H135.727C137.961 124.516 139.734 123.938 141.047 122.781C142.375 121.625 143.039 120.078 143.039 118.141C143.039 116.031 142.406 114.414 141.141 113.289C139.891 112.164 138.078 111.594 135.703 111.578H128.812V124.516ZM169.992 133.211C169.992 131.773 169.484 130.562 168.469 129.578C167.469 128.594 165.773 127.703 163.383 126.906C160.055 125.891 157.625 124.57 156.094 122.945C154.578 121.305 153.82 119.227 153.82 116.711C153.82 114.148 154.562 112.047 156.047 110.406C157.547 108.766 159.602 107.789 162.211 107.477V102.344H165.703V107.5C168.328 107.859 170.367 108.961 171.82 110.805C173.289 112.648 174.023 115.172 174.023 118.375H169.711C169.711 116.172 169.188 114.422 168.141 113.125C167.094 111.828 165.68 111.18 163.898 111.18C162.039 111.18 160.617 111.664 159.633 112.633C158.648 113.586 158.156 114.922 158.156 116.641C158.156 118.234 158.672 119.508 159.703 120.461C160.75 121.398 162.461 122.258 164.836 123.039C167.227 123.805 169.086 124.656 170.414 125.594C171.758 126.516 172.742 127.594 173.367 128.828C174.008 130.062 174.328 131.508 174.328 133.164C174.328 135.805 173.531 137.93 171.938 139.539C170.359 141.148 168.141 142.102 165.281 142.398V146.875H161.812V142.398C158.906 142.133 156.625 141.102 154.969 139.305C153.328 137.492 152.508 135.039 152.508 131.945H156.844C156.844 134.117 157.414 135.789 158.555 136.961C159.695 138.133 161.312 138.719 163.406 138.719C165.453 138.719 167.062 138.227 168.234 137.242C169.406 136.258 169.992 134.914 169.992 133.211ZM205.875 142H201.516V113.102L192.773 116.312V112.375L205.195 107.711H205.875V142ZM235.195 127C234.289 128.078 233.203 128.945 231.938 129.602C230.688 130.258 229.312 130.586 227.812 130.586C225.844 130.586 224.125 130.102 222.656 129.133C221.203 128.164 220.078 126.805 219.281 125.055C218.484 123.289 218.086 121.344 218.086 119.219C218.086 116.938 218.516 114.883 219.375 113.055C220.25 111.227 221.484 109.828 223.078 108.859C224.672 107.891 226.531 107.406 228.656 107.406C232.031 107.406 234.688 108.672 236.625 111.203C238.578 113.719 239.555 117.156 239.555 121.516V122.781C239.555 129.422 238.242 134.273 235.617 137.336C232.992 140.383 229.031 141.945 223.734 142.023H222.891V138.367H223.805C227.383 138.305 230.133 137.375 232.055 135.578C233.977 133.766 235.023 130.906 235.195 127ZM228.516 127C229.969 127 231.305 126.555 232.523 125.664C233.758 124.773 234.656 123.672 235.219 122.359V120.625C235.219 117.781 234.602 115.469 233.367 113.688C232.133 111.906 230.57 111.016 228.68 111.016C226.773 111.016 225.242 111.75 224.086 113.219C222.93 114.672 222.352 116.594 222.352 118.984C222.352 121.312 222.906 123.234 224.016 124.75C225.141 126.25 226.641 127 228.516 127ZM262.148 127C261.242 128.078 260.156 128.945 258.891 129.602C257.641 130.258 256.266 130.586 254.766 130.586C252.797 130.586 251.078 130.102 249.609 129.133C248.156 128.164 247.031 126.805 246.234 125.055C245.438 123.289 245.039 121.344 245.039 119.219C245.039 116.938 245.469 114.883 246.328 113.055C247.203 111.227 248.438 109.828 250.031 108.859C251.625 107.891 253.484 107.406 255.609 107.406C258.984 107.406 261.641 108.672 263.578 111.203C265.531 113.719 266.508 117.156 266.508 121.516V122.781C266.508 129.422 265.195 134.273 262.57 137.336C259.945 140.383 255.984 141.945 250.688 142.023H249.844V138.367H250.758C254.336 138.305 257.086 137.375 259.008 135.578C260.93 133.766 261.977 130.906 262.148 127ZM255.469 127C256.922 127 258.258 126.555 259.477 125.664C260.711 124.773 261.609 123.672 262.172 122.359V120.625C262.172 117.781 261.555 115.469 260.32 113.688C259.086 111.906 257.523 111.016 255.633 111.016C253.727 111.016 252.195 111.75 251.039 113.219C249.883 114.672 249.305 116.594 249.305 118.984C249.305 121.312 249.859 123.234 250.969 124.75C252.094 126.25 253.594 127 255.469 127ZM132.305 185.602C132.305 189.461 131.422 192.57 129.656 194.93C127.891 197.289 125.5 198.469 122.484 198.469C119.406 198.469 116.984 197.492 115.219 195.539V207.75H110.883V172.641H114.844L115.055 175.453C116.82 173.266 119.273 172.172 122.414 172.172C125.461 172.172 127.867 173.32 129.633 175.617C131.414 177.914 132.305 181.109 132.305 185.203V185.602ZM127.969 185.109C127.969 182.25 127.359 179.992 126.141 178.336C124.922 176.68 123.25 175.852 121.125 175.852C118.5 175.852 116.531 177.016 115.219 179.344V191.461C116.516 193.773 118.5 194.93 121.172 194.93C123.25 194.93 124.898 194.109 126.117 192.469C127.352 190.812 127.969 188.359 127.969 185.109ZM136.688 185.086C136.688 182.602 137.172 180.367 138.141 178.383C139.125 176.398 140.484 174.867 142.219 173.789C143.969 172.711 145.961 172.172 148.195 172.172C151.648 172.172 154.438 173.367 156.562 175.758C158.703 178.148 159.773 181.328 159.773 185.297V185.602C159.773 188.07 159.297 190.289 158.344 192.258C157.406 194.211 156.055 195.734 154.289 196.828C152.539 197.922 150.523 198.469 148.242 198.469C144.805 198.469 142.016 197.273 139.875 194.883C137.75 192.492 136.688 189.328 136.688 185.391V185.086ZM141.047 185.602C141.047 188.414 141.695 190.672 142.992 192.375C144.305 194.078 146.055 194.93 148.242 194.93C150.445 194.93 152.195 194.07 153.492 192.352C154.789 190.617 155.438 188.195 155.438 185.086C155.438 182.305 154.773 180.055 153.445 178.336C152.133 176.602 150.383 175.734 148.195 175.734C146.055 175.734 144.328 176.586 143.016 178.289C141.703 179.992 141.047 182.43 141.047 185.602ZM177.469 176.531C176.812 176.422 176.102 176.367 175.336 176.367C172.492 176.367 170.562 177.578 169.547 180V198H165.211V172.641H169.43L169.5 175.57C170.922 173.305 172.938 172.172 175.547 172.172C176.391 172.172 177.031 172.281 177.469 172.5V176.531ZM197.461 172.641L197.578 175.453C199.438 173.266 201.945 172.172 205.102 172.172C208.648 172.172 211.062 173.531 212.344 176.25C213.188 175.031 214.281 174.047 215.625 173.297C216.984 172.547 218.586 172.172 220.43 172.172C225.992 172.172 228.82 175.117 228.914 181.008V198H224.578V181.266C224.578 179.453 224.164 178.102 223.336 177.211C222.508 176.305 221.117 175.852 219.164 175.852C217.555 175.852 216.219 176.336 215.156 177.305C214.094 178.258 213.477 179.547 213.305 181.172V198H208.945V181.383C208.945 177.695 207.141 175.852 203.531 175.852C200.688 175.852 198.742 177.062 197.695 179.484V198H193.359V172.641H197.461ZM246 198.469C242.562 198.469 239.766 197.344 237.609 195.094C235.453 192.828 234.375 189.805 234.375 186.023V185.227C234.375 182.711 234.852 180.469 235.805 178.5C236.773 176.516 238.117 174.969 239.836 173.859C241.57 172.734 243.445 172.172 245.461 172.172C248.758 172.172 251.32 173.258 253.148 175.43C254.977 177.602 255.891 180.711 255.891 184.758V186.562H238.711C238.773 189.062 239.5 191.086 240.891 192.633C242.297 194.164 244.078 194.93 246.234 194.93C247.766 194.93 249.062 194.617 250.125 193.992C251.188 193.367 252.117 192.539 252.914 191.508L255.562 193.57C253.438 196.836 250.25 198.469 246 198.469ZM245.461 175.734C243.711 175.734 242.242 176.375 241.055 177.656C239.867 178.922 239.133 180.703 238.852 183H251.555V182.672C251.43 180.469 250.836 178.766 249.773 177.562C248.711 176.344 247.273 175.734 245.461 175.734ZM252.539 168.422V168.656H248.953L245.438 164.672L241.945 168.656H238.359V168.375L244.125 162H246.75L252.539 168.422ZM275.695 191.273C275.695 190.102 275.25 189.195 274.359 188.555C273.484 187.898 271.945 187.336 269.742 186.867C267.555 186.398 265.812 185.836 264.516 185.18C263.234 184.523 262.281 183.742 261.656 182.836C261.047 181.93 260.742 180.852 260.742 179.602C260.742 177.523 261.617 175.766 263.367 174.328C265.133 172.891 267.383 172.172 270.117 172.172C272.992 172.172 275.32 172.914 277.102 174.398C278.898 175.883 279.797 177.781 279.797 180.094H275.438C275.438 178.906 274.93 177.883 273.914 177.023C272.914 176.164 271.648 175.734 270.117 175.734C268.539 175.734 267.305 176.078 266.414 176.766C265.523 177.453 265.078 178.352 265.078 179.461C265.078 180.508 265.492 181.297 266.32 181.828C267.148 182.359 268.641 182.867 270.797 183.352C272.969 183.836 274.727 184.414 276.07 185.086C277.414 185.758 278.406 186.57 279.047 187.523C279.703 188.461 280.031 189.609 280.031 190.969C280.031 193.234 279.125 195.055 277.312 196.43C275.5 197.789 273.148 198.469 270.258 198.469C268.227 198.469 266.43 198.109 264.867 197.391C263.305 196.672 262.078 195.672 261.188 194.391C260.312 193.094 259.875 191.695 259.875 190.195H264.211C264.289 191.648 264.867 192.805 265.945 193.664C267.039 194.508 268.477 194.93 270.258 194.93C271.898 194.93 273.211 194.602 274.195 193.945C275.195 193.273 275.695 192.383 275.695 191.273Z" fill="#00BE9C"/>
<path d="M136.402 307.547H129.254L127.648 312H125.328L131.844 294.938H133.812L140.34 312H138.031L136.402 307.547ZM129.934 305.695H135.734L132.828 297.715L129.934 305.695ZM145.027 296.25V299.32H147.395V300.996H145.027V308.859C145.027 309.367 145.133 309.75 145.344 310.008C145.555 310.258 145.914 310.383 146.422 310.383C146.672 310.383 147.016 310.336 147.453 310.242V312C146.883 312.156 146.328 312.234 145.789 312.234C144.82 312.234 144.09 311.941 143.598 311.355C143.105 310.77 142.859 309.938 142.859 308.859V300.996H140.551V299.32H142.859V296.25H145.027ZM155.199 312.234C153.48 312.234 152.082 311.672 151.004 310.547C149.926 309.414 149.387 307.902 149.387 306.012V305.613C149.387 304.355 149.625 303.234 150.102 302.25C150.586 301.258 151.258 300.484 152.117 299.93C152.984 299.367 153.922 299.086 154.93 299.086C156.578 299.086 157.859 299.629 158.773 300.715C159.688 301.801 160.145 303.355 160.145 305.379V306.281H151.555C151.586 307.531 151.949 308.543 152.645 309.316C153.348 310.082 154.238 310.465 155.316 310.465C156.082 310.465 156.73 310.309 157.262 309.996C157.793 309.684 158.258 309.27 158.656 308.754L159.98 309.785C158.918 311.418 157.324 312.234 155.199 312.234ZM154.93 300.867C154.055 300.867 153.32 301.188 152.727 301.828C152.133 302.461 151.766 303.352 151.625 304.5H157.977V304.336C157.914 303.234 157.617 302.383 157.086 301.781C156.555 301.172 155.836 300.867 154.93 300.867ZM155.984 294H158.609L155.469 297.445H153.723L155.984 294ZM177.547 306.27H179.914V308.039H177.547V312H175.367V308.039H167.598V306.762L175.238 294.938H177.547V306.27ZM170.059 306.27H175.367V297.902L175.109 298.371L170.059 306.27ZM198.758 305.801C198.758 307.73 198.316 309.285 197.434 310.465C196.551 311.645 195.355 312.234 193.848 312.234C192.309 312.234 191.098 311.746 190.215 310.77V316.875H188.047V299.32H190.027L190.133 300.727C191.016 299.633 192.242 299.086 193.812 299.086C195.336 299.086 196.539 299.66 197.422 300.809C198.312 301.957 198.758 303.555 198.758 305.602V305.801ZM196.59 305.555C196.59 304.125 196.285 302.996 195.676 302.168C195.066 301.34 194.23 300.926 193.168 300.926C191.855 300.926 190.871 301.508 190.215 302.672V308.73C190.863 309.887 191.855 310.465 193.191 310.465C194.23 310.465 195.055 310.055 195.664 309.234C196.281 308.406 196.59 307.18 196.59 305.555ZM209.352 312C209.227 311.75 209.125 311.305 209.047 310.664C208.039 311.711 206.836 312.234 205.438 312.234C204.188 312.234 203.16 311.883 202.355 311.18C201.559 310.469 201.16 309.57 201.16 308.484C201.16 307.164 201.66 306.141 202.66 305.414C203.668 304.68 205.082 304.312 206.902 304.312H209.012V303.316C209.012 302.559 208.785 301.957 208.332 301.512C207.879 301.059 207.211 300.832 206.328 300.832C205.555 300.832 204.906 301.027 204.383 301.418C203.859 301.809 203.598 302.281 203.598 302.836H201.418C201.418 302.203 201.641 301.594 202.086 301.008C202.539 300.414 203.148 299.945 203.914 299.602C204.688 299.258 205.535 299.086 206.457 299.086C207.918 299.086 209.062 299.453 209.891 300.188C210.719 300.914 211.148 301.918 211.18 303.199V309.035C211.18 310.199 211.328 311.125 211.625 311.812V312H209.352ZM205.754 310.348C206.434 310.348 207.078 310.172 207.688 309.82C208.297 309.469 208.738 309.012 209.012 308.449V305.848H207.312C204.656 305.848 203.328 306.625 203.328 308.18C203.328 308.859 203.555 309.391 204.008 309.773C204.461 310.156 205.043 310.348 205.754 310.348ZM207.758 294H210.383L207.242 297.445H205.496L207.758 294ZM214.062 305.555C214.062 303.578 214.52 302.008 215.434 300.844C216.348 299.672 217.559 299.086 219.066 299.086C220.613 299.086 221.82 299.633 222.688 300.727L222.793 299.32H224.773V311.695C224.773 313.336 224.285 314.629 223.309 315.574C222.34 316.52 221.035 316.992 219.395 316.992C218.48 316.992 217.586 316.797 216.711 316.406C215.836 316.016 215.168 315.48 214.707 314.801L215.832 313.5C216.762 314.648 217.898 315.223 219.242 315.223C220.297 315.223 221.117 314.926 221.703 314.332C222.297 313.738 222.594 312.902 222.594 311.824V310.734C221.727 311.734 220.543 312.234 219.043 312.234C217.559 312.234 216.355 311.637 215.434 310.441C214.52 309.246 214.062 307.617 214.062 305.555ZM216.242 305.801C216.242 307.23 216.535 308.355 217.121 309.176C217.707 309.988 218.527 310.395 219.582 310.395C220.949 310.395 221.953 309.773 222.594 308.531V302.742C221.93 301.531 220.934 300.926 219.605 300.926C218.551 300.926 217.727 301.336 217.133 302.156C216.539 302.977 216.242 304.191 216.242 305.801ZM230.41 312H228.242V299.32H230.41V312ZM228.066 295.957C228.066 295.605 228.172 295.309 228.383 295.066C228.602 294.824 228.922 294.703 229.344 294.703C229.766 294.703 230.086 294.824 230.305 295.066C230.523 295.309 230.633 295.605 230.633 295.957C230.633 296.309 230.523 296.602 230.305 296.836C230.086 297.07 229.766 297.188 229.344 297.188C228.922 297.188 228.602 297.07 228.383 296.836C228.172 296.602 228.066 296.309 228.066 295.957ZM235.941 299.32L236.012 300.914C236.98 299.695 238.246 299.086 239.809 299.086C242.488 299.086 243.84 300.598 243.863 303.621V312H241.695V303.609C241.688 302.695 241.477 302.02 241.062 301.582C240.656 301.145 240.02 300.926 239.152 300.926C238.449 300.926 237.832 301.113 237.301 301.488C236.77 301.863 236.355 302.355 236.059 302.965V312H233.891V299.32H235.941ZM254.961 312C254.836 311.75 254.734 311.305 254.656 310.664C253.648 311.711 252.445 312.234 251.047 312.234C249.797 312.234 248.77 311.883 247.965 311.18C247.168 310.469 246.77 309.57 246.77 308.484C246.77 307.164 247.27 306.141 248.27 305.414C249.277 304.68 250.691 304.312 252.512 304.312H254.621V303.316C254.621 302.559 254.395 301.957 253.941 301.512C253.488 301.059 252.82 300.832 251.938 300.832C251.164 300.832 250.516 301.027 249.992 301.418C249.469 301.809 249.207 302.281 249.207 302.836H247.027C247.027 302.203 247.25 301.594 247.695 301.008C248.148 300.414 248.758 299.945 249.523 299.602C250.297 299.258 251.145 299.086 252.066 299.086C253.527 299.086 254.672 299.453 255.5 300.188C256.328 300.914 256.758 301.918 256.789 303.199V309.035C256.789 310.199 256.938 311.125 257.234 311.812V312H254.961ZM251.363 310.348C252.043 310.348 252.688 310.172 253.297 309.82C253.906 309.469 254.348 309.012 254.621 308.449V305.848H252.922C250.266 305.848 248.938 306.625 248.938 308.18C248.938 308.859 249.164 309.391 249.617 309.773C250.07 310.156 250.652 310.348 251.363 310.348ZM267.57 308.637C267.57 308.051 267.348 307.598 266.902 307.277C266.465 306.949 265.695 306.668 264.594 306.434C263.5 306.199 262.629 305.918 261.98 305.59C261.34 305.262 260.863 304.871 260.551 304.418C260.246 303.965 260.094 303.426 260.094 302.801C260.094 301.762 260.531 300.883 261.406 300.164C262.289 299.445 263.414 299.086 264.781 299.086C266.219 299.086 267.383 299.457 268.273 300.199C269.172 300.941 269.621 301.891 269.621 303.047H267.441C267.441 302.453 267.188 301.941 266.68 301.512C266.18 301.082 265.547 300.867 264.781 300.867C263.992 300.867 263.375 301.039 262.93 301.383C262.484 301.727 262.262 302.176 262.262 302.73C262.262 303.254 262.469 303.648 262.883 303.914C263.297 304.18 264.043 304.434 265.121 304.676C266.207 304.918 267.086 305.207 267.758 305.543C268.43 305.879 268.926 306.285 269.246 306.762C269.574 307.23 269.738 307.805 269.738 308.484C269.738 309.617 269.285 310.527 268.379 311.215C267.473 311.895 266.297 312.234 264.852 312.234C263.836 312.234 262.938 312.055 262.156 311.695C261.375 311.336 260.762 310.836 260.316 310.195C259.879 309.547 259.66 308.848 259.66 308.098H261.828C261.867 308.824 262.156 309.402 262.695 309.832C263.242 310.254 263.961 310.465 264.852 310.465C265.672 310.465 266.328 310.301 266.82 309.973C267.32 309.637 267.57 309.191 267.57 308.637Z" fill="white"/>
<path d="M113.98 391V373.938H118.797C120.281 373.938 121.594 374.266 122.734 374.922C123.875 375.578 124.754 376.512 125.371 377.723C125.996 378.934 126.312 380.324 126.32 381.895V382.984C126.32 384.594 126.008 386.004 125.383 387.215C124.766 388.426 123.879 389.355 122.723 390.004C121.574 390.652 120.234 390.984 118.703 391H113.98ZM116.23 375.789V389.16H118.598C120.332 389.16 121.68 388.621 122.641 387.543C123.609 386.465 124.094 384.93 124.094 382.938V381.941C124.094 380.004 123.637 378.5 122.723 377.43C121.816 376.352 120.527 375.805 118.855 375.789H116.23ZM128.816 384.543C128.816 383.301 129.059 382.184 129.543 381.191C130.035 380.199 130.715 379.434 131.582 378.895C132.457 378.355 133.453 378.086 134.57 378.086C136.297 378.086 137.691 378.684 138.754 379.879C139.824 381.074 140.359 382.664 140.359 384.648V384.801C140.359 386.035 140.121 387.145 139.645 388.129C139.176 389.105 138.5 389.867 137.617 390.414C136.742 390.961 135.734 391.234 134.594 391.234C132.875 391.234 131.48 390.637 130.41 389.441C129.348 388.246 128.816 386.664 128.816 384.695V384.543ZM130.996 384.801C130.996 386.207 131.32 387.336 131.969 388.188C132.625 389.039 133.5 389.465 134.594 389.465C135.695 389.465 136.57 389.035 137.219 388.176C137.867 387.309 138.191 386.098 138.191 384.543C138.191 383.152 137.859 382.027 137.195 381.168C136.539 380.301 135.664 379.867 134.57 379.867C133.5 379.867 132.637 380.293 131.98 381.145C131.324 381.996 130.996 383.215 130.996 384.801ZM145.117 378.32L145.176 379.727C146.105 378.633 147.359 378.086 148.938 378.086C150.711 378.086 151.918 378.766 152.559 380.125C152.98 379.516 153.527 379.023 154.199 378.648C154.879 378.273 155.68 378.086 156.602 378.086C159.383 378.086 160.797 379.559 160.844 382.504V391H158.676V382.633C158.676 381.727 158.469 381.051 158.055 380.605C157.641 380.152 156.945 379.926 155.969 379.926C155.164 379.926 154.496 380.168 153.965 380.652C153.434 381.129 153.125 381.773 153.039 382.586V391H150.859V382.691C150.859 380.848 149.957 379.926 148.152 379.926C146.73 379.926 145.758 380.531 145.234 381.742V391H143.066V378.32H145.117ZM166.48 391H164.301V378.32H166.48V391ZM166.504 373.012H169.129L165.988 376.457H164.242L166.504 373.012ZM172.105 378.32L172.176 379.914C173.145 378.695 174.41 378.086 175.973 378.086C178.652 378.086 180.004 379.598 180.027 382.621V391H177.859V382.609C177.852 381.695 177.641 381.02 177.227 380.582C176.82 380.145 176.184 379.926 175.316 379.926C174.613 379.926 173.996 380.113 173.465 380.488C172.934 380.863 172.52 381.355 172.223 381.965V391H170.055V378.32H172.105ZM185.652 391H183.484V378.32H185.652V391ZM183.309 374.957C183.309 374.605 183.414 374.309 183.625 374.066C183.844 373.824 184.164 373.703 184.586 373.703C185.008 373.703 185.328 373.824 185.547 374.066C185.766 374.309 185.875 374.605 185.875 374.957C185.875 375.309 185.766 375.602 185.547 375.836C185.328 376.07 185.008 376.188 184.586 376.188C184.164 376.188 183.844 376.07 183.625 375.836C183.414 375.602 183.309 375.309 183.309 374.957ZM188.559 384.543C188.559 383.301 188.801 382.184 189.285 381.191C189.777 380.199 190.457 379.434 191.324 378.895C192.199 378.355 193.195 378.086 194.312 378.086C196.039 378.086 197.434 378.684 198.496 379.879C199.566 381.074 200.102 382.664 200.102 384.648V384.801C200.102 386.035 199.863 387.145 199.387 388.129C198.918 389.105 198.242 389.867 197.359 390.414C196.484 390.961 195.477 391.234 194.336 391.234C192.617 391.234 191.223 390.637 190.152 389.441C189.09 388.246 188.559 386.664 188.559 384.695V384.543ZM190.738 384.801C190.738 386.207 191.062 387.336 191.711 388.188C192.367 389.039 193.242 389.465 194.336 389.465C195.438 389.465 196.312 389.035 196.961 388.176C197.609 387.309 197.934 386.098 197.934 384.543C197.934 383.152 197.602 382.027 196.938 381.168C196.281 380.301 195.406 379.867 194.312 379.867C193.242 379.867 192.379 380.293 191.723 381.145C191.066 381.996 190.738 383.215 190.738 384.801ZM219.484 384.801C219.484 386.73 219.043 388.285 218.16 389.465C217.277 390.645 216.082 391.234 214.574 391.234C213.035 391.234 211.824 390.746 210.941 389.77V395.875H208.773V378.32H210.754L210.859 379.727C211.742 378.633 212.969 378.086 214.539 378.086C216.062 378.086 217.266 378.66 218.148 379.809C219.039 380.957 219.484 382.555 219.484 384.602V384.801ZM217.316 384.555C217.316 383.125 217.012 381.996 216.402 381.168C215.793 380.34 214.957 379.926 213.895 379.926C212.582 379.926 211.598 380.508 210.941 381.672V387.73C211.59 388.887 212.582 389.465 213.918 389.465C214.957 389.465 215.781 389.055 216.391 388.234C217.008 387.406 217.316 386.18 217.316 384.555ZM228.379 380.266C228.051 380.211 227.695 380.184 227.312 380.184C225.891 380.184 224.926 380.789 224.418 382V391H222.25V378.32H224.359L224.395 379.785C225.105 378.652 226.113 378.086 227.418 378.086C227.84 378.086 228.16 378.141 228.379 378.25V380.266ZM229.574 384.543C229.574 383.301 229.816 382.184 230.301 381.191C230.793 380.199 231.473 379.434 232.34 378.895C233.215 378.355 234.211 378.086 235.328 378.086C237.055 378.086 238.449 378.684 239.512 379.879C240.582 381.074 241.117 382.664 241.117 384.648V384.801C241.117 386.035 240.879 387.145 240.402 388.129C239.934 389.105 239.258 389.867 238.375 390.414C237.5 390.961 236.492 391.234 235.352 391.234C233.633 391.234 232.238 390.637 231.168 389.441C230.105 388.246 229.574 386.664 229.574 384.695V384.543ZM231.754 384.801C231.754 386.207 232.078 387.336 232.727 388.188C233.383 389.039 234.258 389.465 235.352 389.465C236.453 389.465 237.328 389.035 237.977 388.176C238.625 387.309 238.949 386.098 238.949 384.543C238.949 383.152 238.617 382.027 237.953 381.168C237.297 380.301 236.422 379.867 235.328 379.867C234.258 379.867 233.395 380.293 232.738 381.145C232.082 381.996 231.754 383.215 231.754 384.801ZM236.312 373H238.938L235.797 376.445H234.051L236.312 373ZM254.547 384.801C254.547 386.73 254.105 388.285 253.223 389.465C252.34 390.645 251.145 391.234 249.637 391.234C248.098 391.234 246.887 390.746 246.004 389.77V395.875H243.836V378.32H245.816L245.922 379.727C246.805 378.633 248.031 378.086 249.602 378.086C251.125 378.086 252.328 378.66 253.211 379.809C254.102 380.957 254.547 382.555 254.547 384.602V384.801ZM252.379 384.555C252.379 383.125 252.074 381.996 251.465 381.168C250.855 380.34 250.02 379.926 248.957 379.926C247.645 379.926 246.66 380.508 246.004 381.672V387.73C246.652 388.887 247.645 389.465 248.98 389.465C250.02 389.465 250.844 389.055 251.453 388.234C252.07 387.406 252.379 386.18 252.379 384.555ZM263.441 380.266C263.113 380.211 262.758 380.184 262.375 380.184C260.953 380.184 259.988 380.789 259.48 382V391H257.312V378.32H259.422L259.457 379.785C260.168 378.652 261.176 378.086 262.48 378.086C262.902 378.086 263.223 378.141 263.441 378.25V380.266ZM267.801 391H265.633V378.32H267.801V391ZM265.457 374.957C265.457 374.605 265.562 374.309 265.773 374.066C265.992 373.824 266.312 373.703 266.734 373.703C267.156 373.703 267.477 373.824 267.695 374.066C267.914 374.309 268.023 374.605 268.023 374.957C268.023 375.309 267.914 375.602 267.695 375.836C267.477 376.07 267.156 376.188 266.734 376.188C266.312 376.188 265.992 376.07 265.773 375.836C265.562 375.602 265.457 375.309 265.457 374.957ZM270.707 384.543C270.707 383.301 270.949 382.184 271.434 381.191C271.926 380.199 272.605 379.434 273.473 378.895C274.348 378.355 275.344 378.086 276.461 378.086C278.188 378.086 279.582 378.684 280.645 379.879C281.715 381.074 282.25 382.664 282.25 384.648V384.801C282.25 386.035 282.012 387.145 281.535 388.129C281.066 389.105 280.391 389.867 279.508 390.414C278.633 390.961 277.625 391.234 276.484 391.234C274.766 391.234 273.371 390.637 272.301 389.441C271.238 388.246 270.707 386.664 270.707 384.695V384.543ZM272.887 384.801C272.887 386.207 273.211 387.336 273.859 388.188C274.516 389.039 275.391 389.465 276.484 389.465C277.586 389.465 278.461 389.035 279.109 388.176C279.758 387.309 280.082 386.098 280.082 384.543C280.082 383.152 279.75 382.027 279.086 381.168C278.43 380.301 277.555 379.867 276.461 379.867C275.391 379.867 274.527 380.293 273.871 381.145C273.215 381.996 272.887 383.215 272.887 384.801Z" fill="white"/>
<path d="M88.9805 470V452.938H93.7969C95.2812 452.938 96.5938 453.266 97.7344 453.922C98.875 454.578 99.7539 455.512 100.371 456.723C100.996 457.934 101.312 459.324 101.32 460.895V461.984C101.32 463.594 101.008 465.004 100.383 466.215C99.7656 467.426 98.8789 468.355 97.7227 469.004C96.5742 469.652 95.2344 469.984 93.7031 470H88.9805ZM91.2305 454.789V468.16H93.5977C95.332 468.16 96.6797 467.621 97.6406 466.543C98.6094 465.465 99.0938 463.93 99.0938 461.938V460.941C99.0938 459.004 98.6367 457.5 97.7227 456.43C96.8164 455.352 95.5273 454.805 93.8555 454.789H91.2305ZM109.652 470.234C107.934 470.234 106.535 469.672 105.457 468.547C104.379 467.414 103.84 465.902 103.84 464.012V463.613C103.84 462.355 104.078 461.234 104.555 460.25C105.039 459.258 105.711 458.484 106.57 457.93C107.438 457.367 108.375 457.086 109.383 457.086C111.031 457.086 112.312 457.629 113.227 458.715C114.141 459.801 114.598 461.355 114.598 463.379V464.281H106.008C106.039 465.531 106.402 466.543 107.098 467.316C107.801 468.082 108.691 468.465 109.77 468.465C110.535 468.465 111.184 468.309 111.715 467.996C112.246 467.684 112.711 467.27 113.109 466.754L114.434 467.785C113.371 469.418 111.777 470.234 109.652 470.234ZM109.383 458.867C108.508 458.867 107.773 459.188 107.18 459.828C106.586 460.461 106.219 461.352 106.078 462.5H112.43V462.336C112.367 461.234 112.07 460.383 111.539 459.781C111.008 459.172 110.289 458.867 109.383 458.867ZM124.5 466.637C124.5 466.051 124.277 465.598 123.832 465.277C123.395 464.949 122.625 464.668 121.523 464.434C120.43 464.199 119.559 463.918 118.91 463.59C118.27 463.262 117.793 462.871 117.48 462.418C117.176 461.965 117.023 461.426 117.023 460.801C117.023 459.762 117.461 458.883 118.336 458.164C119.219 457.445 120.344 457.086 121.711 457.086C123.148 457.086 124.312 457.457 125.203 458.199C126.102 458.941 126.551 459.891 126.551 461.047H124.371C124.371 460.453 124.117 459.941 123.609 459.512C123.109 459.082 122.477 458.867 121.711 458.867C120.922 458.867 120.305 459.039 119.859 459.383C119.414 459.727 119.191 460.176 119.191 460.73C119.191 461.254 119.398 461.648 119.812 461.914C120.227 462.18 120.973 462.434 122.051 462.676C123.137 462.918 124.016 463.207 124.688 463.543C125.359 463.879 125.855 464.285 126.176 464.762C126.504 465.23 126.668 465.805 126.668 466.484C126.668 467.617 126.215 468.527 125.309 469.215C124.402 469.895 123.227 470.234 121.781 470.234C120.766 470.234 119.867 470.055 119.086 469.695C118.305 469.336 117.691 468.836 117.246 468.195C116.809 467.547 116.59 466.848 116.59 466.098H118.758C118.797 466.824 119.086 467.402 119.625 467.832C120.172 468.254 120.891 468.465 121.781 468.465C122.602 468.465 123.258 468.301 123.75 467.973C124.25 467.637 124.5 467.191 124.5 466.637ZM131.848 470H129.68V457.32H131.848V470ZM129.504 453.957C129.504 453.605 129.609 453.309 129.82 453.066C130.039 452.824 130.359 452.703 130.781 452.703C131.203 452.703 131.523 452.824 131.742 453.066C131.961 453.309 132.07 453.605 132.07 453.957C132.07 454.309 131.961 454.602 131.742 454.836C131.523 455.07 131.203 455.188 130.781 455.188C130.359 455.188 130.039 455.07 129.82 454.836C129.609 454.602 129.504 454.309 129.504 453.957ZM134.812 463.555C134.812 461.578 135.27 460.008 136.184 458.844C137.098 457.672 138.309 457.086 139.816 457.086C141.363 457.086 142.57 457.633 143.438 458.727L143.543 457.32H145.523V469.695C145.523 471.336 145.035 472.629 144.059 473.574C143.09 474.52 141.785 474.992 140.145 474.992C139.23 474.992 138.336 474.797 137.461 474.406C136.586 474.016 135.918 473.48 135.457 472.801L136.582 471.5C137.512 472.648 138.648 473.223 139.992 473.223C141.047 473.223 141.867 472.926 142.453 472.332C143.047 471.738 143.344 470.902 143.344 469.824V468.734C142.477 469.734 141.293 470.234 139.793 470.234C138.309 470.234 137.105 469.637 136.184 468.441C135.27 467.246 134.812 465.617 134.812 463.555ZM136.992 463.801C136.992 465.23 137.285 466.355 137.871 467.176C138.457 467.988 139.277 468.395 140.332 468.395C141.699 468.395 142.703 467.773 143.344 466.531V460.742C142.68 459.531 141.684 458.926 140.355 458.926C139.301 458.926 138.477 459.336 137.883 460.156C137.289 460.977 136.992 462.191 136.992 463.801ZM150.855 457.32L150.926 458.914C151.895 457.695 153.16 457.086 154.723 457.086C157.402 457.086 158.754 458.598 158.777 461.621V470H156.609V461.609C156.602 460.695 156.391 460.02 155.977 459.582C155.57 459.145 154.934 458.926 154.066 458.926C153.363 458.926 152.746 459.113 152.215 459.488C151.684 459.863 151.27 460.355 150.973 460.965V470H148.805V457.32H150.855ZM180.891 464.586C180.68 466.391 180.012 467.785 178.887 468.77C177.77 469.746 176.281 470.234 174.422 470.234C172.406 470.234 170.789 469.512 169.57 468.066C168.359 466.621 167.754 464.688 167.754 462.266V460.625C167.754 459.039 168.035 457.645 168.598 456.441C169.168 455.238 169.973 454.316 171.012 453.676C172.051 453.027 173.254 452.703 174.621 452.703C176.434 452.703 177.887 453.211 178.98 454.227C180.074 455.234 180.711 456.633 180.891 458.422H178.629C178.434 457.062 178.008 456.078 177.352 455.469C176.703 454.859 175.793 454.555 174.621 454.555C173.184 454.555 172.055 455.086 171.234 456.148C170.422 457.211 170.016 458.723 170.016 460.684V462.336C170.016 464.188 170.402 465.66 171.176 466.754C171.949 467.848 173.031 468.395 174.422 468.395C175.672 468.395 176.629 468.113 177.293 467.551C177.965 466.98 178.41 465.992 178.629 464.586H180.891ZM191.461 468.746C190.617 469.738 189.379 470.234 187.746 470.234C186.395 470.234 185.363 469.844 184.652 469.062C183.949 468.273 183.594 467.109 183.586 465.57V457.32H185.754V465.512C185.754 467.434 186.535 468.395 188.098 468.395C189.754 468.395 190.855 467.777 191.402 466.543V457.32H193.57V470H191.508L191.461 468.746ZM204.258 466.637C204.258 466.051 204.035 465.598 203.59 465.277C203.152 464.949 202.383 464.668 201.281 464.434C200.188 464.199 199.316 463.918 198.668 463.59C198.027 463.262 197.551 462.871 197.238 462.418C196.934 461.965 196.781 461.426 196.781 460.801C196.781 459.762 197.219 458.883 198.094 458.164C198.977 457.445 200.102 457.086 201.469 457.086C202.906 457.086 204.07 457.457 204.961 458.199C205.859 458.941 206.309 459.891 206.309 461.047H204.129C204.129 460.453 203.875 459.941 203.367 459.512C202.867 459.082 202.234 458.867 201.469 458.867C200.68 458.867 200.062 459.039 199.617 459.383C199.172 459.727 198.949 460.176 198.949 460.73C198.949 461.254 199.156 461.648 199.57 461.914C199.984 462.18 200.73 462.434 201.809 462.676C202.895 462.918 203.773 463.207 204.445 463.543C205.117 463.879 205.613 464.285 205.934 464.762C206.262 465.23 206.426 465.805 206.426 466.484C206.426 467.617 205.973 468.527 205.066 469.215C204.16 469.895 202.984 470.234 201.539 470.234C200.523 470.234 199.625 470.055 198.844 469.695C198.062 469.336 197.449 468.836 197.004 468.195C196.566 467.547 196.348 466.848 196.348 466.098H198.516C198.555 466.824 198.844 467.402 199.383 467.832C199.93 468.254 200.648 468.465 201.539 468.465C202.359 468.465 203.016 468.301 203.508 467.973C204.008 467.637 204.258 467.191 204.258 466.637ZM212.191 454.25V457.32H214.559V458.996H212.191V466.859C212.191 467.367 212.297 467.75 212.508 468.008C212.719 468.258 213.078 468.383 213.586 468.383C213.836 468.383 214.18 468.336 214.617 468.242V470C214.047 470.156 213.492 470.234 212.953 470.234C211.984 470.234 211.254 469.941 210.762 469.355C210.27 468.77 210.023 467.938 210.023 466.859V458.996H207.715V457.32H210.023V454.25H212.191ZM216.293 463.543C216.293 462.301 216.535 461.184 217.02 460.191C217.512 459.199 218.191 458.434 219.059 457.895C219.934 457.355 220.93 457.086 222.047 457.086C223.773 457.086 225.168 457.684 226.23 458.879C227.301 460.074 227.836 461.664 227.836 463.648V463.801C227.836 465.035 227.598 466.145 227.121 467.129C226.652 468.105 225.977 468.867 225.094 469.414C224.219 469.961 223.211 470.234 222.07 470.234C220.352 470.234 218.957 469.637 217.887 468.441C216.824 467.246 216.293 465.664 216.293 463.695V463.543ZM218.473 463.801C218.473 465.207 218.797 466.336 219.445 467.188C220.102 468.039 220.977 468.465 222.07 468.465C223.172 468.465 224.047 468.035 224.695 467.176C225.344 466.309 225.668 465.098 225.668 463.543C225.668 462.152 225.336 461.027 224.672 460.168C224.016 459.301 223.141 458.867 222.047 458.867C220.977 458.867 220.113 459.293 219.457 460.145C218.801 460.996 218.473 462.215 218.473 463.801ZM232.594 457.32L232.652 458.727C233.582 457.633 234.836 457.086 236.414 457.086C238.188 457.086 239.395 457.766 240.035 459.125C240.457 458.516 241.004 458.023 241.676 457.648C242.355 457.273 243.156 457.086 244.078 457.086C246.859 457.086 248.273 458.559 248.32 461.504V470H246.152V461.633C246.152 460.727 245.945 460.051 245.531 459.605C245.117 459.152 244.422 458.926 243.445 458.926C242.641 458.926 241.973 459.168 241.441 459.652C240.91 460.129 240.602 460.773 240.516 461.586V470H238.336V461.691C238.336 459.848 237.434 458.926 235.629 458.926C234.207 458.926 233.234 459.531 232.711 460.742V470H230.543V457.32H232.594ZM253.957 470H251.789V457.32H253.957V470ZM251.613 453.957C251.613 453.605 251.719 453.309 251.93 453.066C252.148 452.824 252.469 452.703 252.891 452.703C253.312 452.703 253.633 452.824 253.852 453.066C254.07 453.309 254.18 453.605 254.18 453.957C254.18 454.309 254.07 454.602 253.852 454.836C253.633 455.07 253.312 455.188 252.891 455.188C252.469 455.188 252.148 455.07 251.93 454.836C251.719 454.602 251.613 454.309 251.613 453.957ZM259.477 468.23H266.895V470H256.828V468.406L263.824 459.113H256.934V457.32H266.543V458.855L259.477 468.23ZM277.172 470C277.047 469.75 276.945 469.305 276.867 468.664C275.859 469.711 274.656 470.234 273.258 470.234C272.008 470.234 270.98 469.883 270.176 469.18C269.379 468.469 268.98 467.57 268.98 466.484C268.98 465.164 269.48 464.141 270.48 463.414C271.488 462.68 272.902 462.312 274.723 462.312H276.832V461.316C276.832 460.559 276.605 459.957 276.152 459.512C275.699 459.059 275.031 458.832 274.148 458.832C273.375 458.832 272.727 459.027 272.203 459.418C271.68 459.809 271.418 460.281 271.418 460.836H269.238C269.238 460.203 269.461 459.594 269.906 459.008C270.359 458.414 270.969 457.945 271.734 457.602C272.508 457.258 273.355 457.086 274.277 457.086C275.738 457.086 276.883 457.453 277.711 458.188C278.539 458.914 278.969 459.918 279 461.199V467.035C279 468.199 279.148 469.125 279.445 469.812V470H277.172ZM273.574 468.348C274.254 468.348 274.898 468.172 275.508 467.82C276.117 467.469 276.559 467.012 276.832 466.449V463.848H275.133C272.477 463.848 271.148 464.625 271.148 466.18C271.148 466.859 271.375 467.391 271.828 467.773C272.281 468.156 272.863 468.348 273.574 468.348ZM275.578 452H278.203L275.062 455.445H273.316L275.578 452ZM281.871 463.555C281.871 461.609 282.332 460.047 283.254 458.867C284.176 457.68 285.383 457.086 286.875 457.086C288.359 457.086 289.535 457.594 290.402 458.609V452H292.57V470H290.578L290.473 468.641C289.605 469.703 288.398 470.234 286.852 470.234C285.383 470.234 284.184 469.633 283.254 468.43C282.332 467.227 281.871 465.656 281.871 463.719V463.555ZM284.039 463.801C284.039 465.238 284.336 466.363 284.93 467.176C285.523 467.988 286.344 468.395 287.391 468.395C288.766 468.395 289.77 467.777 290.402 466.543V460.719C289.754 459.523 288.758 458.926 287.414 458.926C286.352 458.926 285.523 459.336 284.93 460.156C284.336 460.977 284.039 462.191 284.039 463.801ZM295.371 463.543C295.371 462.301 295.613 461.184 296.098 460.191C296.59 459.199 297.27 458.434 298.137 457.895C299.012 457.355 300.008 457.086 301.125 457.086C302.852 457.086 304.246 457.684 305.309 458.879C306.379 460.074 306.914 461.664 306.914 463.648V463.801C306.914 465.035 306.676 466.145 306.199 467.129C305.73 468.105 305.055 468.867 304.172 469.414C303.297 469.961 302.289 470.234 301.148 470.234C299.43 470.234 298.035 469.637 296.965 468.441C295.902 467.246 295.371 465.664 295.371 463.695V463.543ZM297.551 463.801C297.551 465.207 297.875 466.336 298.523 467.188C299.18 468.039 300.055 468.465 301.148 468.465C302.25 468.465 303.125 468.035 303.773 467.176C304.422 466.309 304.746 465.098 304.746 463.543C304.746 462.152 304.414 461.027 303.75 460.168C303.094 459.301 302.219 458.867 301.125 458.867C300.055 458.867 299.191 459.293 298.535 460.145C297.879 460.996 297.551 462.215 297.551 463.801Z" fill="white"/>
<path d="M111.652 541.02C111.652 542.691 111.371 544.152 110.809 545.402C110.246 546.645 109.449 547.594 108.418 548.25C107.387 548.906 106.184 549.234 104.809 549.234C103.465 549.234 102.273 548.906 101.234 548.25C100.195 547.586 99.3867 546.645 98.8086 545.426C98.2383 544.199 97.9453 542.781 97.9297 541.172V539.941C97.9297 538.301 98.2148 536.852 98.7852 535.594C99.3555 534.336 100.16 533.375 101.199 532.711C102.246 532.039 103.441 531.703 104.785 531.703C106.152 531.703 107.355 532.035 108.395 532.699C109.441 533.355 110.246 534.312 110.809 535.57C111.371 536.82 111.652 538.277 111.652 539.941V541.02ZM109.414 539.918C109.414 537.895 109.008 536.344 108.195 535.266C107.383 534.18 106.246 533.637 104.785 533.637C103.363 533.637 102.242 534.18 101.422 535.266C100.609 536.344 100.191 537.844 100.168 539.766V541.02C100.168 542.98 100.578 544.523 101.398 545.648C102.227 546.766 103.363 547.324 104.809 547.324C106.262 547.324 107.387 546.797 108.184 545.742C108.98 544.68 109.391 543.16 109.414 541.184V539.918ZM117.629 533.25V536.32H119.996V537.996H117.629V545.859C117.629 546.367 117.734 546.75 117.945 547.008C118.156 547.258 118.516 547.383 119.023 547.383C119.273 547.383 119.617 547.336 120.055 547.242V549C119.484 549.156 118.93 549.234 118.391 549.234C117.422 549.234 116.691 548.941 116.199 548.355C115.707 547.77 115.461 546.938 115.461 545.859V537.996H113.152V536.32H115.461V533.25H117.629ZM124.895 549H122.727V536.32H124.895V549ZM122.551 532.957C122.551 532.605 122.656 532.309 122.867 532.066C123.086 531.824 123.406 531.703 123.828 531.703C124.25 531.703 124.57 531.824 124.789 532.066C125.008 532.309 125.117 532.605 125.117 532.957C125.117 533.309 125.008 533.602 124.789 533.836C124.57 534.07 124.25 534.188 123.828 534.188C123.406 534.188 123.086 534.07 122.867 533.836C122.656 533.602 122.551 533.309 122.551 532.957ZM130.414 536.32L130.473 537.727C131.402 536.633 132.656 536.086 134.234 536.086C136.008 536.086 137.215 536.766 137.855 538.125C138.277 537.516 138.824 537.023 139.496 536.648C140.176 536.273 140.977 536.086 141.898 536.086C144.68 536.086 146.094 537.559 146.141 540.504V549H143.973V540.633C143.973 539.727 143.766 539.051 143.352 538.605C142.938 538.152 142.242 537.926 141.266 537.926C140.461 537.926 139.793 538.168 139.262 538.652C138.73 539.129 138.422 539.773 138.336 540.586V549H136.156V540.691C136.156 538.848 135.254 537.926 133.449 537.926C132.027 537.926 131.055 538.531 130.531 539.742V549H128.363V536.32H130.414ZM151.777 549H149.609V536.32H151.777V549ZM149.434 532.957C149.434 532.605 149.539 532.309 149.75 532.066C149.969 531.824 150.289 531.703 150.711 531.703C151.133 531.703 151.453 531.824 151.672 532.066C151.891 532.309 152 532.605 152 532.957C152 533.309 151.891 533.602 151.672 533.836C151.453 534.07 151.133 534.188 150.711 534.188C150.289 534.188 149.969 534.07 149.75 533.836C149.539 533.602 149.434 533.309 149.434 532.957ZM157.297 547.23H164.715V549H154.648V547.406L161.645 538.113H154.754V536.32H164.363V537.855L157.297 547.23ZM174.992 549C174.867 548.75 174.766 548.305 174.688 547.664C173.68 548.711 172.477 549.234 171.078 549.234C169.828 549.234 168.801 548.883 167.996 548.18C167.199 547.469 166.801 546.57 166.801 545.484C166.801 544.164 167.301 543.141 168.301 542.414C169.309 541.68 170.723 541.312 172.543 541.312H174.652V540.316C174.652 539.559 174.426 538.957 173.973 538.512C173.52 538.059 172.852 537.832 171.969 537.832C171.195 537.832 170.547 538.027 170.023 538.418C169.5 538.809 169.238 539.281 169.238 539.836H167.059C167.059 539.203 167.281 538.594 167.727 538.008C168.18 537.414 168.789 536.945 169.555 536.602C170.328 536.258 171.176 536.086 172.098 536.086C173.559 536.086 174.703 536.453 175.531 537.188C176.359 537.914 176.789 538.918 176.82 540.199V546.035C176.82 547.199 176.969 548.125 177.266 548.812V549H174.992ZM171.395 547.348C172.074 547.348 172.719 547.172 173.328 546.82C173.938 546.469 174.379 546.012 174.652 545.449V542.848H172.953C170.297 542.848 168.969 543.625 168.969 545.18C168.969 545.859 169.195 546.391 169.648 546.773C170.102 547.156 170.684 547.348 171.395 547.348ZM185.305 547.465C186.078 547.465 186.754 547.23 187.332 546.762C187.91 546.293 188.23 545.707 188.293 545.004H190.344C190.305 545.73 190.055 546.422 189.594 547.078C189.133 547.734 188.516 548.258 187.742 548.648C186.977 549.039 186.164 549.234 185.305 549.234C183.578 549.234 182.203 548.66 181.18 547.512C180.164 546.355 179.656 544.777 179.656 542.777V542.414C179.656 541.18 179.883 540.082 180.336 539.121C180.789 538.16 181.438 537.414 182.281 536.883C183.133 536.352 184.137 536.086 185.293 536.086C186.715 536.086 187.895 536.512 188.832 537.363C189.777 538.215 190.281 539.32 190.344 540.68H188.293C188.23 539.859 187.918 539.188 187.355 538.664C186.801 538.133 186.113 537.867 185.293 537.867C184.191 537.867 183.336 538.266 182.727 539.062C182.125 539.852 181.824 540.996 181.824 542.496V542.906C181.824 544.367 182.125 545.492 182.727 546.281C183.328 547.07 184.188 547.465 185.305 547.465ZM185.656 549.105L185.516 549.715C186.711 549.926 187.309 550.602 187.309 551.742C187.309 552.5 186.996 553.098 186.371 553.535C185.746 553.98 184.875 554.203 183.758 554.203L183.676 552.949C184.293 552.949 184.77 552.848 185.105 552.645C185.449 552.441 185.621 552.156 185.621 551.789C185.621 551.445 185.496 551.191 185.246 551.027C184.996 550.863 184.488 550.746 183.723 550.676L184.098 549.105H185.656ZM200.609 549C200.484 548.75 200.383 548.305 200.305 547.664C199.297 548.711 198.094 549.234 196.695 549.234C195.445 549.234 194.418 548.883 193.613 548.18C192.816 547.469 192.418 546.57 192.418 545.484C192.418 544.164 192.918 543.141 193.918 542.414C194.926 541.68 196.34 541.312 198.16 541.312H200.27V540.316C200.27 539.559 200.043 538.957 199.59 538.512C199.137 538.059 198.469 537.832 197.586 537.832C196.812 537.832 196.164 538.027 195.641 538.418C195.117 538.809 194.855 539.281 194.855 539.836H192.676C192.676 539.203 192.898 538.594 193.344 538.008C193.797 537.414 194.406 536.945 195.172 536.602C195.945 536.258 196.793 536.086 197.715 536.086C199.176 536.086 200.32 536.453 201.148 537.188C201.977 537.914 202.406 538.918 202.438 540.199V546.035C202.438 547.199 202.586 548.125 202.883 548.812V549H200.609ZM197.012 547.348C197.691 547.348 198.336 547.172 198.945 546.82C199.555 546.469 199.996 546.012 200.27 545.449V542.848H198.57C195.914 542.848 194.586 543.625 194.586 545.18C194.586 545.859 194.812 546.391 195.266 546.773C195.719 547.156 196.301 547.348 197.012 547.348ZM202.109 531.375C202.109 532.219 201.867 532.902 201.383 533.426C200.906 533.949 200.309 534.211 199.59 534.211C199.27 534.211 198.992 534.172 198.758 534.094C198.523 534.016 198.215 533.855 197.832 533.613C197.457 533.371 197.184 533.227 197.012 533.18C196.848 533.125 196.656 533.098 196.438 533.098C196.117 533.098 195.844 533.223 195.617 533.473C195.391 533.715 195.277 534.027 195.277 534.41L193.824 534.328C193.824 533.492 194.059 532.801 194.527 532.254C195.004 531.707 195.605 531.434 196.332 531.434C196.605 531.434 196.852 531.473 197.07 531.551C197.289 531.629 197.586 531.781 197.961 532.008C198.336 532.234 198.621 532.383 198.816 532.453C199.02 532.523 199.242 532.559 199.484 532.559C199.82 532.559 200.098 532.426 200.316 532.16C200.543 531.895 200.656 531.586 200.656 531.234L202.109 531.375ZM205.262 542.543C205.262 541.301 205.504 540.184 205.988 539.191C206.48 538.199 207.16 537.434 208.027 536.895C208.902 536.355 209.898 536.086 211.016 536.086C212.742 536.086 214.137 536.684 215.199 537.879C216.27 539.074 216.805 540.664 216.805 542.648V542.801C216.805 544.035 216.566 545.145 216.09 546.129C215.621 547.105 214.945 547.867 214.062 548.414C213.188 548.961 212.18 549.234 211.039 549.234C209.32 549.234 207.926 548.637 206.855 547.441C205.793 546.246 205.262 544.664 205.262 542.695V542.543ZM207.441 542.801C207.441 544.207 207.766 545.336 208.414 546.188C209.07 547.039 209.945 547.465 211.039 547.465C212.141 547.465 213.016 547.035 213.664 546.176C214.312 545.309 214.637 544.098 214.637 542.543C214.637 541.152 214.305 540.027 213.641 539.168C212.984 538.301 212.109 537.867 211.016 537.867C209.945 537.867 209.082 538.293 208.426 539.145C207.77 539.996 207.441 541.215 207.441 542.801ZM224.949 542.555C224.949 540.609 225.41 539.047 226.332 537.867C227.254 536.68 228.461 536.086 229.953 536.086C231.438 536.086 232.613 536.594 233.48 537.609V531H235.648V549H233.656L233.551 547.641C232.684 548.703 231.477 549.234 229.93 549.234C228.461 549.234 227.262 548.633 226.332 547.43C225.41 546.227 224.949 544.656 224.949 542.719V542.555ZM227.117 542.801C227.117 544.238 227.414 545.363 228.008 546.176C228.602 546.988 229.422 547.395 230.469 547.395C231.844 547.395 232.848 546.777 233.48 545.543V539.719C232.832 538.523 231.836 537.926 230.492 537.926C229.43 537.926 228.602 538.336 228.008 539.156C227.414 539.977 227.117 541.191 227.117 542.801ZM244.285 549.234C242.566 549.234 241.168 548.672 240.09 547.547C239.012 546.414 238.473 544.902 238.473 543.012V542.613C238.473 541.355 238.711 540.234 239.188 539.25C239.672 538.258 240.344 537.484 241.203 536.93C242.07 536.367 243.008 536.086 244.016 536.086C245.664 536.086 246.945 536.629 247.859 537.715C248.773 538.801 249.23 540.355 249.23 542.379V543.281H240.641C240.672 544.531 241.035 545.543 241.73 546.316C242.434 547.082 243.324 547.465 244.402 547.465C245.168 547.465 245.816 547.309 246.348 546.996C246.879 546.684 247.344 546.27 247.742 545.754L249.066 546.785C248.004 548.418 246.41 549.234 244.285 549.234ZM244.016 537.867C243.141 537.867 242.406 538.188 241.812 538.828C241.219 539.461 240.852 540.352 240.711 541.5H247.062V541.336C247 540.234 246.703 539.383 246.172 538.781C245.641 538.172 244.922 537.867 244.016 537.867ZM263.07 541.395C261.141 540.84 259.734 540.16 258.852 539.355C257.977 538.543 257.539 537.543 257.539 536.355C257.539 535.012 258.074 533.902 259.145 533.027C260.223 532.145 261.621 531.703 263.34 531.703C264.512 531.703 265.555 531.93 266.469 532.383C267.391 532.836 268.102 533.461 268.602 534.258C269.109 535.055 269.363 535.926 269.363 536.871H267.102C267.102 535.84 266.773 535.031 266.117 534.445C265.461 533.852 264.535 533.555 263.34 533.555C262.23 533.555 261.363 533.801 260.738 534.293C260.121 534.777 259.812 535.453 259.812 536.32C259.812 537.016 260.105 537.605 260.691 538.09C261.285 538.566 262.289 539.004 263.703 539.402C265.125 539.801 266.234 540.242 267.031 540.727C267.836 541.203 268.43 541.762 268.812 542.402C269.203 543.043 269.398 543.797 269.398 544.664C269.398 546.047 268.859 547.156 267.781 547.992C266.703 548.82 265.262 549.234 263.457 549.234C262.285 549.234 261.191 549.012 260.176 548.566C259.16 548.113 258.375 547.496 257.82 546.715C257.273 545.934 257 545.047 257 544.055H259.262C259.262 545.086 259.641 545.902 260.398 546.504C261.164 547.098 262.184 547.395 263.457 547.395C264.645 547.395 265.555 547.152 266.188 546.668C266.82 546.184 267.137 545.523 267.137 544.688C267.137 543.852 266.844 543.207 266.258 542.754C265.672 542.293 264.609 541.84 263.07 541.395ZM281.938 541.113H274.543V547.16H283.133V549H272.293V531.938H283.016V533.789H274.543V539.273H281.938V541.113ZM299.059 541.02C299.059 542.691 298.777 544.152 298.215 545.402C297.652 546.645 296.855 547.594 295.824 548.25C294.793 548.906 293.59 549.234 292.215 549.234C290.871 549.234 289.68 548.906 288.641 548.25C287.602 547.586 286.793 546.645 286.215 545.426C285.645 544.199 285.352 542.781 285.336 541.172V539.941C285.336 538.301 285.621 536.852 286.191 535.594C286.762 534.336 287.566 533.375 288.605 532.711C289.652 532.039 290.848 531.703 292.191 531.703C293.559 531.703 294.762 532.035 295.801 532.699C296.848 533.355 297.652 534.312 298.215 535.57C298.777 536.82 299.059 538.277 299.059 539.941V541.02ZM296.82 539.918C296.82 537.895 296.414 536.344 295.602 535.266C294.789 534.18 293.652 533.637 292.191 533.637C290.77 533.637 289.648 534.18 288.828 535.266C288.016 536.344 287.598 537.844 287.574 539.766V541.02C287.574 542.98 287.984 544.523 288.805 545.648C289.633 546.766 290.77 547.324 292.215 547.324C293.668 547.324 294.793 546.797 295.59 545.742C296.387 544.68 296.797 543.16 296.82 541.184V539.918ZM153.898 570.074C153.898 568.309 154.133 566.613 154.602 564.988C155.078 563.363 155.785 561.887 156.723 560.559C157.66 559.23 158.633 558.293 159.641 557.746L160.086 559.176C158.945 560.051 158.008 561.387 157.273 563.184C156.547 564.98 156.148 566.992 156.078 569.219L156.066 570.215C156.066 573.23 156.617 575.848 157.719 578.066C158.383 579.395 159.172 580.434 160.086 581.184L159.641 582.508C158.602 581.93 157.609 580.961 156.664 579.602C154.82 576.945 153.898 573.77 153.898 570.074ZM175.121 574.762C174.543 575.59 173.734 576.211 172.695 576.625C171.664 577.031 170.461 577.234 169.086 577.234C167.695 577.234 166.461 576.91 165.383 576.262C164.305 575.605 163.469 574.676 162.875 573.473C162.289 572.27 161.988 570.875 161.973 569.289V567.801C161.973 565.23 162.57 563.238 163.766 561.824C164.969 560.41 166.656 559.703 168.828 559.703C170.609 559.703 172.043 560.16 173.129 561.074C174.215 561.98 174.879 563.27 175.121 564.941H172.871C172.449 562.684 171.105 561.555 168.84 561.555C167.332 561.555 166.188 562.086 165.406 563.148C164.633 564.203 164.242 565.734 164.234 567.742V569.137C164.234 571.051 164.672 572.574 165.547 573.707C166.422 574.832 167.605 575.395 169.098 575.395C169.941 575.395 170.68 575.301 171.312 575.113C171.945 574.926 172.469 574.609 172.883 574.164V570.332H168.934V568.504H175.121V574.762ZM177.969 570.543C177.969 569.301 178.211 568.184 178.695 567.191C179.188 566.199 179.867 565.434 180.734 564.895C181.609 564.355 182.605 564.086 183.723 564.086C185.449 564.086 186.844 564.684 187.906 565.879C188.977 567.074 189.512 568.664 189.512 570.648V570.801C189.512 572.035 189.273 573.145 188.797 574.129C188.328 575.105 187.652 575.867 186.77 576.414C185.895 576.961 184.887 577.234 183.746 577.234C182.027 577.234 180.633 576.637 179.562 575.441C178.5 574.246 177.969 572.664 177.969 570.695V570.543ZM180.148 570.801C180.148 572.207 180.473 573.336 181.121 574.188C181.777 575.039 182.652 575.465 183.746 575.465C184.848 575.465 185.723 575.035 186.371 574.176C187.02 573.309 187.344 572.098 187.344 570.543C187.344 569.152 187.012 568.027 186.348 567.168C185.691 566.301 184.816 565.867 183.723 565.867C182.652 565.867 181.789 566.293 181.133 567.145C180.477 567.996 180.148 569.215 180.148 570.801ZM191.656 570.543C191.656 569.301 191.898 568.184 192.383 567.191C192.875 566.199 193.555 565.434 194.422 564.895C195.297 564.355 196.293 564.086 197.41 564.086C199.137 564.086 200.531 564.684 201.594 565.879C202.664 567.074 203.199 568.664 203.199 570.648V570.801C203.199 572.035 202.961 573.145 202.484 574.129C202.016 575.105 201.34 575.867 200.457 576.414C199.582 576.961 198.574 577.234 197.434 577.234C195.715 577.234 194.32 576.637 193.25 575.441C192.188 574.246 191.656 572.664 191.656 570.695V570.543ZM193.836 570.801C193.836 572.207 194.16 573.336 194.809 574.188C195.465 575.039 196.34 575.465 197.434 575.465C198.535 575.465 199.41 575.035 200.059 574.176C200.707 573.309 201.031 572.098 201.031 570.543C201.031 569.152 200.699 568.027 200.035 567.168C199.379 566.301 198.504 565.867 197.41 565.867C196.34 565.867 195.477 566.293 194.82 567.145C194.164 567.996 193.836 569.215 193.836 570.801ZM205.402 570.555C205.402 568.578 205.859 567.008 206.773 565.844C207.688 564.672 208.898 564.086 210.406 564.086C211.953 564.086 213.16 564.633 214.027 565.727L214.133 564.32H216.113V576.695C216.113 578.336 215.625 579.629 214.648 580.574C213.68 581.52 212.375 581.992 210.734 581.992C209.82 581.992 208.926 581.797 208.051 581.406C207.176 581.016 206.508 580.48 206.047 579.801L207.172 578.5C208.102 579.648 209.238 580.223 210.582 580.223C211.637 580.223 212.457 579.926 213.043 579.332C213.637 578.738 213.934 577.902 213.934 576.824V575.734C213.066 576.734 211.883 577.234 210.383 577.234C208.898 577.234 207.695 576.637 206.773 575.441C205.859 574.246 205.402 572.617 205.402 570.555ZM207.582 570.801C207.582 572.23 207.875 573.355 208.461 574.176C209.047 574.988 209.867 575.395 210.922 575.395C212.289 575.395 213.293 574.773 213.934 573.531V567.742C213.27 566.531 212.273 565.926 210.945 565.926C209.891 565.926 209.066 566.336 208.473 567.156C207.879 567.977 207.582 569.191 207.582 570.801ZM221.75 577H219.582V559H221.75V577ZM230.492 577.234C228.773 577.234 227.375 576.672 226.297 575.547C225.219 574.414 224.68 572.902 224.68 571.012V570.613C224.68 569.355 224.918 568.234 225.395 567.25C225.879 566.258 226.551 565.484 227.41 564.93C228.277 564.367 229.215 564.086 230.223 564.086C231.871 564.086 233.152 564.629 234.066 565.715C234.98 566.801 235.438 568.355 235.438 570.379V571.281H226.848C226.879 572.531 227.242 573.543 227.938 574.316C228.641 575.082 229.531 575.465 230.609 575.465C231.375 575.465 232.023 575.309 232.555 574.996C233.086 574.684 233.551 574.27 233.949 573.754L235.273 574.785C234.211 576.418 232.617 577.234 230.492 577.234ZM230.223 565.867C229.348 565.867 228.613 566.188 228.02 566.828C227.426 567.461 227.059 568.352 226.918 569.5H233.27V569.336C233.207 568.234 232.91 567.383 232.379 566.781C231.848 566.172 231.129 565.867 230.223 565.867ZM242.961 570.191C242.961 571.934 242.73 573.605 242.27 575.207C241.816 576.801 241.117 578.273 240.172 579.625C239.234 580.977 238.25 581.938 237.219 582.508L236.762 581.184C237.965 580.262 238.93 578.832 239.656 576.895C240.391 574.949 240.766 572.793 240.781 570.426V570.051C240.781 568.41 240.609 566.887 240.266 565.48C239.922 564.066 239.441 562.801 238.824 561.684C238.215 560.566 237.527 559.695 236.762 559.07L237.219 557.746C238.25 558.316 239.23 559.27 240.16 560.605C241.098 561.941 241.797 563.414 242.258 565.023C242.727 566.633 242.961 568.355 242.961 570.191Z" fill="white"/>
<path d="M105.719 648.113H98.3242V654.16H106.914V656H96.0742V638.938H106.797V640.789H98.3242V646.273H105.719V648.113ZM111.414 643.32L111.473 644.727C112.402 643.633 113.656 643.086 115.234 643.086C117.008 643.086 118.215 643.766 118.855 645.125C119.277 644.516 119.824 644.023 120.496 643.648C121.176 643.273 121.977 643.086 122.898 643.086C125.68 643.086 127.094 644.559 127.141 647.504V656H124.973V647.633C124.973 646.727 124.766 646.051 124.352 645.605C123.938 645.152 123.242 644.926 122.266 644.926C121.461 644.926 120.793 645.168 120.262 645.652C119.73 646.129 119.422 646.773 119.336 647.586V656H117.156V647.691C117.156 645.848 116.254 644.926 114.449 644.926C113.027 644.926 112.055 645.531 111.531 646.742V656H109.363V643.32H111.414ZM138.25 656C138.125 655.75 138.023 655.305 137.945 654.664C136.938 655.711 135.734 656.234 134.336 656.234C133.086 656.234 132.059 655.883 131.254 655.18C130.457 654.469 130.059 653.57 130.059 652.484C130.059 651.164 130.559 650.141 131.559 649.414C132.566 648.68 133.98 648.312 135.801 648.312H137.91V647.316C137.91 646.559 137.684 645.957 137.23 645.512C136.777 645.059 136.109 644.832 135.227 644.832C134.453 644.832 133.805 645.027 133.281 645.418C132.758 645.809 132.496 646.281 132.496 646.836H130.316C130.316 646.203 130.539 645.594 130.984 645.008C131.438 644.414 132.047 643.945 132.812 643.602C133.586 643.258 134.434 643.086 135.355 643.086C136.816 643.086 137.961 643.453 138.789 644.188C139.617 644.914 140.047 645.918 140.078 647.199V653.035C140.078 654.199 140.227 655.125 140.523 655.812V656H138.25ZM134.652 654.348C135.332 654.348 135.977 654.172 136.586 653.82C137.195 653.469 137.637 653.012 137.91 652.449V649.848H136.211C133.555 649.848 132.227 650.625 132.227 652.18C132.227 652.859 132.453 653.391 132.906 653.773C133.359 654.156 133.941 654.348 134.652 654.348ZM145.832 656H143.664V643.32H145.832V656ZM143.488 639.957C143.488 639.605 143.594 639.309 143.805 639.066C144.023 638.824 144.344 638.703 144.766 638.703C145.188 638.703 145.508 638.824 145.727 639.066C145.945 639.309 146.055 639.605 146.055 639.957C146.055 640.309 145.945 640.602 145.727 640.836C145.508 641.07 145.188 641.188 144.766 641.188C144.344 641.188 144.023 641.07 143.805 640.836C143.594 640.602 143.488 640.309 143.488 639.957ZM151.668 656H149.5V638H151.668V656ZM171.812 649.801C171.812 651.73 171.371 653.285 170.488 654.465C169.605 655.645 168.41 656.234 166.902 656.234C165.363 656.234 164.152 655.746 163.27 654.77V660.875H161.102V643.32H163.082L163.188 644.727C164.07 643.633 165.297 643.086 166.867 643.086C168.391 643.086 169.594 643.66 170.477 644.809C171.367 645.957 171.812 647.555 171.812 649.602V649.801ZM169.645 649.555C169.645 648.125 169.34 646.996 168.73 646.168C168.121 645.34 167.285 644.926 166.223 644.926C164.91 644.926 163.926 645.508 163.27 646.672V652.73C163.918 653.887 164.91 654.465 166.246 654.465C167.285 654.465 168.109 654.055 168.719 653.234C169.336 652.406 169.645 651.18 169.645 649.555ZM180.707 645.266C180.379 645.211 180.023 645.184 179.641 645.184C178.219 645.184 177.254 645.789 176.746 647V656H174.578V643.32H176.688L176.723 644.785C177.434 643.652 178.441 643.086 179.746 643.086C180.168 643.086 180.488 643.141 180.707 643.25V645.266ZM181.902 649.543C181.902 648.301 182.145 647.184 182.629 646.191C183.121 645.199 183.801 644.434 184.668 643.895C185.543 643.355 186.539 643.086 187.656 643.086C189.383 643.086 190.777 643.684 191.84 644.879C192.91 646.074 193.445 647.664 193.445 649.648V649.801C193.445 651.035 193.207 652.145 192.73 653.129C192.262 654.105 191.586 654.867 190.703 655.414C189.828 655.961 188.82 656.234 187.68 656.234C185.961 656.234 184.566 655.637 183.496 654.441C182.434 653.246 181.902 651.664 181.902 649.695V649.543ZM184.082 649.801C184.082 651.207 184.406 652.336 185.055 653.188C185.711 654.039 186.586 654.465 187.68 654.465C188.781 654.465 189.656 654.035 190.305 653.176C190.953 652.309 191.277 651.098 191.277 649.543C191.277 648.152 190.945 647.027 190.281 646.168C189.625 645.301 188.75 644.867 187.656 644.867C186.586 644.867 185.723 645.293 185.066 646.145C184.41 646.996 184.082 648.215 184.082 649.801ZM188.641 638H191.266L188.125 641.445H186.379L188.641 638ZM206.875 649.801C206.875 651.73 206.434 653.285 205.551 654.465C204.668 655.645 203.473 656.234 201.965 656.234C200.426 656.234 199.215 655.746 198.332 654.77V660.875H196.164V643.32H198.145L198.25 644.727C199.133 643.633 200.359 643.086 201.93 643.086C203.453 643.086 204.656 643.66 205.539 644.809C206.43 645.957 206.875 647.555 206.875 649.602V649.801ZM204.707 649.555C204.707 648.125 204.402 646.996 203.793 646.168C203.184 645.34 202.348 644.926 201.285 644.926C199.973 644.926 198.988 645.508 198.332 646.672V652.73C198.98 653.887 199.973 654.465 201.309 654.465C202.348 654.465 203.172 654.055 203.781 653.234C204.398 652.406 204.707 651.18 204.707 649.555ZM215.77 645.266C215.441 645.211 215.086 645.184 214.703 645.184C213.281 645.184 212.316 645.789 211.809 647V656H209.641V643.32H211.75L211.785 644.785C212.496 643.652 213.504 643.086 214.809 643.086C215.23 643.086 215.551 643.141 215.77 643.25V645.266ZM220.129 656H217.961V643.32H220.129V656ZM217.785 639.957C217.785 639.605 217.891 639.309 218.102 639.066C218.32 638.824 218.641 638.703 219.062 638.703C219.484 638.703 219.805 638.824 220.023 639.066C220.242 639.309 220.352 639.605 220.352 639.957C220.352 640.309 220.242 640.602 220.023 640.836C219.805 641.07 219.484 641.188 219.062 641.188C218.641 641.188 218.32 641.07 218.102 640.836C217.891 640.602 217.785 640.309 217.785 639.957ZM223.035 649.543C223.035 648.301 223.277 647.184 223.762 646.191C224.254 645.199 224.934 644.434 225.801 643.895C226.676 643.355 227.672 643.086 228.789 643.086C230.516 643.086 231.91 643.684 232.973 644.879C234.043 646.074 234.578 647.664 234.578 649.648V649.801C234.578 651.035 234.34 652.145 233.863 653.129C233.395 654.105 232.719 654.867 231.836 655.414C230.961 655.961 229.953 656.234 228.812 656.234C227.094 656.234 225.699 655.637 224.629 654.441C223.566 653.246 223.035 651.664 223.035 649.695V649.543ZM225.215 649.801C225.215 651.207 225.539 652.336 226.188 653.188C226.844 654.039 227.719 654.465 228.812 654.465C229.914 654.465 230.789 654.035 231.438 653.176C232.086 652.309 232.41 651.098 232.41 649.543C232.41 648.152 232.078 647.027 231.414 646.168C230.758 645.301 229.883 644.867 228.789 644.867C227.719 644.867 226.855 645.293 226.199 646.145C225.543 646.996 225.215 648.215 225.215 649.801ZM248.336 654.465C249.109 654.465 249.785 654.23 250.363 653.762C250.941 653.293 251.262 652.707 251.324 652.004H253.375C253.336 652.73 253.086 653.422 252.625 654.078C252.164 654.734 251.547 655.258 250.773 655.648C250.008 656.039 249.195 656.234 248.336 656.234C246.609 656.234 245.234 655.66 244.211 654.512C243.195 653.355 242.688 651.777 242.688 649.777V649.414C242.688 648.18 242.914 647.082 243.367 646.121C243.82 645.16 244.469 644.414 245.312 643.883C246.164 643.352 247.168 643.086 248.324 643.086C249.746 643.086 250.926 643.512 251.863 644.363C252.809 645.215 253.312 646.32 253.375 647.68H251.324C251.262 646.859 250.949 646.188 250.387 645.664C249.832 645.133 249.145 644.867 248.324 644.867C247.223 644.867 246.367 645.266 245.758 646.062C245.156 646.852 244.855 647.996 244.855 649.496V649.906C244.855 651.367 245.156 652.492 245.758 653.281C246.359 654.07 247.219 654.465 248.336 654.465ZM255.238 649.543C255.238 648.301 255.48 647.184 255.965 646.191C256.457 645.199 257.137 644.434 258.004 643.895C258.879 643.355 259.875 643.086 260.992 643.086C262.719 643.086 264.113 643.684 265.176 644.879C266.246 646.074 266.781 647.664 266.781 649.648V649.801C266.781 651.035 266.543 652.145 266.066 653.129C265.598 654.105 264.922 654.867 264.039 655.414C263.164 655.961 262.156 656.234 261.016 656.234C259.297 656.234 257.902 655.637 256.832 654.441C255.77 653.246 255.238 651.664 255.238 649.695V649.543ZM257.418 649.801C257.418 651.207 257.742 652.336 258.391 653.188C259.047 654.039 259.922 654.465 261.016 654.465C262.117 654.465 262.992 654.035 263.641 653.176C264.289 652.309 264.613 651.098 264.613 649.543C264.613 648.152 264.281 647.027 263.617 646.168C262.961 645.301 262.086 644.867 260.992 644.867C259.922 644.867 259.059 645.293 258.402 646.145C257.746 646.996 257.418 648.215 257.418 649.801ZM271.539 643.32L271.598 644.727C272.527 643.633 273.781 643.086 275.359 643.086C277.133 643.086 278.34 643.766 278.98 645.125C279.402 644.516 279.949 644.023 280.621 643.648C281.301 643.273 282.102 643.086 283.023 643.086C285.805 643.086 287.219 644.559 287.266 647.504V656H285.098V647.633C285.098 646.727 284.891 646.051 284.477 645.605C284.062 645.152 283.367 644.926 282.391 644.926C281.586 644.926 280.918 645.168 280.387 645.652C279.855 646.129 279.547 646.773 279.461 647.586V656H277.281V647.691C277.281 645.848 276.379 644.926 274.574 644.926C273.152 644.926 272.18 645.531 271.656 646.742V656H269.488V643.32H271.539ZM73.1523 684C73.0273 683.75 72.9258 683.305 72.8477 682.664C71.8398 683.711 70.6367 684.234 69.2383 684.234C67.9883 684.234 66.9609 683.883 66.1562 683.18C65.3594 682.469 64.9609 681.57 64.9609 680.484C64.9609 679.164 65.4609 678.141 66.4609 677.414C67.4688 676.68 68.8828 676.312 70.7031 676.312H72.8125V675.316C72.8125 674.559 72.5859 673.957 72.1328 673.512C71.6797 673.059 71.0117 672.832 70.1289 672.832C69.3555 672.832 68.707 673.027 68.1836 673.418C67.6602 673.809 67.3984 674.281 67.3984 674.836H65.2188C65.2188 674.203 65.4414 673.594 65.8867 673.008C66.3398 672.414 66.9492 671.945 67.7148 671.602C68.4883 671.258 69.3359 671.086 70.2578 671.086C71.7188 671.086 72.8633 671.453 73.6914 672.188C74.5195 672.914 74.9492 673.918 74.9805 675.199V681.035C74.9805 682.199 75.1289 683.125 75.4258 683.812V684H73.1523ZM69.5547 682.348C70.2344 682.348 70.8789 682.172 71.4883 681.82C72.0977 681.469 72.5391 681.012 72.8125 680.449V677.848H71.1133C68.457 677.848 67.1289 678.625 67.1289 680.18C67.1289 680.859 67.3555 681.391 67.8086 681.773C68.2617 682.156 68.8438 682.348 69.5547 682.348ZM85.7617 680.637C85.7617 680.051 85.5391 679.598 85.0938 679.277C84.6562 678.949 83.8867 678.668 82.7852 678.434C81.6914 678.199 80.8203 677.918 80.1719 677.59C79.5312 677.262 79.0547 676.871 78.7422 676.418C78.4375 675.965 78.2852 675.426 78.2852 674.801C78.2852 673.762 78.7227 672.883 79.5977 672.164C80.4805 671.445 81.6055 671.086 82.9727 671.086C84.4102 671.086 85.5742 671.457 86.4648 672.199C87.3633 672.941 87.8125 673.891 87.8125 675.047H85.6328C85.6328 674.453 85.3789 673.941 84.8711 673.512C84.3711 673.082 83.7383 672.867 82.9727 672.867C82.1836 672.867 81.5664 673.039 81.1211 673.383C80.6758 673.727 80.4531 674.176 80.4531 674.73C80.4531 675.254 80.6602 675.648 81.0742 675.914C81.4883 676.18 82.2344 676.434 83.3125 676.676C84.3984 676.918 85.2773 677.207 85.9492 677.543C86.6211 677.879 87.1172 678.285 87.4375 678.762C87.7656 679.23 87.9297 679.805 87.9297 680.484C87.9297 681.617 87.4766 682.527 86.5703 683.215C85.6641 683.895 84.4883 684.234 83.043 684.234C82.0273 684.234 81.1289 684.055 80.3477 683.695C79.5664 683.336 78.9531 682.836 78.5078 682.195C78.0703 681.547 77.8516 680.848 77.8516 680.098H80.0195C80.0586 680.824 80.3477 681.402 80.8867 681.832C81.4336 682.254 82.1523 682.465 83.043 682.465C83.8633 682.465 84.5195 682.301 85.0117 681.973C85.5117 681.637 85.7617 681.191 85.7617 680.637ZM98.1367 680.637C98.1367 680.051 97.9141 679.598 97.4688 679.277C97.0312 678.949 96.2617 678.668 95.1602 678.434C94.0664 678.199 93.1953 677.918 92.5469 677.59C91.9062 677.262 91.4297 676.871 91.1172 676.418C90.8125 675.965 90.6602 675.426 90.6602 674.801C90.6602 673.762 91.0977 672.883 91.9727 672.164C92.8555 671.445 93.9805 671.086 95.3477 671.086C96.7852 671.086 97.9492 671.457 98.8398 672.199C99.7383 672.941 100.188 673.891 100.188 675.047H98.0078C98.0078 674.453 97.7539 673.941 97.2461 673.512C96.7461 673.082 96.1133 672.867 95.3477 672.867C94.5586 672.867 93.9414 673.039 93.4961 673.383C93.0508 673.727 92.8281 674.176 92.8281 674.73C92.8281 675.254 93.0352 675.648 93.4492 675.914C93.8633 676.18 94.6094 676.434 95.6875 676.676C96.7734 676.918 97.6523 677.207 98.3242 677.543C98.9961 677.879 99.4922 678.285 99.8125 678.762C100.141 679.23 100.305 679.805 100.305 680.484C100.305 681.617 99.8516 682.527 98.9453 683.215C98.0391 683.895 96.8633 684.234 95.418 684.234C94.4023 684.234 93.5039 684.055 92.7227 683.695C91.9414 683.336 91.3281 682.836 90.8828 682.195C90.4453 681.547 90.2266 680.848 90.2266 680.098H92.3945C92.4336 680.824 92.7227 681.402 93.2617 681.832C93.8086 682.254 94.5273 682.465 95.418 682.465C96.2383 682.465 96.8945 682.301 97.3867 681.973C97.8867 681.637 98.1367 681.191 98.1367 680.637ZM105.484 684H103.316V671.32H105.484V684ZM103.141 667.957C103.141 667.605 103.246 667.309 103.457 667.066C103.676 666.824 103.996 666.703 104.418 666.703C104.84 666.703 105.16 666.824 105.379 667.066C105.598 667.309 105.707 667.605 105.707 667.957C105.707 668.309 105.598 668.602 105.379 668.836C105.16 669.07 104.84 669.188 104.418 669.188C103.996 669.188 103.676 669.07 103.457 668.836C103.246 668.602 103.141 668.309 103.141 667.957ZM111.016 671.32L111.086 672.914C112.055 671.695 113.32 671.086 114.883 671.086C117.562 671.086 118.914 672.598 118.938 675.621V684H116.77V675.609C116.762 674.695 116.551 674.02 116.137 673.582C115.73 673.145 115.094 672.926 114.227 672.926C113.523 672.926 112.906 673.113 112.375 673.488C111.844 673.863 111.43 674.355 111.133 674.965V684H108.965V671.32H111.016ZM130.035 684C129.91 683.75 129.809 683.305 129.73 682.664C128.723 683.711 127.52 684.234 126.121 684.234C124.871 684.234 123.844 683.883 123.039 683.18C122.242 682.469 121.844 681.57 121.844 680.484C121.844 679.164 122.344 678.141 123.344 677.414C124.352 676.68 125.766 676.312 127.586 676.312H129.695V675.316C129.695 674.559 129.469 673.957 129.016 673.512C128.562 673.059 127.895 672.832 127.012 672.832C126.238 672.832 125.59 673.027 125.066 673.418C124.543 673.809 124.281 674.281 124.281 674.836H122.102C122.102 674.203 122.324 673.594 122.77 673.008C123.223 672.414 123.832 671.945 124.598 671.602C125.371 671.258 126.219 671.086 127.141 671.086C128.602 671.086 129.746 671.453 130.574 672.188C131.402 672.914 131.832 673.918 131.863 675.199V681.035C131.863 682.199 132.012 683.125 132.309 683.812V684H130.035ZM126.438 682.348C127.117 682.348 127.762 682.172 128.371 681.82C128.98 681.469 129.422 681.012 129.695 680.449V677.848H127.996C125.34 677.848 124.012 678.625 124.012 680.18C124.012 680.859 124.238 681.391 124.691 681.773C125.145 682.156 125.727 682.348 126.438 682.348ZM138.203 668.25V671.32H140.57V672.996H138.203V680.859C138.203 681.367 138.309 681.75 138.52 682.008C138.73 682.258 139.09 682.383 139.598 682.383C139.848 682.383 140.191 682.336 140.629 682.242V684C140.059 684.156 139.504 684.234 138.965 684.234C137.996 684.234 137.266 683.941 136.773 683.355C136.281 682.77 136.035 681.938 136.035 680.859V672.996H133.727V671.32H136.035V668.25H138.203ZM150.941 682.746C150.098 683.738 148.859 684.234 147.227 684.234C145.875 684.234 144.844 683.844 144.133 683.062C143.43 682.273 143.074 681.109 143.066 679.57V671.32H145.234V679.512C145.234 681.434 146.016 682.395 147.578 682.395C149.234 682.395 150.336 681.777 150.883 680.543V671.32H153.051V684H150.988L150.941 682.746ZM162.484 673.266C162.156 673.211 161.801 673.184 161.418 673.184C159.996 673.184 159.031 673.789 158.523 675V684H156.355V671.32H158.465L158.5 672.785C159.211 671.652 160.219 671.086 161.523 671.086C161.945 671.086 162.266 671.141 162.484 671.25V673.266ZM171.848 684C171.723 683.75 171.621 683.305 171.543 682.664C170.535 683.711 169.332 684.234 167.934 684.234C166.684 684.234 165.656 683.883 164.852 683.18C164.055 682.469 163.656 681.57 163.656 680.484C163.656 679.164 164.156 678.141 165.156 677.414C166.164 676.68 167.578 676.312 169.398 676.312H171.508V675.316C171.508 674.559 171.281 673.957 170.828 673.512C170.375 673.059 169.707 672.832 168.824 672.832C168.051 672.832 167.402 673.027 166.879 673.418C166.355 673.809 166.094 674.281 166.094 674.836H163.914C163.914 674.203 164.137 673.594 164.582 673.008C165.035 672.414 165.645 671.945 166.41 671.602C167.184 671.258 168.031 671.086 168.953 671.086C170.414 671.086 171.559 671.453 172.387 672.188C173.215 672.914 173.645 673.918 173.676 675.199V681.035C173.676 682.199 173.824 683.125 174.121 683.812V684H171.848ZM168.25 682.348C168.93 682.348 169.574 682.172 170.184 681.82C170.793 681.469 171.234 681.012 171.508 680.449V677.848H169.809C167.152 677.848 165.824 678.625 165.824 680.18C165.824 680.859 166.051 681.391 166.504 681.773C166.957 682.156 167.539 682.348 168.25 682.348ZM188.113 682.465C188.887 682.465 189.562 682.23 190.141 681.762C190.719 681.293 191.039 680.707 191.102 680.004H193.152C193.113 680.73 192.863 681.422 192.402 682.078C191.941 682.734 191.324 683.258 190.551 683.648C189.785 684.039 188.973 684.234 188.113 684.234C186.387 684.234 185.012 683.66 183.988 682.512C182.973 681.355 182.465 679.777 182.465 677.777V677.414C182.465 676.18 182.691 675.082 183.145 674.121C183.598 673.16 184.246 672.414 185.09 671.883C185.941 671.352 186.945 671.086 188.102 671.086C189.523 671.086 190.703 671.512 191.641 672.363C192.586 673.215 193.09 674.32 193.152 675.68H191.102C191.039 674.859 190.727 674.188 190.164 673.664C189.609 673.133 188.922 672.867 188.102 672.867C187 672.867 186.145 673.266 185.535 674.062C184.934 674.852 184.633 675.996 184.633 677.496V677.906C184.633 679.367 184.934 680.492 185.535 681.281C186.137 682.07 186.996 682.465 188.113 682.465ZM203.418 682.746C202.574 683.738 201.336 684.234 199.703 684.234C198.352 684.234 197.32 683.844 196.609 683.062C195.906 682.273 195.551 681.109 195.543 679.57V671.32H197.711V679.512C197.711 681.434 198.492 682.395 200.055 682.395C201.711 682.395 202.812 681.777 203.359 680.543V671.32H205.527V684H203.465L203.418 682.746ZM216.215 680.637C216.215 680.051 215.992 679.598 215.547 679.277C215.109 678.949 214.34 678.668 213.238 678.434C212.145 678.199 211.273 677.918 210.625 677.59C209.984 677.262 209.508 676.871 209.195 676.418C208.891 675.965 208.738 675.426 208.738 674.801C208.738 673.762 209.176 672.883 210.051 672.164C210.934 671.445 212.059 671.086 213.426 671.086C214.863 671.086 216.027 671.457 216.918 672.199C217.816 672.941 218.266 673.891 218.266 675.047H216.086C216.086 674.453 215.832 673.941 215.324 673.512C214.824 673.082 214.191 672.867 213.426 672.867C212.637 672.867 212.02 673.039 211.574 673.383C211.129 673.727 210.906 674.176 210.906 674.73C210.906 675.254 211.113 675.648 211.527 675.914C211.941 676.18 212.688 676.434 213.766 676.676C214.852 676.918 215.73 677.207 216.402 677.543C217.074 677.879 217.57 678.285 217.891 678.762C218.219 679.23 218.383 679.805 218.383 680.484C218.383 681.617 217.93 682.527 217.023 683.215C216.117 683.895 214.941 684.234 213.496 684.234C212.48 684.234 211.582 684.055 210.801 683.695C210.02 683.336 209.406 682.836 208.961 682.195C208.523 681.547 208.305 680.848 208.305 680.098H210.473C210.512 680.824 210.801 681.402 211.34 681.832C211.887 682.254 212.605 682.465 213.496 682.465C214.316 682.465 214.973 682.301 215.465 681.973C215.965 681.637 216.215 681.191 216.215 680.637ZM224.148 668.25V671.32H226.516V672.996H224.148V680.859C224.148 681.367 224.254 681.75 224.465 682.008C224.676 682.258 225.035 682.383 225.543 682.383C225.793 682.383 226.137 682.336 226.574 682.242V684C226.004 684.156 225.449 684.234 224.91 684.234C223.941 684.234 223.211 683.941 222.719 683.355C222.227 682.77 221.98 681.938 221.98 680.859V672.996H219.672V671.32H221.98V668.25H224.148ZM228.25 677.543C228.25 676.301 228.492 675.184 228.977 674.191C229.469 673.199 230.148 672.434 231.016 671.895C231.891 671.355 232.887 671.086 234.004 671.086C235.73 671.086 237.125 671.684 238.188 672.879C239.258 674.074 239.793 675.664 239.793 677.648V677.801C239.793 679.035 239.555 680.145 239.078 681.129C238.609 682.105 237.934 682.867 237.051 683.414C236.176 683.961 235.168 684.234 234.027 684.234C232.309 684.234 230.914 683.637 229.844 682.441C228.781 681.246 228.25 679.664 228.25 677.695V677.543ZM230.43 677.801C230.43 679.207 230.754 680.336 231.402 681.188C232.059 682.039 232.934 682.465 234.027 682.465C235.129 682.465 236.004 682.035 236.652 681.176C237.301 680.309 237.625 679.098 237.625 677.543C237.625 676.152 237.293 675.027 236.629 674.168C235.973 673.301 235.098 672.867 234.004 672.867C232.934 672.867 232.07 673.293 231.414 674.145C230.758 674.996 230.43 676.215 230.43 677.801ZM244.551 671.32L244.609 672.727C245.539 671.633 246.793 671.086 248.371 671.086C250.145 671.086 251.352 671.766 251.992 673.125C252.414 672.516 252.961 672.023 253.633 671.648C254.312 671.273 255.113 671.086 256.035 671.086C258.816 671.086 260.23 672.559 260.277 675.504V684H258.109V675.633C258.109 674.727 257.902 674.051 257.488 673.605C257.074 673.152 256.379 672.926 255.402 672.926C254.598 672.926 253.93 673.168 253.398 673.652C252.867 674.129 252.559 674.773 252.473 675.586V684H250.293V675.691C250.293 673.848 249.391 672.926 247.586 672.926C246.164 672.926 245.191 673.531 244.668 674.742V684H242.5V671.32H244.551ZM265.914 684H263.746V671.32H265.914V684ZM263.57 667.957C263.57 667.605 263.676 667.309 263.887 667.066C264.105 666.824 264.426 666.703 264.848 666.703C265.27 666.703 265.59 666.824 265.809 667.066C266.027 667.309 266.137 667.605 266.137 667.957C266.137 668.309 266.027 668.602 265.809 668.836C265.59 669.07 265.27 669.188 264.848 669.188C264.426 669.188 264.105 669.07 263.887 668.836C263.676 668.602 263.57 668.309 263.57 667.957ZM271.434 682.23H278.852V684H268.785V682.406L275.781 673.113H268.891V671.32H278.5V672.855L271.434 682.23ZM289.129 684C289.004 683.75 288.902 683.305 288.824 682.664C287.816 683.711 286.613 684.234 285.215 684.234C283.965 684.234 282.938 683.883 282.133 683.18C281.336 682.469 280.938 681.57 280.938 680.484C280.938 679.164 281.438 678.141 282.438 677.414C283.445 676.68 284.859 676.312 286.68 676.312H288.789V675.316C288.789 674.559 288.562 673.957 288.109 673.512C287.656 673.059 286.988 672.832 286.105 672.832C285.332 672.832 284.684 673.027 284.16 673.418C283.637 673.809 283.375 674.281 283.375 674.836H281.195C281.195 674.203 281.418 673.594 281.863 673.008C282.316 672.414 282.926 671.945 283.691 671.602C284.465 671.258 285.312 671.086 286.234 671.086C287.695 671.086 288.84 671.453 289.668 672.188C290.496 672.914 290.926 673.918 290.957 675.199V681.035C290.957 682.199 291.105 683.125 291.402 683.812V684H289.129ZM285.531 682.348C286.211 682.348 286.855 682.172 287.465 681.82C288.074 681.469 288.516 681.012 288.789 680.449V677.848H287.09C284.434 677.848 283.105 678.625 283.105 680.18C283.105 680.859 283.332 681.391 283.785 681.773C284.238 682.156 284.82 682.348 285.531 682.348ZM293.828 677.555C293.828 675.609 294.289 674.047 295.211 672.867C296.133 671.68 297.34 671.086 298.832 671.086C300.316 671.086 301.492 671.594 302.359 672.609V666H304.527V684H302.535L302.43 682.641C301.562 683.703 300.355 684.234 298.809 684.234C297.34 684.234 296.141 683.633 295.211 682.43C294.289 681.227 293.828 679.656 293.828 677.719V677.555ZM295.996 677.801C295.996 679.238 296.293 680.363 296.887 681.176C297.48 681.988 298.301 682.395 299.348 682.395C300.723 682.395 301.727 681.777 302.359 680.543V674.719C301.711 673.523 300.715 672.926 299.371 672.926C298.309 672.926 297.48 673.336 296.887 674.156C296.293 674.977 295.996 676.191 295.996 677.801ZM315.73 684C315.605 683.75 315.504 683.305 315.426 682.664C314.418 683.711 313.215 684.234 311.816 684.234C310.566 684.234 309.539 683.883 308.734 683.18C307.938 682.469 307.539 681.57 307.539 680.484C307.539 679.164 308.039 678.141 309.039 677.414C310.047 676.68 311.461 676.312 313.281 676.312H315.391V675.316C315.391 674.559 315.164 673.957 314.711 673.512C314.258 673.059 313.59 672.832 312.707 672.832C311.934 672.832 311.285 673.027 310.762 673.418C310.238 673.809 309.977 674.281 309.977 674.836H307.797C307.797 674.203 308.02 673.594 308.465 673.008C308.918 672.414 309.527 671.945 310.293 671.602C311.066 671.258 311.914 671.086 312.836 671.086C314.297 671.086 315.441 671.453 316.27 672.188C317.098 672.914 317.527 673.918 317.559 675.199V681.035C317.559 682.199 317.707 683.125 318.004 683.812V684H315.73ZM312.133 682.348C312.812 682.348 313.457 682.172 314.066 681.82C314.676 681.469 315.117 681.012 315.391 680.449V677.848H313.691C311.035 677.848 309.707 678.625 309.707 680.18C309.707 680.859 309.934 681.391 310.387 681.773C310.84 682.156 311.422 682.348 312.133 682.348Z" fill="white"/>
</svg>
