<svg width="388" height="728" viewBox="0 0 388 728" fill="none" xmlns="http://www.w3.org/2000/svg">
<rect y="19" width="388" height="709" fill="#3C3B4B"/>
<rect x="109" width="183" height="19" fill="#194B48"/>
<path d="M109 0H292L279.5 42H121L109 0Z" fill="#5F99FC"/>
<path d="M135.625 21.1133H128.23V27.1602H136.82V29H125.98V11.9375H136.703V13.7891H128.23V19.2734H135.625V21.1133ZM143.793 22.6367H138.074V20.8672H143.793V22.6367ZM158.805 23.5859C158.594 25.3906 157.926 26.7852 156.801 27.7695C155.684 28.7461 154.195 29.2344 152.336 29.2344C150.32 29.2344 148.703 28.5117 147.484 27.0664C146.273 25.6211 145.668 23.6875 145.668 21.2656V19.625C145.668 18.0391 145.949 16.6445 146.512 15.4414C147.082 14.2383 147.887 13.3164 148.926 12.6758C149.965 12.0273 151.168 11.7031 152.535 11.7031C154.348 11.7031 155.801 12.2109 156.895 13.2266C157.988 14.2344 158.625 15.6328 158.805 17.4219H156.543C156.348 16.0625 155.922 15.0781 155.266 14.4688C154.617 13.8594 153.707 13.5547 152.535 13.5547C151.098 13.5547 149.969 14.0859 149.148 15.1484C148.336 16.2109 147.93 17.7227 147.93 19.6836V21.3359C147.93 23.1875 148.316 24.6602 149.09 25.7539C149.863 26.8477 150.945 27.3945 152.336 27.3945C153.586 27.3945 154.543 27.1133 155.207 26.5508C155.879 25.9805 156.324 24.9922 156.543 23.5859H158.805ZM175.012 21.0195C175.012 22.6914 174.73 24.1523 174.168 25.4023C173.605 26.6445 172.809 27.5938 171.777 28.25C170.746 28.9062 169.543 29.2344 168.168 29.2344C166.824 29.2344 165.633 28.9062 164.594 28.25C163.555 27.5859 162.746 26.6445 162.168 25.4258C161.598 24.1992 161.305 22.7812 161.289 21.1719V19.9414C161.289 18.3008 161.574 16.8516 162.145 15.5938C162.715 14.3359 163.52 13.375 164.559 12.7109C165.605 12.0391 166.801 11.7031 168.145 11.7031C169.512 11.7031 170.715 12.0352 171.754 12.6992C172.801 13.3555 173.605 14.3125 174.168 15.5703C174.73 16.8203 175.012 18.2773 175.012 19.9414V21.0195ZM172.773 19.918C172.773 17.8945 172.367 16.3438 171.555 15.2656C170.742 14.1797 169.605 13.6367 168.145 13.6367C166.723 13.6367 165.602 14.1797 164.781 15.2656C163.969 16.3438 163.551 17.8438 163.527 19.7656V21.0195C163.527 22.9805 163.938 24.5234 164.758 25.6484C165.586 26.7656 166.723 27.3242 168.168 27.3242C169.621 27.3242 170.746 26.7969 171.543 25.7422C172.34 24.6797 172.75 23.1602 172.773 21.1836V19.918ZM181.293 11.9375L186.871 25.8594L192.449 11.9375H195.367V29H193.117V22.3555L193.328 15.1836L187.727 29H186.004L180.414 15.2188L180.637 22.3555V29H178.387V11.9375H181.293ZM202.246 11.9375L207.824 25.8594L213.402 11.9375H216.32V29H214.07V22.3555L214.281 15.1836L208.68 29H206.957L201.367 15.2188L201.59 22.3555V29H199.34V11.9375H202.246ZM229.938 21.1133H222.543V27.1602H231.133V29H220.293V11.9375H231.016V13.7891H222.543V19.2734H229.938V21.1133ZM240.191 22.0977H236.184V29H233.922V11.9375H239.57C241.492 11.9375 242.969 12.375 244 13.25C245.039 14.125 245.559 15.3984 245.559 17.0703C245.559 18.1328 245.27 19.0586 244.691 19.8477C244.121 20.6367 243.324 21.2266 242.301 21.6172L246.309 28.8594V29H243.895L240.191 22.0977ZM236.184 20.2578H239.641C240.758 20.2578 241.645 19.9688 242.301 19.3906C242.965 18.8125 243.297 18.0391 243.297 17.0703C243.297 16.0156 242.98 15.207 242.348 14.6445C241.723 14.082 240.816 13.7969 239.629 13.7891H236.184V20.2578ZM261.273 23.5859C261.062 25.3906 260.395 26.7852 259.27 27.7695C258.152 28.7461 256.664 29.2344 254.805 29.2344C252.789 29.2344 251.172 28.5117 249.953 27.0664C248.742 25.6211 248.137 23.6875 248.137 21.2656V19.625C248.137 18.0391 248.418 16.6445 248.98 15.4414C249.551 14.2383 250.355 13.3164 251.395 12.6758C252.434 12.0273 253.637 11.7031 255.004 11.7031C256.816 11.7031 258.27 12.2109 259.363 13.2266C260.457 14.2344 261.094 15.6328 261.273 17.4219H259.012C258.816 16.0625 258.391 15.0781 257.734 14.4688C257.086 13.8594 256.176 13.5547 255.004 13.5547C253.566 13.5547 252.438 14.0859 251.617 15.1484C250.805 16.2109 250.398 17.7227 250.398 19.6836V21.3359C250.398 23.1875 250.785 24.6602 251.559 25.7539C252.332 26.8477 253.414 27.3945 254.805 27.3945C256.055 27.3945 257.012 27.1133 257.676 26.5508C258.348 25.9805 258.793 24.9922 259.012 23.5859H261.273ZM274 21.1133H266.605V27.1602H275.195V29H264.355V11.9375H275.078V13.7891H266.605V19.2734H274V21.1133Z" fill="white"/>
<path d="M0 122L7 132V623L0 636V122Z" fill="#5F99FC"/>
<path d="M388 636L381 626L381 135L388 122L388 636Z" fill="#5F99FC"/>
<path d="M161.399 82.6602H156.038L154.833 86H153.093L157.98 73.2031H159.457L164.352 86H162.621L161.399 82.6602ZM156.547 81.2715H160.898L158.718 75.2861L156.547 81.2715ZM178.318 81.3506C178.318 82.7979 177.987 83.9639 177.325 84.8486C176.663 85.7334 175.766 86.1758 174.635 86.1758C173.481 86.1758 172.573 85.8096 171.911 85.0771V89.6562H170.285V76.4902H171.77L171.849 77.5449C172.511 76.7246 173.431 76.3145 174.609 76.3145C175.751 76.3145 176.654 76.7451 177.316 77.6064C177.984 78.4678 178.318 79.666 178.318 81.2012V81.3506ZM176.692 81.166C176.692 80.0938 176.463 79.2471 176.006 78.626C175.549 78.0049 174.922 77.6943 174.125 77.6943C173.141 77.6943 172.403 78.1309 171.911 79.0039V83.5479C172.397 84.415 173.141 84.8486 174.143 84.8486C174.922 84.8486 175.541 84.541 175.998 83.9258C176.46 83.3047 176.692 82.3848 176.692 81.166ZM186.263 86C186.169 85.8125 186.093 85.4785 186.035 84.998C185.279 85.7832 184.376 86.1758 183.328 86.1758C182.39 86.1758 181.62 85.9121 181.016 85.3848C180.418 84.8516 180.12 84.1777 180.12 83.3633C180.12 82.373 180.495 81.6055 181.245 81.0605C182 80.5098 183.061 80.2344 184.426 80.2344H186.008V79.4873C186.008 78.9189 185.838 78.4678 185.499 78.1338C185.159 77.7939 184.658 77.624 183.996 77.624C183.416 77.624 182.929 77.7705 182.537 78.0635C182.144 78.3564 181.948 78.7109 181.948 79.127H180.313C180.313 78.6523 180.48 78.1953 180.814 77.7559C181.154 77.3105 181.611 76.959 182.185 76.7012C182.765 76.4434 183.401 76.3145 184.092 76.3145C185.188 76.3145 186.046 76.5898 186.667 77.1406C187.289 77.6855 187.611 78.4385 187.634 79.3994V83.7764C187.634 84.6494 187.746 85.3438 187.968 85.8594V86H186.263ZM183.565 84.7607C184.075 84.7607 184.558 84.6289 185.015 84.3652C185.472 84.1016 185.803 83.7588 186.008 83.3369V81.3857H184.734C182.742 81.3857 181.746 81.9688 181.746 83.1348C181.746 83.6445 181.916 84.043 182.255 84.3301C182.595 84.6172 183.032 84.7607 183.565 84.7607ZM194.78 77.9492C194.534 77.9082 194.267 77.8877 193.98 77.8877C192.914 77.8877 192.19 78.3418 191.809 79.25V86H190.183V76.4902H191.765L191.792 77.5889C192.325 76.7393 193.081 76.3145 194.059 76.3145C194.375 76.3145 194.616 76.3555 194.78 76.4375V77.9492ZM198.928 74.1875V76.4902H200.704V77.7471H198.928V83.6445C198.928 84.0254 199.007 84.3125 199.166 84.5059C199.324 84.6934 199.593 84.7871 199.974 84.7871C200.162 84.7871 200.419 84.752 200.748 84.6816V86C200.32 86.1172 199.904 86.1758 199.5 86.1758C198.773 86.1758 198.225 85.9561 197.856 85.5166C197.487 85.0771 197.302 84.4531 197.302 83.6445V77.7471H195.571V76.4902H197.302V74.1875H198.928ZM204.377 86H202.751V76.4902H204.377V86ZM202.62 73.9678C202.62 73.7041 202.699 73.4814 202.857 73.2998C203.021 73.1182 203.261 73.0273 203.578 73.0273C203.894 73.0273 204.134 73.1182 204.298 73.2998C204.462 73.4814 204.544 73.7041 204.544 73.9678C204.544 74.2314 204.462 74.4512 204.298 74.627C204.134 74.8027 203.894 74.8906 203.578 74.8906C203.261 74.8906 203.021 74.8027 202.857 74.627C202.699 74.4512 202.62 74.2314 202.62 73.9678ZM211.584 77.9492C211.338 77.9082 211.072 77.8877 210.785 77.8877C209.718 77.8877 208.995 78.3418 208.614 79.25V86H206.988V76.4902H208.57L208.596 77.5889C209.129 76.7393 209.885 76.3145 210.864 76.3145C211.18 76.3145 211.42 76.3555 211.584 76.4375V77.9492ZM217.157 81.166C217.157 79.707 217.502 78.5352 218.194 77.6504C218.885 76.7598 219.791 76.3145 220.91 76.3145C222.023 76.3145 222.905 76.6953 223.555 77.457V72.5H225.181V86H223.687L223.608 84.9805C222.958 85.7773 222.052 86.1758 220.892 86.1758C219.791 86.1758 218.891 85.7246 218.194 84.8223C217.502 83.9199 217.157 82.7422 217.157 81.2891V81.166ZM218.783 81.3506C218.783 82.4287 219.005 83.2725 219.451 83.8818C219.896 84.4912 220.511 84.7959 221.296 84.7959C222.328 84.7959 223.081 84.333 223.555 83.4072V79.0391C223.069 78.1426 222.322 77.6943 221.314 77.6943C220.517 77.6943 219.896 78.002 219.451 78.6172C219.005 79.2324 218.783 80.1436 218.783 81.3506ZM231.659 86.1758C230.37 86.1758 229.321 85.7539 228.512 84.9102C227.704 84.0605 227.299 82.9268 227.299 81.5088V81.21C227.299 80.2666 227.478 79.4258 227.835 78.6875C228.199 77.9434 228.703 77.3633 229.347 76.9473C229.998 76.5254 230.701 76.3145 231.457 76.3145C232.693 76.3145 233.654 76.7217 234.339 77.5361C235.025 78.3506 235.368 79.5166 235.368 81.0342V81.7109H228.925C228.949 82.6484 229.221 83.4072 229.743 83.9873C230.27 84.5615 230.938 84.8486 231.747 84.8486C232.321 84.8486 232.807 84.7314 233.206 84.4971C233.604 84.2627 233.953 83.9521 234.251 83.5654L235.245 84.3389C234.448 85.5635 233.252 86.1758 231.659 86.1758ZM231.457 77.6504C230.8 77.6504 230.25 77.8906 229.804 78.3711C229.359 78.8457 229.083 79.5137 228.978 80.375H233.742V80.252C233.695 79.4258 233.472 78.7871 233.074 78.3359C232.675 77.8789 232.136 77.6504 231.457 77.6504ZM136.265 128.195H128.25V142H123.726V107.875H135.023C138.867 107.875 141.82 108.75 143.882 110.5C145.96 112.25 147 114.797 147 118.141C147 120.266 146.421 122.117 145.265 123.695C144.125 125.273 142.531 126.453 140.484 127.234L148.5 141.719V142H143.671L136.265 128.195ZM128.25 124.516H135.164C137.398 124.516 139.171 123.938 140.484 122.781C141.812 121.625 142.476 120.078 142.476 118.141C142.476 116.031 141.843 114.414 140.578 113.289C139.328 112.164 137.515 111.594 135.14 111.578H128.25V124.516ZM169.429 133.211C169.429 131.773 168.921 130.562 167.906 129.578C166.906 128.594 165.21 127.703 162.82 126.906C159.492 125.891 157.062 124.57 155.531 122.945C154.015 121.305 153.257 119.227 153.257 116.711C153.257 114.148 154 112.047 155.484 110.406C156.984 108.766 159.039 107.789 161.648 107.477V102.344H165.14V107.5C167.765 107.859 169.804 108.961 171.257 110.805C172.726 112.648 173.46 115.172 173.46 118.375H169.148C169.148 116.172 168.625 114.422 167.578 113.125C166.531 111.828 165.117 111.18 163.335 111.18C161.476 111.18 160.054 111.664 159.07 112.633C158.085 113.586 157.593 114.922 157.593 116.641C157.593 118.234 158.109 119.508 159.14 120.461C160.187 121.398 161.898 122.258 164.273 123.039C166.664 123.805 168.523 124.656 169.851 125.594C171.195 126.516 172.179 127.594 172.804 128.828C173.445 130.062 173.765 131.508 173.765 133.164C173.765 135.805 172.968 137.93 171.375 139.539C169.796 141.148 167.578 142.102 164.718 142.398V146.875H161.25V142.398C158.343 142.133 156.062 141.102 154.406 139.305C152.765 137.492 151.945 135.039 151.945 131.945H156.281C156.281 134.117 156.851 135.789 157.992 136.961C159.132 138.133 160.75 138.719 162.843 138.719C164.89 138.719 166.5 138.227 167.671 137.242C168.843 136.258 169.429 134.914 169.429 133.211ZM197.367 122.828H200.625C202.671 122.797 204.281 122.258 205.453 121.211C206.625 120.164 207.21 118.75 207.21 116.969C207.21 112.969 205.218 110.969 201.234 110.969C199.359 110.969 197.859 111.508 196.734 112.586C195.625 113.648 195.07 115.062 195.07 116.828H190.734C190.734 114.125 191.718 111.883 193.687 110.102C195.671 108.305 198.187 107.406 201.234 107.406C204.453 107.406 206.976 108.258 208.804 109.961C210.632 111.664 211.546 114.031 211.546 117.062C211.546 118.547 211.062 119.984 210.093 121.375C209.14 122.766 207.835 123.805 206.179 124.492C208.054 125.086 209.5 126.07 210.515 127.445C211.546 128.82 212.062 130.5 212.062 132.484C212.062 135.547 211.062 137.977 209.062 139.773C207.062 141.57 204.46 142.469 201.257 142.469C198.054 142.469 195.445 141.602 193.429 139.867C191.429 138.133 190.429 135.844 190.429 133H194.789C194.789 134.797 195.375 136.234 196.546 137.312C197.718 138.391 199.289 138.93 201.257 138.93C203.351 138.93 204.953 138.383 206.062 137.289C207.171 136.195 207.726 134.625 207.726 132.578C207.726 130.594 207.117 129.07 205.898 128.008C204.679 126.945 202.921 126.398 200.625 126.367H197.367V122.828ZM220.007 124.891L221.742 107.875H239.226V111.883H225.421L224.39 121.188C226.062 120.203 227.96 119.711 230.085 119.711C233.195 119.711 235.664 120.742 237.492 122.805C239.32 124.852 240.234 127.625 240.234 131.125C240.234 134.641 239.281 137.414 237.375 139.445C235.484 141.461 232.835 142.469 229.429 142.469C226.414 142.469 223.953 141.633 222.046 139.961C220.14 138.289 219.054 135.977 218.789 133.023H222.89C223.156 134.977 223.851 136.453 224.976 137.453C226.101 138.438 227.585 138.93 229.429 138.93C231.445 138.93 233.023 138.242 234.164 136.867C235.32 135.492 235.898 133.594 235.898 131.172C235.898 128.891 235.273 127.062 234.023 125.688C232.789 124.297 231.14 123.602 229.078 123.602C227.187 123.602 225.703 124.016 224.625 124.844L223.476 125.781L220.007 124.891ZM266.367 127.445C266.367 132.523 265.5 136.297 263.765 138.766C262.031 141.234 259.32 142.469 255.632 142.469C251.992 142.469 249.296 141.266 247.546 138.859C245.796 136.438 244.89 132.828 244.828 128.031V122.242C244.828 117.227 245.695 113.5 247.429 111.062C249.164 108.625 251.882 107.406 255.585 107.406C259.257 107.406 261.96 108.586 263.695 110.945C265.429 113.289 266.32 116.914 266.367 121.82V127.445ZM262.031 121.516C262.031 117.844 261.515 115.172 260.484 113.5C259.453 111.812 257.82 110.969 255.585 110.969C253.367 110.969 251.75 111.805 250.734 113.477C249.718 115.148 249.195 117.719 249.164 121.188V128.125C249.164 131.812 249.695 134.539 250.757 136.305C251.835 138.055 253.46 138.93 255.632 138.93C257.773 138.93 259.359 138.102 260.39 136.445C261.437 134.789 261.984 132.18 262.031 128.617V121.516ZM131.742 185.602C131.742 189.461 130.859 192.57 129.093 194.93C127.328 197.289 124.937 198.469 121.921 198.469C118.843 198.469 116.421 197.492 114.656 195.539V207.75H110.32V172.641H114.281L114.492 175.453C116.257 173.266 118.71 172.172 121.851 172.172C124.898 172.172 127.304 173.32 129.07 175.617C130.851 177.914 131.742 181.109 131.742 185.203V185.602ZM127.406 185.109C127.406 182.25 126.796 179.992 125.578 178.336C124.359 176.68 122.687 175.852 120.562 175.852C117.937 175.852 115.968 177.016 114.656 179.344V191.461C115.953 193.773 117.937 194.93 120.609 194.93C122.687 194.93 124.335 194.109 125.554 192.469C126.789 190.812 127.406 188.359 127.406 185.109ZM136.125 185.086C136.125 182.602 136.609 180.367 137.578 178.383C138.562 176.398 139.921 174.867 141.656 173.789C143.406 172.711 145.398 172.172 147.632 172.172C151.085 172.172 153.875 173.367 156 175.758C158.14 178.148 159.21 181.328 159.21 185.297V185.602C159.21 188.07 158.734 190.289 157.781 192.258C156.843 194.211 155.492 195.734 153.726 196.828C151.976 197.922 149.96 198.469 147.679 198.469C144.242 198.469 141.453 197.273 139.312 194.883C137.187 192.492 136.125 189.328 136.125 185.391V185.086ZM140.484 185.602C140.484 188.414 141.132 190.672 142.429 192.375C143.742 194.078 145.492 194.93 147.679 194.93C149.882 194.93 151.632 194.07 152.929 192.352C154.226 190.617 154.875 188.195 154.875 185.086C154.875 182.305 154.21 180.055 152.882 178.336C151.57 176.602 149.82 175.734 147.632 175.734C145.492 175.734 143.765 176.586 142.453 178.289C141.14 179.992 140.484 182.43 140.484 185.602ZM176.906 176.531C176.25 176.422 175.539 176.367 174.773 176.367C171.929 176.367 170 177.578 168.984 180V198H164.648V172.641H168.867L168.937 175.57C170.359 173.305 172.375 172.172 174.984 172.172C175.828 172.172 176.468 172.281 176.906 172.5V176.531ZM196.898 172.641L197.015 175.453C198.875 173.266 201.382 172.172 204.539 172.172C208.085 172.172 210.5 173.531 211.781 176.25C212.625 175.031 213.718 174.047 215.062 173.297C216.421 172.547 218.023 172.172 219.867 172.172C225.429 172.172 228.257 175.117 228.351 181.008V198H224.015V181.266C224.015 179.453 223.601 178.102 222.773 177.211C221.945 176.305 220.554 175.852 218.601 175.852C216.992 175.852 215.656 176.336 214.593 177.305C213.531 178.258 212.914 179.547 212.742 181.172V198H208.382V181.383C208.382 177.695 206.578 175.852 202.968 175.852C200.125 175.852 198.179 177.062 197.132 179.484V198H192.796V172.641H196.898ZM245.437 198.469C242 198.469 239.203 197.344 237.046 195.094C234.89 192.828 233.812 189.805 233.812 186.023V185.227C233.812 182.711 234.289 180.469 235.242 178.5C236.21 176.516 237.554 174.969 239.273 173.859C241.007 172.734 242.882 172.172 244.898 172.172C248.195 172.172 250.757 173.258 252.585 175.43C254.414 177.602 255.328 180.711 255.328 184.758V186.562H238.148C238.21 189.062 238.937 191.086 240.328 192.633C241.734 194.164 243.515 194.93 245.671 194.93C247.203 194.93 248.5 194.617 249.562 193.992C250.625 193.367 251.554 192.539 252.351 191.508L255 193.57C252.875 196.836 249.687 198.469 245.437 198.469ZM244.898 175.734C243.148 175.734 241.679 176.375 240.492 177.656C239.304 178.922 238.57 180.703 238.289 183H250.992V182.672C250.867 180.469 250.273 178.766 249.21 177.562C248.148 176.344 246.71 175.734 244.898 175.734ZM251.976 168.422V168.656H248.39L244.875 164.672L241.382 168.656H237.796V168.375L243.562 162H246.187L251.976 168.422ZM275.132 191.273C275.132 190.102 274.687 189.195 273.796 188.555C272.921 187.898 271.382 187.336 269.179 186.867C266.992 186.398 265.25 185.836 263.953 185.18C262.671 184.523 261.718 183.742 261.093 182.836C260.484 181.93 260.179 180.852 260.179 179.602C260.179 177.523 261.054 175.766 262.804 174.328C264.57 172.891 266.82 172.172 269.554 172.172C272.429 172.172 274.757 172.914 276.539 174.398C278.335 175.883 279.234 177.781 279.234 180.094H274.875C274.875 178.906 274.367 177.883 273.351 177.023C272.351 176.164 271.085 175.734 269.554 175.734C267.976 175.734 266.742 176.078 265.851 176.766C264.96 177.453 264.515 178.352 264.515 179.461C264.515 180.508 264.929 181.297 265.757 181.828C266.585 182.359 268.078 182.867 270.234 183.352C272.406 183.836 274.164 184.414 275.507 185.086C276.851 185.758 277.843 186.57 278.484 187.523C279.14 188.461 279.468 189.609 279.468 190.969C279.468 193.234 278.562 195.055 276.75 196.43C274.937 197.789 272.585 198.469 269.695 198.469C267.664 198.469 265.867 198.109 264.304 197.391C262.742 196.672 261.515 195.672 260.625 194.391C259.75 193.094 259.312 191.695 259.312 190.195H263.648C263.726 191.648 264.304 192.805 265.382 193.664C266.476 194.508 267.914 194.93 269.695 194.93C271.335 194.93 272.648 194.602 273.632 193.945C274.632 193.273 275.132 192.383 275.132 191.273Z" fill="#00BE9C"/>
<path d="M86.375 312H84.125V294.938H86.375V312ZM92.2109 299.32L92.2812 300.914C93.25 299.695 94.5156 299.086 96.0781 299.086C98.7578 299.086 100.109 300.598 100.133 303.621V312H97.9648V303.609C97.957 302.695 97.7461 302.02 97.332 301.582C96.9258 301.145 96.2891 300.926 95.4219 300.926C94.7188 300.926 94.1016 301.113 93.5703 301.488C93.0391 301.863 92.625 302.355 92.3281 302.965V312H90.1602V299.32H92.2109ZM108.488 310.465C109.262 310.465 109.938 310.23 110.516 309.762C111.094 309.293 111.414 308.707 111.477 308.004H113.527C113.488 308.73 113.238 309.422 112.777 310.078C112.316 310.734 111.699 311.258 110.926 311.648C110.16 312.039 109.348 312.234 108.488 312.234C106.762 312.234 105.387 311.66 104.363 310.512C103.348 309.355 102.84 307.777 102.84 305.777V305.414C102.84 304.18 103.066 303.082 103.52 302.121C103.973 301.16 104.621 300.414 105.465 299.883C106.316 299.352 107.32 299.086 108.477 299.086C109.898 299.086 111.078 299.512 112.016 300.363C112.961 301.215 113.465 302.32 113.527 303.68H111.477C111.414 302.859 111.102 302.188 110.539 301.664C109.984 301.133 109.297 300.867 108.477 300.867C107.375 300.867 106.52 301.266 105.91 302.062C105.309 302.852 105.008 303.996 105.008 305.496V305.906C105.008 307.367 105.309 308.492 105.91 309.281C106.512 310.07 107.371 310.465 108.488 310.465ZM118.32 312H116.152V294H118.32V312ZM129.629 310.746C128.785 311.738 127.547 312.234 125.914 312.234C124.562 312.234 123.531 311.844 122.82 311.062C122.117 310.273 121.762 309.109 121.754 307.57V299.32H123.922V307.512C123.922 309.434 124.703 310.395 126.266 310.395C127.922 310.395 129.023 309.777 129.57 308.543V299.32H131.738V312H129.676L129.629 310.746ZM137.398 312H135.23V299.32H137.398V312ZM135.055 295.957C135.055 295.605 135.16 295.309 135.371 295.066C135.59 294.824 135.91 294.703 136.332 294.703C136.754 294.703 137.074 294.824 137.293 295.066C137.512 295.309 137.621 295.605 137.621 295.957C137.621 296.309 137.512 296.602 137.293 296.836C137.074 297.07 136.754 297.188 136.332 297.188C135.91 297.188 135.59 297.07 135.371 296.836C135.16 296.602 135.055 296.309 135.055 295.957ZM149.773 296.25V299.32H152.141V300.996H149.773V308.859C149.773 309.367 149.879 309.75 150.09 310.008C150.301 310.258 150.66 310.383 151.168 310.383C151.418 310.383 151.762 310.336 152.199 310.242V312C151.629 312.156 151.074 312.234 150.535 312.234C149.566 312.234 148.836 311.941 148.344 311.355C147.852 310.77 147.605 309.938 147.605 308.859V300.996H145.297V299.32H147.605V296.25H149.773ZM162.512 310.746C161.668 311.738 160.43 312.234 158.797 312.234C157.445 312.234 156.414 311.844 155.703 311.062C155 310.273 154.645 309.109 154.637 307.57V299.32H156.805V307.512C156.805 309.434 157.586 310.395 159.148 310.395C160.805 310.395 161.906 309.777 162.453 308.543V299.32H164.621V312H162.559L162.512 310.746ZM167.398 305.555C167.398 303.609 167.859 302.047 168.781 300.867C169.703 299.68 170.91 299.086 172.402 299.086C173.887 299.086 175.062 299.594 175.93 300.609V294H178.098V312H176.105L176 310.641C175.133 311.703 173.926 312.234 172.379 312.234C170.91 312.234 169.711 311.633 168.781 310.43C167.859 309.227 167.398 307.656 167.398 305.719V305.555ZM169.566 305.801C169.566 307.238 169.863 308.363 170.457 309.176C171.051 309.988 171.871 310.395 172.918 310.395C174.293 310.395 175.297 309.777 175.93 308.543V302.719C175.281 301.523 174.285 300.926 172.941 300.926C171.879 300.926 171.051 301.336 170.457 302.156C169.863 302.977 169.566 304.191 169.566 305.801ZM180.898 305.543C180.898 304.301 181.141 303.184 181.625 302.191C182.117 301.199 182.797 300.434 183.664 299.895C184.539 299.355 185.535 299.086 186.652 299.086C188.379 299.086 189.773 299.684 190.836 300.879C191.906 302.074 192.441 303.664 192.441 305.648V305.801C192.441 307.035 192.203 308.145 191.727 309.129C191.258 310.105 190.582 310.867 189.699 311.414C188.824 311.961 187.816 312.234 186.676 312.234C184.957 312.234 183.562 311.637 182.492 310.441C181.43 309.246 180.898 307.664 180.898 305.695V305.543ZM183.078 305.801C183.078 307.207 183.402 308.336 184.051 309.188C184.707 310.039 185.582 310.465 186.676 310.465C187.777 310.465 188.652 310.035 189.301 309.176C189.949 308.309 190.273 307.098 190.273 305.543C190.273 304.152 189.941 303.027 189.277 302.168C188.621 301.301 187.746 300.867 186.652 300.867C185.582 300.867 184.719 301.293 184.062 302.145C183.406 302.996 183.078 304.215 183.078 305.801ZM200.586 305.555C200.586 303.609 201.047 302.047 201.969 300.867C202.891 299.68 204.098 299.086 205.59 299.086C207.074 299.086 208.25 299.594 209.117 300.609V294H211.285V312H209.293L209.188 310.641C208.32 311.703 207.113 312.234 205.566 312.234C204.098 312.234 202.898 311.633 201.969 310.43C201.047 309.227 200.586 307.656 200.586 305.719V305.555ZM202.754 305.801C202.754 307.238 203.051 308.363 203.645 309.176C204.238 309.988 205.059 310.395 206.105 310.395C207.48 310.395 208.484 309.777 209.117 308.543V302.719C208.469 301.523 207.473 300.926 206.129 300.926C205.066 300.926 204.238 301.336 203.645 302.156C203.051 302.977 202.754 304.191 202.754 305.801ZM214.086 305.543C214.086 304.301 214.328 303.184 214.812 302.191C215.305 301.199 215.984 300.434 216.852 299.895C217.727 299.355 218.723 299.086 219.84 299.086C221.566 299.086 222.961 299.684 224.023 300.879C225.094 302.074 225.629 303.664 225.629 305.648V305.801C225.629 307.035 225.391 308.145 224.914 309.129C224.445 310.105 223.77 310.867 222.887 311.414C222.012 311.961 221.004 312.234 219.863 312.234C218.145 312.234 216.75 311.637 215.68 310.441C214.617 309.246 214.086 307.664 214.086 305.695V305.543ZM216.266 305.801C216.266 307.207 216.59 308.336 217.238 309.188C217.895 310.039 218.77 310.465 219.863 310.465C220.965 310.465 221.84 310.035 222.488 309.176C223.137 308.309 223.461 307.098 223.461 305.543C223.461 304.152 223.129 303.027 222.465 302.168C221.809 301.301 220.934 300.867 219.84 300.867C218.77 300.867 217.906 301.293 217.25 302.145C216.594 302.996 216.266 304.215 216.266 305.801ZM245.012 305.801C245.012 307.73 244.57 309.285 243.688 310.465C242.805 311.645 241.609 312.234 240.102 312.234C238.562 312.234 237.352 311.746 236.469 310.77V316.875H234.301V299.32H236.281L236.387 300.727C237.27 299.633 238.496 299.086 240.066 299.086C241.59 299.086 242.793 299.66 243.676 300.809C244.566 301.957 245.012 303.555 245.012 305.602V305.801ZM242.844 305.555C242.844 304.125 242.539 302.996 241.93 302.168C241.32 301.34 240.484 300.926 239.422 300.926C238.109 300.926 237.125 301.508 236.469 302.672V308.73C237.117 309.887 238.109 310.465 239.445 310.465C240.484 310.465 241.309 310.055 241.918 309.234C242.535 308.406 242.844 307.18 242.844 305.555ZM255.605 312C255.48 311.75 255.379 311.305 255.301 310.664C254.293 311.711 253.09 312.234 251.691 312.234C250.441 312.234 249.414 311.883 248.609 311.18C247.812 310.469 247.414 309.57 247.414 308.484C247.414 307.164 247.914 306.141 248.914 305.414C249.922 304.68 251.336 304.312 253.156 304.312H255.266V303.316C255.266 302.559 255.039 301.957 254.586 301.512C254.133 301.059 253.465 300.832 252.582 300.832C251.809 300.832 251.16 301.027 250.637 301.418C250.113 301.809 249.852 302.281 249.852 302.836H247.672C247.672 302.203 247.895 301.594 248.34 301.008C248.793 300.414 249.402 299.945 250.168 299.602C250.941 299.258 251.789 299.086 252.711 299.086C254.172 299.086 255.316 299.453 256.145 300.188C256.973 300.914 257.402 301.918 257.434 303.199V309.035C257.434 310.199 257.582 311.125 257.879 311.812V312H255.605ZM252.008 310.348C252.688 310.348 253.332 310.172 253.941 309.82C254.551 309.469 254.992 309.012 255.266 308.449V305.848H253.566C250.91 305.848 249.582 306.625 249.582 308.18C249.582 308.859 249.809 309.391 250.262 309.773C250.715 310.156 251.297 310.348 252.008 310.348ZM265.918 310.465C266.691 310.465 267.367 310.23 267.945 309.762C268.523 309.293 268.844 308.707 268.906 308.004H270.957C270.918 308.73 270.668 309.422 270.207 310.078C269.746 310.734 269.129 311.258 268.355 311.648C267.59 312.039 266.777 312.234 265.918 312.234C264.191 312.234 262.816 311.66 261.793 310.512C260.777 309.355 260.27 307.777 260.27 305.777V305.414C260.27 304.18 260.496 303.082 260.949 302.121C261.402 301.16 262.051 300.414 262.895 299.883C263.746 299.352 264.75 299.086 265.906 299.086C267.328 299.086 268.508 299.512 269.445 300.363C270.391 301.215 270.895 302.32 270.957 303.68H268.906C268.844 302.859 268.531 302.188 267.969 301.664C267.414 301.133 266.727 300.867 265.906 300.867C264.805 300.867 263.949 301.266 263.34 302.062C262.738 302.852 262.438 303.996 262.438 305.496V305.906C262.438 307.367 262.738 308.492 263.34 309.281C263.941 310.07 264.801 310.465 265.918 310.465ZM272.82 305.543C272.82 304.301 273.062 303.184 273.547 302.191C274.039 301.199 274.719 300.434 275.586 299.895C276.461 299.355 277.457 299.086 278.574 299.086C280.301 299.086 281.695 299.684 282.758 300.879C283.828 302.074 284.363 303.664 284.363 305.648V305.801C284.363 307.035 284.125 308.145 283.648 309.129C283.18 310.105 282.504 310.867 281.621 311.414C280.746 311.961 279.738 312.234 278.598 312.234C276.879 312.234 275.484 311.637 274.414 310.441C273.352 309.246 272.82 307.664 272.82 305.695V305.543ZM275 305.801C275 307.207 275.324 308.336 275.973 309.188C276.629 310.039 277.504 310.465 278.598 310.465C279.699 310.465 280.574 310.035 281.223 309.176C281.871 308.309 282.195 307.098 282.195 305.543C282.195 304.152 281.863 303.027 281.199 302.168C280.543 301.301 279.668 300.867 278.574 300.867C277.504 300.867 276.641 301.293 275.984 302.145C275.328 302.996 275 304.215 275 305.801ZM290.023 296.25V299.32H292.391V300.996H290.023V308.859C290.023 309.367 290.129 309.75 290.34 310.008C290.551 310.258 290.91 310.383 291.418 310.383C291.668 310.383 292.012 310.336 292.449 310.242V312C291.879 312.156 291.324 312.234 290.785 312.234C289.816 312.234 289.086 311.941 288.594 311.355C288.102 310.77 287.855 309.938 287.855 308.859V300.996H285.547V299.32H287.855V296.25H290.023ZM300.195 312.234C298.477 312.234 297.078 311.672 296 310.547C294.922 309.414 294.383 307.902 294.383 306.012V305.613C294.383 304.355 294.621 303.234 295.098 302.25C295.582 301.258 296.254 300.484 297.113 299.93C297.98 299.367 298.918 299.086 299.926 299.086C301.574 299.086 302.855 299.629 303.77 300.715C304.684 301.801 305.141 303.355 305.141 305.379V306.281H296.551C296.582 307.531 296.945 308.543 297.641 309.316C298.344 310.082 299.234 310.465 300.312 310.465C301.078 310.465 301.727 310.309 302.258 309.996C302.789 309.684 303.254 309.27 303.652 308.754L304.977 309.785C303.914 311.418 302.32 312.234 300.195 312.234ZM299.926 300.867C299.051 300.867 298.316 301.188 297.723 301.828C297.129 302.461 296.762 303.352 296.621 304.5H302.973V304.336C302.91 303.234 302.613 302.383 302.082 301.781C301.551 301.172 300.832 300.867 299.926 300.867ZM159.746 340V322.938H165.324C167.176 322.938 168.566 323.32 169.496 324.086C170.434 324.852 170.902 325.984 170.902 327.484C170.902 328.281 170.676 328.988 170.223 329.605C169.77 330.215 169.152 330.688 168.371 331.023C169.293 331.281 170.02 331.773 170.551 332.5C171.09 333.219 171.359 334.078 171.359 335.078C171.359 336.609 170.863 337.812 169.871 338.688C168.879 339.562 167.477 340 165.664 340H159.746ZM161.996 332.02V338.16H165.711C166.758 338.16 167.582 337.891 168.184 337.352C168.793 336.805 169.098 336.055 169.098 335.102C169.098 333.047 167.98 332.02 165.746 332.02H161.996ZM161.996 330.215H165.395C166.379 330.215 167.164 329.969 167.75 329.477C168.344 328.984 168.641 328.316 168.641 327.473C168.641 326.535 168.367 325.855 167.82 325.434C167.273 325.004 166.441 324.789 165.324 324.789H161.996V330.215ZM182.188 340C182.062 339.75 181.961 339.305 181.883 338.664C180.875 339.711 179.672 340.234 178.273 340.234C177.023 340.234 175.996 339.883 175.191 339.18C174.395 338.469 173.996 337.57 173.996 336.484C173.996 335.164 174.496 334.141 175.496 333.414C176.504 332.68 177.918 332.312 179.738 332.312H181.848V331.316C181.848 330.559 181.621 329.957 181.168 329.512C180.715 329.059 180.047 328.832 179.164 328.832C178.391 328.832 177.742 329.027 177.219 329.418C176.695 329.809 176.434 330.281 176.434 330.836H174.254C174.254 330.203 174.477 329.594 174.922 329.008C175.375 328.414 175.984 327.945 176.75 327.602C177.523 327.258 178.371 327.086 179.293 327.086C180.754 327.086 181.898 327.453 182.727 328.188C183.555 328.914 183.984 329.918 184.016 331.199V337.035C184.016 338.199 184.164 339.125 184.461 339.812V340H182.188ZM178.59 338.348C179.27 338.348 179.914 338.172 180.523 337.82C181.133 337.469 181.574 337.012 181.848 336.449V333.848H180.148C177.492 333.848 176.164 334.625 176.164 336.18C176.164 336.859 176.391 337.391 176.844 337.773C177.297 338.156 177.879 338.348 178.59 338.348ZM180.594 322H183.219L180.078 325.445H178.332L180.594 322ZM194.797 336.637C194.797 336.051 194.574 335.598 194.129 335.277C193.691 334.949 192.922 334.668 191.82 334.434C190.727 334.199 189.855 333.918 189.207 333.59C188.566 333.262 188.09 332.871 187.777 332.418C187.473 331.965 187.32 331.426 187.32 330.801C187.32 329.762 187.758 328.883 188.633 328.164C189.516 327.445 190.641 327.086 192.008 327.086C193.445 327.086 194.609 327.457 195.5 328.199C196.398 328.941 196.848 329.891 196.848 331.047H194.668C194.668 330.453 194.414 329.941 193.906 329.512C193.406 329.082 192.773 328.867 192.008 328.867C191.219 328.867 190.602 329.039 190.156 329.383C189.711 329.727 189.488 330.176 189.488 330.73C189.488 331.254 189.695 331.648 190.109 331.914C190.523 332.18 191.27 332.434 192.348 332.676C193.434 332.918 194.312 333.207 194.984 333.543C195.656 333.879 196.152 334.285 196.473 334.762C196.801 335.23 196.965 335.805 196.965 336.484C196.965 337.617 196.512 338.527 195.605 339.215C194.699 339.895 193.523 340.234 192.078 340.234C191.062 340.234 190.164 340.055 189.383 339.695C188.602 339.336 187.988 338.836 187.543 338.195C187.105 337.547 186.887 336.848 186.887 336.098H189.055C189.094 336.824 189.383 337.402 189.922 337.832C190.469 338.254 191.188 338.465 192.078 338.465C192.898 338.465 193.555 338.301 194.047 337.973C194.547 337.637 194.797 337.191 194.797 336.637ZM202.145 340H199.977V327.32H202.145V340ZM199.801 323.957C199.801 323.605 199.906 323.309 200.117 323.066C200.336 322.824 200.656 322.703 201.078 322.703C201.5 322.703 201.82 322.824 202.039 323.066C202.258 323.309 202.367 323.605 202.367 323.957C202.367 324.309 202.258 324.602 202.039 324.836C201.82 325.07 201.5 325.188 201.078 325.188C200.656 325.188 200.336 325.07 200.117 324.836C199.906 324.602 199.801 324.309 199.801 323.957ZM210.711 338.465C211.484 338.465 212.16 338.23 212.738 337.762C213.316 337.293 213.637 336.707 213.699 336.004H215.75C215.711 336.73 215.461 337.422 215 338.078C214.539 338.734 213.922 339.258 213.148 339.648C212.383 340.039 211.57 340.234 210.711 340.234C208.984 340.234 207.609 339.66 206.586 338.512C205.57 337.355 205.062 335.777 205.062 333.777V333.414C205.062 332.18 205.289 331.082 205.742 330.121C206.195 329.16 206.844 328.414 207.688 327.883C208.539 327.352 209.543 327.086 210.699 327.086C212.121 327.086 213.301 327.512 214.238 328.363C215.184 329.215 215.688 330.32 215.75 331.68H213.699C213.637 330.859 213.324 330.188 212.762 329.664C212.207 329.133 211.52 328.867 210.699 328.867C209.598 328.867 208.742 329.266 208.133 330.062C207.531 330.852 207.23 331.996 207.23 333.496V333.906C207.23 335.367 207.531 336.492 208.133 337.281C208.734 338.07 209.594 338.465 210.711 338.465ZM217.613 333.543C217.613 332.301 217.855 331.184 218.34 330.191C218.832 329.199 219.512 328.434 220.379 327.895C221.254 327.355 222.25 327.086 223.367 327.086C225.094 327.086 226.488 327.684 227.551 328.879C228.621 330.074 229.156 331.664 229.156 333.648V333.801C229.156 335.035 228.918 336.145 228.441 337.129C227.973 338.105 227.297 338.867 226.414 339.414C225.539 339.961 224.531 340.234 223.391 340.234C221.672 340.234 220.277 339.637 219.207 338.441C218.145 337.246 217.613 335.664 217.613 333.695V333.543ZM219.793 333.801C219.793 335.207 220.117 336.336 220.766 337.188C221.422 338.039 222.297 338.465 223.391 338.465C224.492 338.465 225.367 338.035 226.016 337.176C226.664 336.309 226.988 335.098 226.988 333.543C226.988 332.152 226.656 331.027 225.992 330.168C225.336 329.301 224.461 328.867 223.367 328.867C222.297 328.867 221.434 329.293 220.777 330.145C220.121 330.996 219.793 332.215 219.793 333.801Z" fill="white"/>
<path d="M94.2305 401.32V408H91.9805V390.938H98.2734C100.141 390.938 101.602 391.414 102.656 392.367C103.719 393.32 104.25 394.582 104.25 396.152C104.25 397.809 103.73 399.086 102.691 399.984C101.66 400.875 100.18 401.32 98.25 401.32H94.2305ZM94.2305 399.48H98.2734C99.4766 399.48 100.398 399.199 101.039 398.637C101.68 398.066 102 397.246 102 396.176C102 395.16 101.68 394.348 101.039 393.738C100.398 393.129 99.5195 392.812 98.4023 392.789H94.2305V399.48ZM114.469 408C114.344 407.75 114.242 407.305 114.164 406.664C113.156 407.711 111.953 408.234 110.555 408.234C109.305 408.234 108.277 407.883 107.473 407.18C106.676 406.469 106.277 405.57 106.277 404.484C106.277 403.164 106.777 402.141 107.777 401.414C108.785 400.68 110.199 400.312 112.02 400.312H114.129V399.316C114.129 398.559 113.902 397.957 113.449 397.512C112.996 397.059 112.328 396.832 111.445 396.832C110.672 396.832 110.023 397.027 109.5 397.418C108.977 397.809 108.715 398.281 108.715 398.836H106.535C106.535 398.203 106.758 397.594 107.203 397.008C107.656 396.414 108.266 395.945 109.031 395.602C109.805 395.258 110.652 395.086 111.574 395.086C113.035 395.086 114.18 395.453 115.008 396.188C115.836 396.914 116.266 397.918 116.297 399.199V405.035C116.297 406.199 116.445 407.125 116.742 407.812V408H114.469ZM110.871 406.348C111.551 406.348 112.195 406.172 112.805 405.82C113.414 405.469 113.855 405.012 114.129 404.449V401.848H112.43C109.773 401.848 108.445 402.625 108.445 404.18C108.445 404.859 108.672 405.391 109.125 405.773C109.578 406.156 110.16 406.348 110.871 406.348ZM112.875 390H115.5L112.359 393.445H110.613L112.875 390ZM119.18 401.555C119.18 399.578 119.637 398.008 120.551 396.844C121.465 395.672 122.676 395.086 124.184 395.086C125.73 395.086 126.938 395.633 127.805 396.727L127.91 395.32H129.891V407.695C129.891 409.336 129.402 410.629 128.426 411.574C127.457 412.52 126.152 412.992 124.512 412.992C123.598 412.992 122.703 412.797 121.828 412.406C120.953 412.016 120.285 411.48 119.824 410.801L120.949 409.5C121.879 410.648 123.016 411.223 124.359 411.223C125.414 411.223 126.234 410.926 126.82 410.332C127.414 409.738 127.711 408.902 127.711 407.824V406.734C126.844 407.734 125.66 408.234 124.16 408.234C122.676 408.234 121.473 407.637 120.551 406.441C119.637 405.246 119.18 403.617 119.18 401.555ZM121.359 401.801C121.359 403.23 121.652 404.355 122.238 405.176C122.824 405.988 123.645 406.395 124.699 406.395C126.066 406.395 127.07 405.773 127.711 404.531V398.742C127.047 397.531 126.051 396.926 124.723 396.926C123.668 396.926 122.844 397.336 122.25 398.156C121.656 398.977 121.359 400.191 121.359 401.801ZM135.527 408H133.359V395.32H135.527V408ZM133.184 391.957C133.184 391.605 133.289 391.309 133.5 391.066C133.719 390.824 134.039 390.703 134.461 390.703C134.883 390.703 135.203 390.824 135.422 391.066C135.641 391.309 135.75 391.605 135.75 391.957C135.75 392.309 135.641 392.602 135.422 392.836C135.203 393.07 134.883 393.188 134.461 393.188C134.039 393.188 133.719 393.07 133.5 392.836C133.289 392.602 133.184 392.309 133.184 391.957ZM141.059 395.32L141.129 396.914C142.098 395.695 143.363 395.086 144.926 395.086C147.605 395.086 148.957 396.598 148.98 399.621V408H146.812V399.609C146.805 398.695 146.594 398.02 146.18 397.582C145.773 397.145 145.137 396.926 144.27 396.926C143.566 396.926 142.949 397.113 142.418 397.488C141.887 397.863 141.473 398.355 141.176 398.965V408H139.008V395.32H141.059ZM160.078 408C159.953 407.75 159.852 407.305 159.773 406.664C158.766 407.711 157.562 408.234 156.164 408.234C154.914 408.234 153.887 407.883 153.082 407.18C152.285 406.469 151.887 405.57 151.887 404.484C151.887 403.164 152.387 402.141 153.387 401.414C154.395 400.68 155.809 400.312 157.629 400.312H159.738V399.316C159.738 398.559 159.512 397.957 159.059 397.512C158.605 397.059 157.938 396.832 157.055 396.832C156.281 396.832 155.633 397.027 155.109 397.418C154.586 397.809 154.324 398.281 154.324 398.836H152.145C152.145 398.203 152.367 397.594 152.812 397.008C153.266 396.414 153.875 395.945 154.641 395.602C155.414 395.258 156.262 395.086 157.184 395.086C158.645 395.086 159.789 395.453 160.617 396.188C161.445 396.914 161.875 397.918 161.906 399.199V405.035C161.906 406.199 162.055 407.125 162.352 407.812V408H160.078ZM156.48 406.348C157.16 406.348 157.805 406.172 158.414 405.82C159.023 405.469 159.465 405.012 159.738 404.449V401.848H158.039C155.383 401.848 154.055 402.625 154.055 404.18C154.055 404.859 154.281 405.391 154.734 405.773C155.188 406.156 155.77 406.348 156.48 406.348ZM170.73 401.555C170.73 399.609 171.191 398.047 172.113 396.867C173.035 395.68 174.242 395.086 175.734 395.086C177.219 395.086 178.395 395.594 179.262 396.609V390H181.43V408H179.438L179.332 406.641C178.465 407.703 177.258 408.234 175.711 408.234C174.242 408.234 173.043 407.633 172.113 406.43C171.191 405.227 170.73 403.656 170.73 401.719V401.555ZM172.898 401.801C172.898 403.238 173.195 404.363 173.789 405.176C174.383 405.988 175.203 406.395 176.25 406.395C177.625 406.395 178.629 405.777 179.262 404.543V398.719C178.613 397.523 177.617 396.926 176.273 396.926C175.211 396.926 174.383 397.336 173.789 398.156C173.195 398.977 172.898 400.191 172.898 401.801ZM190.066 408.234C188.348 408.234 186.949 407.672 185.871 406.547C184.793 405.414 184.254 403.902 184.254 402.012V401.613C184.254 400.355 184.492 399.234 184.969 398.25C185.453 397.258 186.125 396.484 186.984 395.93C187.852 395.367 188.789 395.086 189.797 395.086C191.445 395.086 192.727 395.629 193.641 396.715C194.555 397.801 195.012 399.355 195.012 401.379V402.281H186.422C186.453 403.531 186.816 404.543 187.512 405.316C188.215 406.082 189.105 406.465 190.184 406.465C190.949 406.465 191.598 406.309 192.129 405.996C192.66 405.684 193.125 405.27 193.523 404.754L194.848 405.785C193.785 407.418 192.191 408.234 190.066 408.234ZM189.797 396.867C188.922 396.867 188.188 397.188 187.594 397.828C187 398.461 186.633 399.352 186.492 400.5H192.844V400.336C192.781 399.234 192.484 398.383 191.953 397.781C191.422 397.172 190.703 396.867 189.797 396.867ZM206.074 401.32V408H203.824V390.938H210.117C211.984 390.938 213.445 391.414 214.5 392.367C215.562 393.32 216.094 394.582 216.094 396.152C216.094 397.809 215.574 399.086 214.535 399.984C213.504 400.875 212.023 401.32 210.094 401.32H206.074ZM206.074 399.48H210.117C211.32 399.48 212.242 399.199 212.883 398.637C213.523 398.066 213.844 397.246 213.844 396.176C213.844 395.16 213.523 394.348 212.883 393.738C212.242 393.129 211.363 392.812 210.246 392.789H206.074V399.48ZM224.754 397.266C224.426 397.211 224.07 397.184 223.688 397.184C222.266 397.184 221.301 397.789 220.793 399V408H218.625V395.32H220.734L220.77 396.785C221.48 395.652 222.488 395.086 223.793 395.086C224.215 395.086 224.535 395.141 224.754 395.25V397.266ZM225.949 401.543C225.949 400.301 226.191 399.184 226.676 398.191C227.168 397.199 227.848 396.434 228.715 395.895C229.59 395.355 230.586 395.086 231.703 395.086C233.43 395.086 234.824 395.684 235.887 396.879C236.957 398.074 237.492 399.664 237.492 401.648V401.801C237.492 403.035 237.254 404.145 236.777 405.129C236.309 406.105 235.633 406.867 234.75 407.414C233.875 407.961 232.867 408.234 231.727 408.234C230.008 408.234 228.613 407.637 227.543 406.441C226.48 405.246 225.949 403.664 225.949 401.695V401.543ZM228.129 401.801C228.129 403.207 228.453 404.336 229.102 405.188C229.758 406.039 230.633 406.465 231.727 406.465C232.828 406.465 233.703 406.035 234.352 405.176C235 404.309 235.324 403.098 235.324 401.543C235.324 400.152 234.992 399.027 234.328 398.168C233.672 397.301 232.797 396.867 231.703 396.867C230.633 396.867 229.77 397.293 229.113 398.145C228.457 398.996 228.129 400.215 228.129 401.801ZM239.684 401.555C239.684 399.609 240.145 398.047 241.066 396.867C241.988 395.68 243.195 395.086 244.688 395.086C246.172 395.086 247.348 395.594 248.215 396.609V390H250.383V408H248.391L248.285 406.641C247.418 407.703 246.211 408.234 244.664 408.234C243.195 408.234 241.996 407.633 241.066 406.43C240.145 405.227 239.684 403.656 239.684 401.719V401.555ZM241.852 401.801C241.852 403.238 242.148 404.363 242.742 405.176C243.336 405.988 244.156 406.395 245.203 406.395C246.578 406.395 247.582 405.777 248.215 404.543V398.719C247.566 397.523 246.57 396.926 245.227 396.926C244.164 396.926 243.336 397.336 242.742 398.156C242.148 398.977 241.852 400.191 241.852 401.801ZM261.586 406.746C260.742 407.738 259.504 408.234 257.871 408.234C256.52 408.234 255.488 407.844 254.777 407.062C254.074 406.273 253.719 405.109 253.711 403.57V395.32H255.879V403.512C255.879 405.434 256.66 406.395 258.223 406.395C259.879 406.395 260.98 405.777 261.527 404.543V395.32H263.695V408H261.633L261.586 406.746ZM269.941 392.25V395.32H272.309V396.996H269.941V404.859C269.941 405.367 270.047 405.75 270.258 406.008C270.469 406.258 270.828 406.383 271.336 406.383C271.586 406.383 271.93 406.336 272.367 406.242V408C271.797 408.156 271.242 408.234 270.703 408.234C269.734 408.234 269.004 407.941 268.512 407.355C268.02 406.77 267.773 405.938 267.773 404.859V396.996H265.465V395.32H267.773V392.25H269.941ZM274.043 401.543C274.043 400.301 274.285 399.184 274.77 398.191C275.262 397.199 275.941 396.434 276.809 395.895C277.684 395.355 278.68 395.086 279.797 395.086C281.523 395.086 282.918 395.684 283.98 396.879C285.051 398.074 285.586 399.664 285.586 401.648V401.801C285.586 403.035 285.348 404.145 284.871 405.129C284.402 406.105 283.727 406.867 282.844 407.414C281.969 407.961 280.961 408.234 279.82 408.234C278.102 408.234 276.707 407.637 275.637 406.441C274.574 405.246 274.043 403.664 274.043 401.695V401.543ZM276.223 401.801C276.223 403.207 276.547 404.336 277.195 405.188C277.852 406.039 278.727 406.465 279.82 406.465C280.922 406.465 281.797 406.035 282.445 405.176C283.094 404.309 283.418 403.098 283.418 401.543C283.418 400.152 283.086 399.027 282.422 398.168C281.766 397.301 280.891 396.867 279.797 396.867C278.727 396.867 277.863 397.293 277.207 398.145C276.551 398.996 276.223 400.215 276.223 401.801ZM295.688 404.637C295.688 404.051 295.465 403.598 295.02 403.277C294.582 402.949 293.812 402.668 292.711 402.434C291.617 402.199 290.746 401.918 290.098 401.59C289.457 401.262 288.98 400.871 288.668 400.418C288.363 399.965 288.211 399.426 288.211 398.801C288.211 397.762 288.648 396.883 289.523 396.164C290.406 395.445 291.531 395.086 292.898 395.086C294.336 395.086 295.5 395.457 296.391 396.199C297.289 396.941 297.738 397.891 297.738 399.047H295.559C295.559 398.453 295.305 397.941 294.797 397.512C294.297 397.082 293.664 396.867 292.898 396.867C292.109 396.867 291.492 397.039 291.047 397.383C290.602 397.727 290.379 398.176 290.379 398.73C290.379 399.254 290.586 399.648 291 399.914C291.414 400.18 292.16 400.434 293.238 400.676C294.324 400.918 295.203 401.207 295.875 401.543C296.547 401.879 297.043 402.285 297.363 402.762C297.691 403.23 297.855 403.805 297.855 404.484C297.855 405.617 297.402 406.527 296.496 407.215C295.59 407.895 294.414 408.234 292.969 408.234C291.953 408.234 291.055 408.055 290.273 407.695C289.492 407.336 288.879 406.836 288.434 406.195C287.996 405.547 287.777 404.848 287.777 404.098H289.945C289.984 404.824 290.273 405.402 290.812 405.832C291.359 406.254 292.078 406.465 292.969 406.465C293.789 406.465 294.445 406.301 294.938 405.973C295.438 405.637 295.688 405.191 295.688 404.637Z" fill="white"/>
<path d="M97.9683 481.586C97.7573 483.391 97.0894 484.785 95.9644 485.77C94.8472 486.746 93.3589 487.234 91.4995 487.234C89.4839 487.234 87.8667 486.512 86.6479 485.066C85.437 483.621 84.8315 481.688 84.8315 479.266V477.625C84.8315 476.039 85.1128 474.645 85.6753 473.441C86.2456 472.238 87.0503 471.316 88.0894 470.676C89.1284 470.027 90.3315 469.703 91.6987 469.703C93.5112 469.703 94.9644 470.211 96.0581 471.227C97.1519 472.234 97.7886 473.633 97.9683 475.422H95.7065C95.5112 474.062 95.0854 473.078 94.4292 472.469C93.7808 471.859 92.8706 471.555 91.6987 471.555C90.2612 471.555 89.1323 472.086 88.312 473.148C87.4995 474.211 87.0933 475.723 87.0933 477.684V479.336C87.0933 481.188 87.48 482.66 88.2534 483.754C89.0269 484.848 90.1089 485.395 91.4995 485.395C92.7495 485.395 93.7065 485.113 94.3706 484.551C95.0425 483.98 95.4878 482.992 95.7065 481.586H97.9683ZM108.539 487C108.414 486.75 108.312 486.305 108.234 485.664C107.226 486.711 106.023 487.234 104.625 487.234C103.375 487.234 102.347 486.883 101.542 486.18C100.746 485.469 100.347 484.57 100.347 483.484C100.347 482.164 100.847 481.141 101.847 480.414C102.855 479.68 104.269 479.312 106.089 479.312H108.199V478.316C108.199 477.559 107.972 476.957 107.519 476.512C107.066 476.059 106.398 475.832 105.515 475.832C104.742 475.832 104.093 476.027 103.57 476.418C103.046 476.809 102.785 477.281 102.785 477.836H100.605C100.605 477.203 100.828 476.594 101.273 476.008C101.726 475.414 102.335 474.945 103.101 474.602C103.875 474.258 104.722 474.086 105.644 474.086C107.105 474.086 108.25 474.453 109.078 475.188C109.906 475.914 110.335 476.918 110.367 478.199V484.035C110.367 485.199 110.515 486.125 110.812 486.812V487H108.539ZM104.941 485.348C105.621 485.348 106.265 485.172 106.875 484.82C107.484 484.469 107.925 484.012 108.199 483.449V480.848H106.5C103.843 480.848 102.515 481.625 102.515 483.18C102.515 483.859 102.742 484.391 103.195 484.773C103.648 485.156 104.23 485.348 104.941 485.348ZM119.894 476.266C119.566 476.211 119.21 476.184 118.828 476.184C117.406 476.184 116.441 476.789 115.933 478V487H113.765V474.32H115.875L115.91 475.785C116.621 474.652 117.628 474.086 118.933 474.086C119.355 474.086 119.675 474.141 119.894 474.25V476.266ZM128.027 476.266C127.699 476.211 127.343 476.184 126.96 476.184C125.539 476.184 124.574 476.789 124.066 478V487H121.898V474.32H124.007L124.042 475.785C124.753 474.652 125.761 474.086 127.066 474.086C127.488 474.086 127.808 474.141 128.027 474.25V476.266ZM132.386 487H130.218V474.32H132.386V487ZM130.042 470.957C130.042 470.605 130.148 470.309 130.359 470.066C130.578 469.824 130.898 469.703 131.32 469.703C131.742 469.703 132.062 469.824 132.281 470.066C132.5 470.309 132.609 470.605 132.609 470.957C132.609 471.309 132.5 471.602 132.281 471.836C132.062 472.07 131.742 472.188 131.32 472.188C130.898 472.188 130.578 472.07 130.359 471.836C130.148 471.602 130.042 471.309 130.042 470.957ZM137.917 474.32L137.988 475.914C138.957 474.695 140.222 474.086 141.785 474.086C144.464 474.086 145.816 475.598 145.839 478.621V487H143.671V478.609C143.664 477.695 143.453 477.02 143.039 476.582C142.632 476.145 141.996 475.926 141.128 475.926C140.425 475.926 139.808 476.113 139.277 476.488C138.746 476.863 138.332 477.355 138.035 477.965V487H135.867V474.32H137.917ZM151.277 475.855C152.238 474.676 153.488 474.086 155.027 474.086C157.707 474.086 159.058 475.598 159.082 478.621V487H156.914V478.609C156.906 477.695 156.695 477.02 156.281 476.582C155.875 476.145 155.238 475.926 154.371 475.926C153.667 475.926 153.05 476.113 152.519 476.488C151.988 476.863 151.574 477.355 151.277 477.965V487H149.109V469H151.277V475.855ZM161.753 480.543C161.753 479.301 161.996 478.184 162.48 477.191C162.972 476.199 163.652 475.434 164.519 474.895C165.394 474.355 166.39 474.086 167.507 474.086C169.234 474.086 170.628 474.684 171.691 475.879C172.761 477.074 173.296 478.664 173.296 480.648V480.801C173.296 482.035 173.058 483.145 172.582 484.129C172.113 485.105 171.437 485.867 170.554 486.414C169.679 486.961 168.671 487.234 167.531 487.234C165.812 487.234 164.417 486.637 163.347 485.441C162.285 484.246 161.753 482.664 161.753 480.695V480.543ZM163.933 480.801C163.933 482.207 164.257 483.336 164.906 484.188C165.562 485.039 166.437 485.465 167.531 485.465C168.632 485.465 169.507 485.035 170.156 484.176C170.804 483.309 171.128 482.098 171.128 480.543C171.128 479.152 170.796 478.027 170.132 477.168C169.476 476.301 168.601 475.867 167.507 475.867C166.437 475.867 165.574 476.293 164.917 477.145C164.261 477.996 163.933 479.215 163.933 480.801ZM181.441 480.555C181.441 478.609 181.902 477.047 182.824 475.867C183.746 474.68 184.953 474.086 186.445 474.086C187.929 474.086 189.105 474.594 189.972 475.609V469H192.14V487H190.148L190.042 485.641C189.175 486.703 187.968 487.234 186.421 487.234C184.953 487.234 183.753 486.633 182.824 485.43C181.902 484.227 181.441 482.656 181.441 480.719V480.555ZM183.609 480.801C183.609 482.238 183.906 483.363 184.5 484.176C185.093 484.988 185.914 485.395 186.96 485.395C188.335 485.395 189.339 484.777 189.972 483.543V477.719C189.324 476.523 188.328 475.926 186.984 475.926C185.921 475.926 185.093 476.336 184.5 477.156C183.906 477.977 183.609 479.191 183.609 480.801ZM200.777 487.234C199.058 487.234 197.66 486.672 196.582 485.547C195.503 484.414 194.964 482.902 194.964 481.012V480.613C194.964 479.355 195.203 478.234 195.679 477.25C196.164 476.258 196.835 475.484 197.695 474.93C198.562 474.367 199.5 474.086 200.507 474.086C202.156 474.086 203.437 474.629 204.351 475.715C205.265 476.801 205.722 478.355 205.722 480.379V481.281H197.132C197.164 482.531 197.527 483.543 198.222 484.316C198.925 485.082 199.816 485.465 200.894 485.465C201.66 485.465 202.308 485.309 202.839 484.996C203.371 484.684 203.835 484.27 204.234 483.754L205.558 484.785C204.496 486.418 202.902 487.234 200.777 487.234ZM200.507 475.867C199.632 475.867 198.898 476.188 198.304 476.828C197.71 477.461 197.343 478.352 197.203 479.5H203.554V479.336C203.492 478.234 203.195 477.383 202.664 476.781C202.132 476.172 201.414 475.867 200.507 475.867ZM219.281 485.465C220.054 485.465 220.73 485.23 221.308 484.762C221.886 484.293 222.207 483.707 222.269 483.004H224.32C224.281 483.73 224.031 484.422 223.57 485.078C223.109 485.734 222.492 486.258 221.718 486.648C220.953 487.039 220.14 487.234 219.281 487.234C217.554 487.234 216.179 486.66 215.156 485.512C214.14 484.355 213.632 482.777 213.632 480.777V480.414C213.632 479.18 213.859 478.082 214.312 477.121C214.765 476.16 215.414 475.414 216.257 474.883C217.109 474.352 218.113 474.086 219.269 474.086C220.691 474.086 221.871 474.512 222.808 475.363C223.753 476.215 224.257 477.32 224.32 478.68H222.269C222.207 477.859 221.894 477.188 221.332 476.664C220.777 476.133 220.089 475.867 219.269 475.867C218.167 475.867 217.312 476.266 216.703 477.062C216.101 477.852 215.8 478.996 215.8 480.496V480.906C215.8 482.367 216.101 483.492 216.703 484.281C217.304 485.07 218.164 485.465 219.281 485.465ZM226.183 480.543C226.183 479.301 226.425 478.184 226.91 477.191C227.402 476.199 228.082 475.434 228.949 474.895C229.824 474.355 230.82 474.086 231.937 474.086C233.664 474.086 235.058 474.684 236.121 475.879C237.191 477.074 237.726 478.664 237.726 480.648V480.801C237.726 482.035 237.488 483.145 237.011 484.129C236.542 485.105 235.867 485.867 234.984 486.414C234.109 486.961 233.101 487.234 231.96 487.234C230.242 487.234 228.847 486.637 227.777 485.441C226.714 484.246 226.183 482.664 226.183 480.695V480.543ZM228.363 480.801C228.363 482.207 228.687 483.336 229.335 484.188C229.992 485.039 230.867 485.465 231.96 485.465C233.062 485.465 233.937 485.035 234.585 484.176C235.234 483.309 235.558 482.098 235.558 480.543C235.558 479.152 235.226 478.027 234.562 477.168C233.906 476.301 233.031 475.867 231.937 475.867C230.867 475.867 230.003 476.293 229.347 477.145C228.691 477.996 228.363 479.215 228.363 480.801ZM242.484 474.32L242.542 475.727C243.472 474.633 244.726 474.086 246.304 474.086C248.078 474.086 249.285 474.766 249.925 476.125C250.347 475.516 250.894 475.023 251.566 474.648C252.246 474.273 253.046 474.086 253.968 474.086C256.75 474.086 258.164 475.559 258.21 478.504V487H256.042V478.633C256.042 477.727 255.835 477.051 255.421 476.605C255.007 476.152 254.312 475.926 253.335 475.926C252.531 475.926 251.863 476.168 251.332 476.652C250.8 477.129 250.492 477.773 250.406 478.586V487H248.226V478.691C248.226 476.848 247.324 475.926 245.519 475.926C244.097 475.926 243.125 476.531 242.601 477.742V487H240.433V474.32H242.484ZM272.203 480.801C272.203 482.73 271.761 484.285 270.878 485.465C269.996 486.645 268.8 487.234 267.292 487.234C265.753 487.234 264.542 486.746 263.66 485.77V491.875H261.492V474.32H263.472L263.578 475.727C264.46 474.633 265.687 474.086 267.257 474.086C268.781 474.086 269.984 474.66 270.867 475.809C271.757 476.957 272.203 478.555 272.203 480.602V480.801ZM270.035 480.555C270.035 479.125 269.73 477.996 269.121 477.168C268.511 476.34 267.675 475.926 266.613 475.926C265.3 475.926 264.316 476.508 263.66 477.672V483.73C264.308 484.887 265.3 485.465 266.636 485.465C267.675 485.465 268.5 485.055 269.109 484.234C269.726 483.406 270.035 482.18 270.035 480.555ZM281.097 476.266C280.769 476.211 280.414 476.184 280.031 476.184C278.609 476.184 277.644 476.789 277.136 478V487H274.968V474.32H277.078L277.113 475.785C277.824 474.652 278.832 474.086 280.136 474.086C280.558 474.086 280.878 474.141 281.097 474.25V476.266ZM290.46 487C290.335 486.75 290.234 486.305 290.156 485.664C289.148 486.711 287.945 487.234 286.546 487.234C285.296 487.234 284.269 486.883 283.464 486.18C282.667 485.469 282.269 484.57 282.269 483.484C282.269 482.164 282.769 481.141 283.769 480.414C284.777 479.68 286.191 479.312 288.011 479.312H290.121V478.316C290.121 477.559 289.894 476.957 289.441 476.512C288.988 476.059 288.32 475.832 287.437 475.832C286.664 475.832 286.015 476.027 285.492 476.418C284.968 476.809 284.707 477.281 284.707 477.836H282.527C282.527 477.203 282.75 476.594 283.195 476.008C283.648 475.414 284.257 474.945 285.023 474.602C285.796 474.258 286.644 474.086 287.566 474.086C289.027 474.086 290.171 474.453 291 475.188C291.828 475.914 292.257 476.918 292.289 478.199V484.035C292.289 485.199 292.437 486.125 292.734 486.812V487H290.46ZM286.863 485.348C287.542 485.348 288.187 485.172 288.796 484.82C289.406 484.469 289.847 484.012 290.121 483.449V480.848H288.421C285.765 480.848 284.437 481.625 284.437 483.18C284.437 483.859 284.664 484.391 285.117 484.773C285.57 485.156 286.152 485.348 286.863 485.348ZM303.07 483.637C303.07 483.051 302.847 482.598 302.402 482.277C301.964 481.949 301.195 481.668 300.093 481.434C299 481.199 298.128 480.918 297.48 480.59C296.839 480.262 296.363 479.871 296.05 479.418C295.746 478.965 295.593 478.426 295.593 477.801C295.593 476.762 296.031 475.883 296.906 475.164C297.789 474.445 298.914 474.086 300.281 474.086C301.718 474.086 302.882 474.457 303.773 475.199C304.671 475.941 305.121 476.891 305.121 478.047H302.941C302.941 477.453 302.687 476.941 302.179 476.512C301.679 476.082 301.046 475.867 300.281 475.867C299.492 475.867 298.875 476.039 298.429 476.383C297.984 476.727 297.761 477.176 297.761 477.73C297.761 478.254 297.968 478.648 298.382 478.914C298.796 479.18 299.542 479.434 300.621 479.676C301.707 479.918 302.585 480.207 303.257 480.543C303.929 480.879 304.425 481.285 304.746 481.762C305.074 482.23 305.238 482.805 305.238 483.484C305.238 484.617 304.785 485.527 303.878 486.215C302.972 486.895 301.796 487.234 300.351 487.234C299.335 487.234 298.437 487.055 297.656 486.695C296.875 486.336 296.261 485.836 295.816 485.195C295.378 484.547 295.16 483.848 295.16 483.098H297.328C297.367 483.824 297.656 484.402 298.195 484.832C298.742 485.254 299.46 485.465 300.351 485.465C301.171 485.465 301.828 485.301 302.32 484.973C302.82 484.637 303.07 484.191 303.07 483.637Z" fill="white"/>
<path d="M129.078 566H126.816V558.113H118.214V566H115.964V548.938H118.214V556.273H126.816V548.938H129.078V566ZM132.16 559.543C132.16 558.301 132.402 557.184 132.886 556.191C133.378 555.199 134.058 554.434 134.925 553.895C135.8 553.355 136.796 553.086 137.914 553.086C139.64 553.086 141.035 553.684 142.097 554.879C143.167 556.074 143.703 557.664 143.703 559.648V559.801C143.703 561.035 143.464 562.145 142.988 563.129C142.519 564.105 141.843 564.867 140.96 565.414C140.085 565.961 139.078 566.234 137.937 566.234C136.218 566.234 134.824 565.637 133.753 564.441C132.691 563.246 132.16 561.664 132.16 559.695V559.543ZM134.339 559.801C134.339 561.207 134.664 562.336 135.312 563.188C135.968 564.039 136.843 564.465 137.937 564.465C139.039 564.465 139.914 564.035 140.562 563.176C141.21 562.309 141.535 561.098 141.535 559.543C141.535 558.152 141.203 557.027 140.539 556.168C139.882 555.301 139.007 554.867 137.914 554.867C136.843 554.867 135.98 555.293 135.324 556.145C134.667 556.996 134.339 558.215 134.339 559.801ZM153.804 562.637C153.804 562.051 153.582 561.598 153.136 561.277C152.699 560.949 151.929 560.668 150.828 560.434C149.734 560.199 148.863 559.918 148.214 559.59C147.574 559.262 147.097 558.871 146.785 558.418C146.48 557.965 146.328 557.426 146.328 556.801C146.328 555.762 146.765 554.883 147.64 554.164C148.523 553.445 149.648 553.086 151.015 553.086C152.453 553.086 153.617 553.457 154.507 554.199C155.406 554.941 155.855 555.891 155.855 557.047H153.675C153.675 556.453 153.421 555.941 152.914 555.512C152.414 555.082 151.781 554.867 151.015 554.867C150.226 554.867 149.609 555.039 149.164 555.383C148.718 555.727 148.496 556.176 148.496 556.73C148.496 557.254 148.703 557.648 149.117 557.914C149.531 558.18 150.277 558.434 151.355 558.676C152.441 558.918 153.32 559.207 153.992 559.543C154.664 559.879 155.16 560.285 155.48 560.762C155.808 561.23 155.972 561.805 155.972 562.484C155.972 563.617 155.519 564.527 154.613 565.215C153.707 565.895 152.531 566.234 151.085 566.234C150.07 566.234 149.171 566.055 148.39 565.695C147.609 565.336 146.996 564.836 146.55 564.195C146.113 563.547 145.894 562.848 145.894 562.098H148.062C148.101 562.824 148.39 563.402 148.929 563.832C149.476 564.254 150.195 564.465 151.085 564.465C151.906 564.465 152.562 564.301 153.054 563.973C153.554 563.637 153.804 563.191 153.804 562.637ZM169.507 559.801C169.507 561.73 169.066 563.285 168.183 564.465C167.3 565.645 166.105 566.234 164.597 566.234C163.058 566.234 161.847 565.746 160.964 564.77V570.875H158.796V553.32H160.777L160.882 554.727C161.765 553.633 162.992 553.086 164.562 553.086C166.085 553.086 167.289 553.66 168.171 554.809C169.062 555.957 169.507 557.555 169.507 559.602V559.801ZM167.339 559.555C167.339 558.125 167.035 556.996 166.425 556.168C165.816 555.34 164.98 554.926 163.917 554.926C162.605 554.926 161.621 555.508 160.964 556.672V562.73C161.613 563.887 162.605 564.465 163.941 564.465C164.98 564.465 165.804 564.055 166.414 563.234C167.031 562.406 167.339 561.18 167.339 559.555ZM177.535 566.234C175.816 566.234 174.417 565.672 173.339 564.547C172.261 563.414 171.722 561.902 171.722 560.012V559.613C171.722 558.355 171.96 557.234 172.437 556.25C172.921 555.258 173.593 554.484 174.453 553.93C175.32 553.367 176.257 553.086 177.265 553.086C178.914 553.086 180.195 553.629 181.109 554.715C182.023 555.801 182.48 557.355 182.48 559.379V560.281H173.89C173.921 561.531 174.285 562.543 174.98 563.316C175.683 564.082 176.574 564.465 177.652 564.465C178.417 564.465 179.066 564.309 179.597 563.996C180.128 563.684 180.593 563.27 180.992 562.754L182.316 563.785C181.253 565.418 179.66 566.234 177.535 566.234ZM177.265 554.867C176.39 554.867 175.656 555.188 175.062 555.828C174.468 556.461 174.101 557.352 173.96 558.5H180.312V558.336C180.25 557.234 179.953 556.383 179.421 555.781C178.89 555.172 178.171 554.867 177.265 554.867ZM184.472 559.555C184.472 557.609 184.933 556.047 185.855 554.867C186.777 553.68 187.984 553.086 189.476 553.086C190.96 553.086 192.136 553.594 193.003 554.609V548H195.171V566H193.179L193.074 564.641C192.207 565.703 191 566.234 189.453 566.234C187.984 566.234 186.785 565.633 185.855 564.43C184.933 563.227 184.472 561.656 184.472 559.719V559.555ZM186.64 559.801C186.64 561.238 186.937 562.363 187.531 563.176C188.125 563.988 188.945 564.395 189.992 564.395C191.367 564.395 192.371 563.777 193.003 562.543V556.719C192.355 555.523 191.359 554.926 190.015 554.926C188.953 554.926 188.125 555.336 187.531 556.156C186.937 556.977 186.64 558.191 186.64 559.801ZM206.375 566C206.25 565.75 206.148 565.305 206.07 564.664C205.062 565.711 203.859 566.234 202.46 566.234C201.21 566.234 200.183 565.883 199.378 565.18C198.582 564.469 198.183 563.57 198.183 562.484C198.183 561.164 198.683 560.141 199.683 559.414C200.691 558.68 202.105 558.312 203.925 558.312H206.035V557.316C206.035 556.559 205.808 555.957 205.355 555.512C204.902 555.059 204.234 554.832 203.351 554.832C202.578 554.832 201.929 555.027 201.406 555.418C200.882 555.809 200.621 556.281 200.621 556.836H198.441C198.441 556.203 198.664 555.594 199.109 555.008C199.562 554.414 200.171 553.945 200.937 553.602C201.71 553.258 202.558 553.086 203.48 553.086C204.941 553.086 206.085 553.453 206.914 554.188C207.742 554.914 208.171 555.918 208.203 557.199V563.035C208.203 564.199 208.351 565.125 208.648 565.812V566H206.375ZM202.777 564.348C203.457 564.348 204.101 564.172 204.71 563.82C205.32 563.469 205.761 563.012 206.035 562.449V559.848H204.335C201.679 559.848 200.351 560.625 200.351 562.18C200.351 562.859 200.578 563.391 201.031 563.773C201.484 564.156 202.066 564.348 202.777 564.348ZM211.085 559.555C211.085 557.578 211.542 556.008 212.457 554.844C213.371 553.672 214.582 553.086 216.089 553.086C217.636 553.086 218.843 553.633 219.71 554.727L219.816 553.32H221.796V565.695C221.796 567.336 221.308 568.629 220.332 569.574C219.363 570.52 218.058 570.992 216.417 570.992C215.503 570.992 214.609 570.797 213.734 570.406C212.859 570.016 212.191 569.48 211.73 568.801L212.855 567.5C213.785 568.648 214.921 569.223 216.265 569.223C217.32 569.223 218.14 568.926 218.726 568.332C219.32 567.738 219.617 566.902 219.617 565.824V564.734C218.75 565.734 217.566 566.234 216.066 566.234C214.582 566.234 213.378 565.637 212.457 564.441C211.542 563.246 211.085 561.617 211.085 559.555ZM213.265 559.801C213.265 561.23 213.558 562.355 214.144 563.176C214.73 563.988 215.55 564.395 216.605 564.395C217.972 564.395 218.976 563.773 219.617 562.531V556.742C218.953 555.531 217.957 554.926 216.628 554.926C215.574 554.926 214.75 555.336 214.156 556.156C213.562 556.977 213.265 558.191 213.265 559.801ZM230.339 566.234C228.621 566.234 227.222 565.672 226.144 564.547C225.066 563.414 224.527 561.902 224.527 560.012V559.613C224.527 558.355 224.765 557.234 225.242 556.25C225.726 555.258 226.398 554.484 227.257 553.93C228.125 553.367 229.062 553.086 230.07 553.086C231.718 553.086 233 553.629 233.914 554.715C234.828 555.801 235.285 557.355 235.285 559.379V560.281H226.695C226.726 561.531 227.089 562.543 227.785 563.316C228.488 564.082 229.378 564.465 230.457 564.465C231.222 564.465 231.871 564.309 232.402 563.996C232.933 563.684 233.398 563.27 233.796 562.754L235.121 563.785C234.058 565.418 232.464 566.234 230.339 566.234ZM230.07 554.867C229.195 554.867 228.46 555.188 227.867 555.828C227.273 556.461 226.906 557.352 226.765 558.5H233.117V558.336C233.054 557.234 232.757 556.383 232.226 555.781C231.695 555.172 230.976 554.867 230.07 554.867ZM239.843 553.32L239.902 554.727C240.832 553.633 242.085 553.086 243.664 553.086C245.437 553.086 246.644 553.766 247.285 555.125C247.707 554.516 248.253 554.023 248.925 553.648C249.605 553.273 250.406 553.086 251.328 553.086C254.109 553.086 255.523 554.559 255.57 557.504V566H253.402V557.633C253.402 556.727 253.195 556.051 252.781 555.605C252.367 555.152 251.671 554.926 250.695 554.926C249.89 554.926 249.222 555.168 248.691 555.652C248.16 556.129 247.851 556.773 247.765 557.586V566H245.585V557.691C245.585 555.848 244.683 554.926 242.878 554.926C241.457 554.926 240.484 555.531 239.96 556.742V566H237.792V553.32H239.843ZM270.066 566.234C268.347 566.234 266.949 565.672 265.871 564.547C264.792 563.414 264.253 561.902 264.253 560.012V559.613C264.253 558.355 264.492 557.234 264.968 556.25C265.453 555.258 266.125 554.484 266.984 553.93C267.851 553.367 268.789 553.086 269.796 553.086C271.445 553.086 272.726 553.629 273.64 554.715C274.554 555.801 275.011 557.355 275.011 559.379V560.281H266.421C266.453 561.531 266.816 562.543 267.511 563.316C268.214 564.082 269.105 564.465 270.183 564.465C270.949 564.465 271.597 564.309 272.128 563.996C272.66 563.684 273.125 563.27 273.523 562.754L274.847 563.785C273.785 565.418 272.191 566.234 270.066 566.234ZM269.796 554.867C268.921 554.867 268.187 555.188 267.593 555.828C267 556.461 266.632 557.352 266.492 558.5H272.843V558.336C272.781 557.234 272.484 556.383 271.953 555.781C271.421 555.172 270.703 554.867 269.796 554.867ZM92.7964 581.32L92.855 582.727C93.7847 581.633 95.0386 581.086 96.6167 581.086C98.3901 581.086 99.5972 581.766 100.238 583.125C100.66 582.516 101.207 582.023 101.878 581.648C102.558 581.273 103.359 581.086 104.281 581.086C107.062 581.086 108.476 582.559 108.523 585.504V594H106.355V585.633C106.355 584.727 106.148 584.051 105.734 583.605C105.32 583.152 104.625 582.926 103.648 582.926C102.843 582.926 102.175 583.168 101.644 583.652C101.113 584.129 100.804 584.773 100.718 585.586V594H98.5386V585.691C98.5386 583.848 97.6362 582.926 95.8315 582.926C94.4097 582.926 93.437 583.531 92.9136 584.742V594H90.7456V581.32H92.7964ZM119.632 594C119.507 593.75 119.406 593.305 119.328 592.664C118.32 593.711 117.117 594.234 115.718 594.234C114.468 594.234 113.441 593.883 112.636 593.18C111.839 592.469 111.441 591.57 111.441 590.484C111.441 589.164 111.941 588.141 112.941 587.414C113.949 586.68 115.363 586.312 117.183 586.312H119.292V585.316C119.292 584.559 119.066 583.957 118.613 583.512C118.16 583.059 117.492 582.832 116.609 582.832C115.835 582.832 115.187 583.027 114.664 583.418C114.14 583.809 113.878 584.281 113.878 584.836H111.699C111.699 584.203 111.921 583.594 112.367 583.008C112.82 582.414 113.429 581.945 114.195 581.602C114.968 581.258 115.816 581.086 116.738 581.086C118.199 581.086 119.343 581.453 120.171 582.188C121 582.914 121.429 583.918 121.46 585.199V591.035C121.46 592.199 121.609 593.125 121.906 593.812V594H119.632ZM116.035 592.348C116.714 592.348 117.359 592.172 117.968 591.82C118.578 591.469 119.019 591.012 119.292 590.449V587.848H117.593C114.937 587.848 113.609 588.625 113.609 590.18C113.609 590.859 113.835 591.391 114.289 591.773C114.742 592.156 115.324 592.348 116.035 592.348ZM126.91 581.32L126.98 582.914C127.949 581.695 129.214 581.086 130.777 581.086C133.457 581.086 134.808 582.598 134.832 585.621V594H132.664V585.609C132.656 584.695 132.445 584.02 132.031 583.582C131.625 583.145 130.988 582.926 130.121 582.926C129.417 582.926 128.8 583.113 128.269 583.488C127.738 583.863 127.324 584.355 127.027 584.965V594H124.859V581.32H126.91ZM145.929 592.746C145.085 593.738 143.847 594.234 142.214 594.234C140.863 594.234 139.832 593.844 139.121 593.062C138.417 592.273 138.062 591.109 138.054 589.57V581.32H140.222V589.512C140.222 591.434 141.003 592.395 142.566 592.395C144.222 592.395 145.324 591.777 145.871 590.543V581.32H148.039V594H145.976L145.929 592.746ZM154.285 578.25V581.32H156.652V582.996H154.285V590.859C154.285 591.367 154.39 591.75 154.601 592.008C154.812 592.258 155.171 592.383 155.679 592.383C155.929 592.383 156.273 592.336 156.71 592.242V594C156.14 594.156 155.585 594.234 155.046 594.234C154.078 594.234 153.347 593.941 152.855 593.355C152.363 592.77 152.117 591.938 152.117 590.859V582.996H149.808V581.32H152.117V578.25H154.285ZM164.457 594.234C162.738 594.234 161.339 593.672 160.261 592.547C159.183 591.414 158.644 589.902 158.644 588.012V587.613C158.644 586.355 158.882 585.234 159.359 584.25C159.843 583.258 160.515 582.484 161.375 581.93C162.242 581.367 163.179 581.086 164.187 581.086C165.835 581.086 167.117 581.629 168.031 582.715C168.945 583.801 169.402 585.355 169.402 587.379V588.281H160.812C160.843 589.531 161.207 590.543 161.902 591.316C162.605 592.082 163.496 592.465 164.574 592.465C165.339 592.465 165.988 592.309 166.519 591.996C167.05 591.684 167.515 591.27 167.914 590.754L169.238 591.785C168.175 593.418 166.582 594.234 164.457 594.234ZM164.187 582.867C163.312 582.867 162.578 583.188 161.984 583.828C161.39 584.461 161.023 585.352 160.882 586.5H167.234V586.336C167.171 585.234 166.875 584.383 166.343 583.781C165.812 583.172 165.093 582.867 164.187 582.867ZM173.972 581.32L174.042 582.914C175.011 581.695 176.277 581.086 177.839 581.086C180.519 581.086 181.871 582.598 181.894 585.621V594H179.726V585.609C179.718 584.695 179.507 584.02 179.093 583.582C178.687 583.145 178.05 582.926 177.183 582.926C176.48 582.926 175.863 583.113 175.332 583.488C174.8 583.863 174.386 584.355 174.089 584.965V594H171.921V581.32H173.972ZM190.25 592.465C191.023 592.465 191.699 592.23 192.277 591.762C192.855 591.293 193.175 590.707 193.238 590.004H195.289C195.25 590.73 195 591.422 194.539 592.078C194.078 592.734 193.46 593.258 192.687 593.648C191.921 594.039 191.109 594.234 190.25 594.234C188.523 594.234 187.148 593.66 186.125 592.512C185.109 591.355 184.601 589.777 184.601 587.777V587.414C184.601 586.18 184.828 585.082 185.281 584.121C185.734 583.16 186.382 582.414 187.226 581.883C188.078 581.352 189.082 581.086 190.238 581.086C191.66 581.086 192.839 581.512 193.777 582.363C194.722 583.215 195.226 584.32 195.289 585.68H193.238C193.175 584.859 192.863 584.188 192.3 583.664C191.746 583.133 191.058 582.867 190.238 582.867C189.136 582.867 188.281 583.266 187.671 584.062C187.07 584.852 186.769 585.996 186.769 587.496V587.906C186.769 589.367 187.07 590.492 187.671 591.281C188.273 592.07 189.132 592.465 190.25 592.465ZM190.601 594.105L190.46 594.715C191.656 594.926 192.253 595.602 192.253 596.742C192.253 597.5 191.941 598.098 191.316 598.535C190.691 598.98 189.82 599.203 188.703 599.203L188.621 597.949C189.238 597.949 189.714 597.848 190.05 597.645C190.394 597.441 190.566 597.156 190.566 596.789C190.566 596.445 190.441 596.191 190.191 596.027C189.941 595.863 189.433 595.746 188.667 595.676L189.042 594.105H190.601ZM205.554 594C205.429 593.75 205.328 593.305 205.25 592.664C204.242 593.711 203.039 594.234 201.64 594.234C200.39 594.234 199.363 593.883 198.558 593.18C197.761 592.469 197.363 591.57 197.363 590.484C197.363 589.164 197.863 588.141 198.863 587.414C199.871 586.68 201.285 586.312 203.105 586.312H205.214V585.316C205.214 584.559 204.988 583.957 204.535 583.512C204.082 583.059 203.414 582.832 202.531 582.832C201.757 582.832 201.109 583.027 200.585 583.418C200.062 583.809 199.8 584.281 199.8 584.836H197.621C197.621 584.203 197.843 583.594 198.289 583.008C198.742 582.414 199.351 581.945 200.117 581.602C200.89 581.258 201.738 581.086 202.66 581.086C204.121 581.086 205.265 581.453 206.093 582.188C206.921 582.914 207.351 583.918 207.382 585.199V591.035C207.382 592.199 207.531 593.125 207.828 593.812V594H205.554ZM201.957 592.348C202.636 592.348 203.281 592.172 203.89 591.82C204.5 591.469 204.941 591.012 205.214 590.449V587.848H203.515C200.859 587.848 199.531 588.625 199.531 590.18C199.531 590.859 199.757 591.391 200.21 591.773C200.664 592.156 201.246 592.348 201.957 592.348ZM207.054 576.375C207.054 577.219 206.812 577.902 206.328 578.426C205.851 578.949 205.253 579.211 204.535 579.211C204.214 579.211 203.937 579.172 203.703 579.094C203.468 579.016 203.16 578.855 202.777 578.613C202.402 578.371 202.128 578.227 201.957 578.18C201.792 578.125 201.601 578.098 201.382 578.098C201.062 578.098 200.789 578.223 200.562 578.473C200.335 578.715 200.222 579.027 200.222 579.41L198.769 579.328C198.769 578.492 199.003 577.801 199.472 577.254C199.949 576.707 200.55 576.434 201.277 576.434C201.55 576.434 201.796 576.473 202.015 576.551C202.234 576.629 202.531 576.781 202.906 577.008C203.281 577.234 203.566 577.383 203.761 577.453C203.964 577.523 204.187 577.559 204.429 577.559C204.765 577.559 205.042 577.426 205.261 577.16C205.488 576.895 205.601 576.586 205.601 576.234L207.054 576.375ZM210.207 587.543C210.207 586.301 210.449 585.184 210.933 584.191C211.425 583.199 212.105 582.434 212.972 581.895C213.847 581.355 214.843 581.086 215.96 581.086C217.687 581.086 219.082 581.684 220.144 582.879C221.214 584.074 221.75 585.664 221.75 587.648V587.801C221.75 589.035 221.511 590.145 221.035 591.129C220.566 592.105 219.89 592.867 219.007 593.414C218.132 593.961 217.125 594.234 215.984 594.234C214.265 594.234 212.871 593.637 211.8 592.441C210.738 591.246 210.207 589.664 210.207 587.695V587.543ZM212.386 587.801C212.386 589.207 212.71 590.336 213.359 591.188C214.015 592.039 214.89 592.465 215.984 592.465C217.085 592.465 217.96 592.035 218.609 591.176C219.257 590.309 219.582 589.098 219.582 587.543C219.582 586.152 219.25 585.027 218.585 584.168C217.929 583.301 217.054 582.867 215.96 582.867C214.89 582.867 214.027 583.293 213.371 584.145C212.714 584.996 212.386 586.215 212.386 587.801ZM229.894 587.555C229.894 585.609 230.355 584.047 231.277 582.867C232.199 581.68 233.406 581.086 234.898 581.086C236.382 581.086 237.558 581.594 238.425 582.609V576H240.593V594H238.601L238.496 592.641C237.628 593.703 236.421 594.234 234.875 594.234C233.406 594.234 232.207 593.633 231.277 592.43C230.355 591.227 229.894 589.656 229.894 587.719V587.555ZM232.062 587.801C232.062 589.238 232.359 590.363 232.953 591.176C233.546 591.988 234.367 592.395 235.414 592.395C236.789 592.395 237.792 591.777 238.425 590.543V584.719C237.777 583.523 236.781 582.926 235.437 582.926C234.375 582.926 233.546 583.336 232.953 584.156C232.359 584.977 232.062 586.191 232.062 587.801ZM243.394 587.543C243.394 586.301 243.636 585.184 244.121 584.191C244.613 583.199 245.292 582.434 246.16 581.895C247.035 581.355 248.031 581.086 249.148 581.086C250.875 581.086 252.269 581.684 253.332 582.879C254.402 584.074 254.937 585.664 254.937 587.648V587.801C254.937 589.035 254.699 590.145 254.222 591.129C253.753 592.105 253.078 592.867 252.195 593.414C251.32 593.961 250.312 594.234 249.171 594.234C247.453 594.234 246.058 593.637 244.988 592.441C243.925 591.246 243.394 589.664 243.394 587.695V587.543ZM245.574 587.801C245.574 589.207 245.898 590.336 246.546 591.188C247.203 592.039 248.078 592.465 249.171 592.465C250.273 592.465 251.148 592.035 251.796 591.176C252.445 590.309 252.769 589.098 252.769 587.543C252.769 586.152 252.437 585.027 251.773 584.168C251.117 583.301 250.242 582.867 249.148 582.867C248.078 582.867 247.214 583.293 246.558 584.145C245.902 584.996 245.574 586.215 245.574 587.801ZM270.992 590.637C270.992 590.051 270.769 589.598 270.324 589.277C269.886 588.949 269.117 588.668 268.015 588.434C266.921 588.199 266.05 587.918 265.402 587.59C264.761 587.262 264.285 586.871 263.972 586.418C263.667 585.965 263.515 585.426 263.515 584.801C263.515 583.762 263.953 582.883 264.828 582.164C265.71 581.445 266.835 581.086 268.203 581.086C269.64 581.086 270.804 581.457 271.695 582.199C272.593 582.941 273.042 583.891 273.042 585.047H270.863C270.863 584.453 270.609 583.941 270.101 583.512C269.601 583.082 268.968 582.867 268.203 582.867C267.414 582.867 266.796 583.039 266.351 583.383C265.906 583.727 265.683 584.176 265.683 584.73C265.683 585.254 265.89 585.648 266.304 585.914C266.718 586.18 267.464 586.434 268.542 586.676C269.628 586.918 270.507 587.207 271.179 587.543C271.851 587.879 272.347 588.285 272.667 588.762C272.996 589.23 273.16 589.805 273.16 590.484C273.16 591.617 272.707 592.527 271.8 593.215C270.894 593.895 269.718 594.234 268.273 594.234C267.257 594.234 266.359 594.055 265.578 593.695C264.796 593.336 264.183 592.836 263.738 592.195C263.3 591.547 263.082 590.848 263.082 590.098H265.25C265.289 590.824 265.578 591.402 266.117 591.832C266.664 592.254 267.382 592.465 268.273 592.465C269.093 592.465 269.75 592.301 270.242 591.973C270.742 591.637 270.992 591.191 270.992 590.637ZM278.339 594H276.171V581.32H278.339V594ZM275.996 577.957C275.996 577.605 276.101 577.309 276.312 577.066C276.531 576.824 276.851 576.703 277.273 576.703C277.695 576.703 278.015 576.824 278.234 577.066C278.453 577.309 278.562 577.605 278.562 577.957C278.562 578.309 278.453 578.602 278.234 578.836C278.015 579.07 277.695 579.188 277.273 579.188C276.851 579.188 276.531 579.07 276.312 578.836C276.101 578.602 275.996 578.309 275.996 577.957ZM284.761 578.25V581.32H287.128V582.996H284.761V590.859C284.761 591.367 284.867 591.75 285.078 592.008C285.289 592.258 285.648 592.383 286.156 592.383C286.406 592.383 286.75 592.336 287.187 592.242V594C286.617 594.156 286.062 594.234 285.523 594.234C284.554 594.234 283.824 593.941 283.332 593.355C282.839 592.77 282.593 591.938 282.593 590.859V582.996H280.285V581.32H282.593V578.25H284.761ZM294.933 594.234C293.214 594.234 291.816 593.672 290.738 592.547C289.66 591.414 289.121 589.902 289.121 588.012V587.613C289.121 586.355 289.359 585.234 289.835 584.25C290.32 583.258 290.992 582.484 291.851 581.93C292.718 581.367 293.656 581.086 294.664 581.086C296.312 581.086 297.593 581.629 298.507 582.715C299.421 583.801 299.878 585.355 299.878 587.379V588.281H291.289C291.32 589.531 291.683 590.543 292.378 591.316C293.082 592.082 293.972 592.465 295.05 592.465C295.816 592.465 296.464 592.309 296.996 591.996C297.527 591.684 297.992 591.27 298.39 590.754L299.714 591.785C298.652 593.418 297.058 594.234 294.933 594.234ZM294.664 582.867C293.789 582.867 293.054 583.188 292.46 583.828C291.867 584.461 291.5 585.352 291.359 586.5H297.71V586.336C297.648 585.234 297.351 584.383 296.82 583.781C296.289 583.172 295.57 582.867 294.664 582.867Z" fill="white"/>
</svg>
